<svg width="70" height="70" viewBox="0 0 70 70" fill="none" xmlns="http://www.w3.org/2000/svg">
<path d="M61.2529 61.7969H37.1886C36.4336 61.7969 35.8214 62.4091 35.8214 63.1641C35.8214 63.919 36.4336 64.5312 37.1886 64.5312H59.6514C59.0871 66.1228 57.5665 67.2656 55.7841 67.2656H12.301C12.8994 66.4703 13.3286 65.5411 13.5343 64.5312H25.9094C26.6644 64.5312 27.2766 63.919 27.2766 63.1641C27.2766 62.4091 26.6644 61.7969 25.9094 61.7969H12.3047C11.5497 61.7969 10.9375 62.4091 10.9375 63.1641C10.9375 65.4257 9.09754 67.2656 6.83594 67.2656C4.57434 67.2656 2.73438 65.4257 2.73438 63.1641V2.73438H52.501V19.6191C52.501 20.3741 53.1132 20.9863 53.8681 20.9863C54.6231 20.9863 55.2353 20.3741 55.2353 19.6191V1.36719C55.2353 0.612227 54.6231 0 53.8681 0H1.36719C0.612227 0 0 0.612227 0 1.36719V63.1641C0 66.9334 3.0666 70 6.83594 70H55.7841C59.5535 70 62.6201 66.9334 62.6201 63.1641C62.6201 62.409 62.0078 61.7969 61.2529 61.7969Z" fill="#23283B"/>
<path d="M32.1971 62.197C31.9428 61.9427 31.59 61.7964 31.2305 61.7964C30.8709 61.7964 30.5183 61.9427 30.2639 62.197C30.0097 62.4526 29.8633 62.8039 29.8633 63.1636C29.8633 63.5231 30.0096 63.8759 30.2639 64.13C30.5182 64.3843 30.8709 64.5308 31.2305 64.5308C31.59 64.5308 31.9428 64.3845 32.1971 64.13C32.4512 63.8759 32.5977 63.5231 32.5977 63.1636C32.5977 62.8039 32.4514 62.4526 32.1971 62.197Z" fill="#23283B"/>
<path d="M38.8984 38.2227H16.3369C15.582 38.2227 14.9697 38.8349 14.9697 39.5898C14.9697 40.3448 15.582 40.957 16.3369 40.957H38.8984C39.6533 40.957 40.2656 40.3448 40.2656 39.5898C40.2656 38.8349 39.6533 38.2227 38.8984 38.2227Z" fill="#23283B"/>
<path d="M38.8984 44.7852H16.3369C15.582 44.7852 14.9697 45.3974 14.9697 46.1523C14.9697 46.9073 15.582 47.5195 16.3369 47.5195H38.8984C39.6533 47.5195 40.2656 46.9073 40.2656 46.1523C40.2656 45.3974 39.6533 44.7852 38.8984 44.7852Z" fill="#23283B"/>
<path d="M39.8644 51.7479C39.6101 51.4935 39.2586 51.3472 38.8978 51.3472C38.5383 51.3472 38.1855 51.4935 37.9312 51.7479C37.6771 52.0034 37.5306 52.3548 37.5306 52.7144C37.5306 53.0754 37.6769 53.4267 37.9312 53.681C38.1855 53.9366 38.5383 54.0815 38.8978 54.0815C39.2588 54.0815 39.6101 53.9366 39.8644 53.681C40.1186 53.428 40.265 53.0753 40.265 52.7144C40.265 52.3548 40.1187 52.0021 39.8644 51.7479Z" fill="#23283B"/>
<path d="M32.8249 51.3477H16.3369C15.582 51.3477 14.9697 51.9599 14.9697 52.7148C14.9697 53.4698 15.582 54.082 16.3369 54.082H32.8249C33.5799 54.082 34.1921 53.4698 34.1921 52.7148C34.1921 51.9599 33.5799 51.3477 32.8249 51.3477Z" fill="#23283B"/>
<path d="M38.6537 21.875C38.7152 21.7935 38.7784 21.712 38.8375 21.6304C40.7653 18.9681 41.2378 16.4814 40.1683 14.6289C39.099 12.7764 36.7103 11.9429 33.4394 12.2806C33.3423 12.2906 33.2435 12.3043 33.1455 12.3163C31.839 9.25873 29.8812 7.38281 27.6178 7.38281C25.3544 7.38281 23.3966 9.25873 22.0901 12.3163C21.9919 12.3043 21.8931 12.2906 21.796 12.2806C18.5267 11.9424 16.1366 12.7764 15.0671 14.6289C13.9365 16.5871 14.5797 19.2175 16.57 21.875C14.5797 24.5325 13.9366 27.1629 15.0671 29.1211C16.0048 30.7453 17.9526 31.544 20.4711 31.544C20.9884 31.544 21.5313 31.5078 22.093 31.4405C23.3993 34.4941 25.356 36.3672 27.6178 36.3672C29.8795 36.3672 31.8361 34.4941 33.1426 31.4405C33.7041 31.5077 34.247 31.544 34.7643 31.544C37.2823 31.544 39.2308 30.7452 40.1683 29.1211C41.2378 27.2684 40.7652 24.7821 38.8375 22.1196C38.7784 22.038 38.7152 21.9565 38.6537 21.875ZM17.4351 15.9961C17.8287 15.3146 18.9117 14.941 20.4174 14.941C20.6665 14.941 20.9275 14.9517 21.1984 14.9723C20.9659 15.8732 20.7787 16.8349 20.6427 17.8478C19.8326 18.4726 19.0927 19.1163 18.4284 19.7687C17.3207 18.1387 16.9972 16.7547 17.4351 15.9961ZM20.3828 22.063C20.3186 22.0004 20.2533 21.9375 20.1914 21.875C20.2534 21.8125 20.3188 21.7496 20.3828 21.687C20.3824 21.7496 20.3817 21.8121 20.3817 21.875C20.3817 21.9379 20.3825 22.0004 20.3828 22.063ZM17.4351 27.7539C16.9972 26.9954 17.3207 25.6112 18.4284 23.9813C19.0927 24.6337 19.8326 25.2774 20.6427 25.9022C20.7788 26.9161 20.9661 27.8787 21.1991 28.7803C19.2335 28.9245 17.8732 28.5127 17.4351 27.7539ZM31.3327 15.4504C31.3553 15.5337 31.3766 15.6197 31.3983 15.7047C31.3439 15.6729 31.2905 15.6401 31.2356 15.6085C31.1834 15.5784 31.1309 15.55 31.0787 15.5202C31.1636 15.4965 31.2484 15.4729 31.3327 15.4504ZM27.6178 10.1172C28.4955 10.1172 29.5351 11.0932 30.394 12.8748C29.485 13.1268 28.5549 13.4449 27.6177 13.828C26.6804 13.4449 25.7505 13.1268 24.8414 12.8748C25.7004 11.0932 26.7399 10.1172 27.6178 10.1172ZM23.9029 15.4504C23.9871 15.4727 24.0718 15.4964 24.1568 15.52C24.1045 15.5498 24.0519 15.5783 23.9998 15.6084C23.9454 15.6398 23.8917 15.6717 23.8376 15.7032C23.8591 15.6189 23.8803 15.5333 23.9029 15.4504ZM23.9045 28.3065C23.8814 28.2216 23.8597 28.1336 23.8375 28.0468C23.8917 28.0783 23.9452 28.1102 23.9997 28.1416C24.0548 28.1735 24.1097 28.2029 24.1648 28.2342C24.0779 28.2585 23.9902 28.2838 23.9045 28.3065ZM27.6178 33.6328C26.742 33.6328 25.7051 32.6609 24.8473 30.8867C25.7443 30.6376 26.6717 30.3183 27.6177 29.9294C28.5637 30.3185 29.4911 30.6378 30.3881 30.8868C29.5303 32.6609 28.4936 33.6328 27.6178 33.6328ZM31.3309 28.3064C31.2452 28.2837 31.1576 28.2584 31.0708 28.2341C31.1257 28.2028 31.1807 28.1734 31.2358 28.1416C31.2905 28.1101 31.3439 28.0772 31.3983 28.0454C31.3759 28.1326 31.3542 28.2211 31.3309 28.3064ZM32.0084 24.4058C31.3322 24.8831 30.617 25.3415 29.8686 25.7737C29.0995 26.2176 28.3477 26.606 27.6178 26.9445C26.8878 26.606 26.1359 26.2176 25.3668 25.7737C24.5978 25.3297 23.8855 24.8728 23.2275 24.4099C23.1557 23.6085 23.1162 22.763 23.1162 21.8751C23.1162 20.9873 23.1557 20.1417 23.2275 19.3404C23.8856 18.8774 24.5979 18.4205 25.3668 17.9766C26.114 17.5453 26.8675 17.1556 27.6177 16.809C28.3678 17.1556 29.1213 17.5453 29.8685 17.9766C30.6168 18.4088 31.3322 18.8672 32.0084 19.3445C32.08 20.1447 32.1194 20.9887 32.1194 21.8751C32.1194 22.7616 32.0799 23.6056 32.0084 24.4058ZM37.8002 27.7539C37.3623 28.5124 36.0021 28.9242 34.0365 28.78C34.27 27.8757 34.4578 26.9099 34.594 25.8926C35.3905 25.2751 36.1276 24.6315 36.7975 23.9732C37.8837 25.5574 38.2598 26.9579 37.8002 27.7539ZM34.8528 21.6959C34.9138 21.7555 34.9748 21.8151 35.0342 21.875C34.9748 21.9349 34.9138 21.9945 34.8528 22.0541C34.8531 21.9944 34.8539 21.9349 34.8539 21.875C34.8539 21.8151 34.8531 21.7556 34.8528 21.6959ZM36.7978 19.7769C36.1278 19.1186 35.3908 18.4749 34.5943 17.8574C34.4581 16.8409 34.2705 15.8759 34.0373 14.9723C34.308 14.9517 34.569 14.9412 34.8181 14.9412C36.3235 14.9412 37.4068 15.3146 37.8003 15.9962C38.2598 16.7922 37.8837 18.1926 36.7978 19.7769Z" fill="#23283B"/>
<path d="M57.9004 23.0786C51.2287 23.0786 45.8008 28.5065 45.8008 35.1782C45.8008 39.0727 47.6507 42.5427 50.5176 44.7574V57.4128C50.5176 57.964 50.8487 58.4614 51.3573 58.6742C51.8662 58.8869 52.4526 58.7734 52.8451 58.3861L57.9005 53.3986L62.956 58.3861C63.217 58.6437 63.5638 58.7801 63.9164 58.7801C64.0942 58.7801 64.2733 58.7455 64.4436 58.6743C64.9522 58.4616 65.2833 57.9643 65.2833 57.4129V44.7576C68.1501 42.5427 70 39.0728 70 35.1782C70 28.5065 64.5721 23.0786 57.9004 23.0786ZM62.5488 54.1433L58.8606 50.5047C58.328 49.9794 57.4726 49.9794 56.9401 50.5047L53.252 54.1433V46.3487C54.6839 46.9468 56.2542 47.2778 57.9004 47.2778C59.5466 47.2778 61.1168 46.9468 62.5488 46.3487V54.1433ZM57.9004 44.5435C52.7364 44.5435 48.5352 40.3424 48.5352 35.1782C48.5352 30.0142 52.7364 25.813 57.9004 25.813C63.0644 25.813 67.2656 30.0142 67.2656 35.1782C67.2656 40.3422 63.0644 44.5435 57.9004 44.5435Z" fill="#9B2C60"/>
<path d="M64.9783 33.4558C64.8174 32.9609 64.3893 32.6003 63.8744 32.5255L60.5933 32.0498L59.1252 29.0771C58.8948 28.6107 58.4197 28.3154 57.8994 28.3154C57.8993 28.3154 57.8991 28.3154 57.899 28.3154C57.3785 28.3156 56.9034 28.6112 56.6732 29.0779L55.2067 32.0511L51.926 32.5288C51.411 32.6038 50.9832 32.9647 50.8226 33.4596C50.6619 33.9547 50.7962 34.498 51.1689 34.8611L53.5435 37.1747L52.9841 40.4424C52.8962 40.9552 53.1071 41.4737 53.5282 41.7794C53.7664 41.9523 54.0483 42.0402 54.3317 42.0402C54.5495 42.0402 54.768 41.9883 54.968 41.8831L57.9023 40.3396L60.8371 41.8815C61.2979 42.1236 61.856 42.0831 62.2768 41.777C62.6978 41.4711 62.9085 40.9526 62.8204 40.4397L62.2593 37.1722L64.6328 34.8574C65.0053 34.494 65.1392 33.9507 64.9783 33.4558ZM59.8355 35.7164C59.5135 36.0306 59.3664 36.4831 59.4427 36.9267L59.6565 38.1724L58.5377 37.5846C58.1395 37.3755 57.6636 37.3756 57.2653 37.5848L56.1465 38.1734L56.3599 36.9276C56.436 36.4842 56.2887 36.0316 55.9665 35.7175L55.0611 34.8355L56.3121 34.6534C56.7574 34.5886 57.1422 34.3088 57.3413 33.9052L57.9003 32.7718L58.4601 33.905C58.6593 34.3084 59.0443 34.588 59.4896 34.6526L60.7403 34.834L59.8355 35.7164Z" fill="#9B2C60"/>
</svg>
