<svg width="70" height="70" viewBox="0 0 70 70" fill="none" xmlns="http://www.w3.org/2000/svg">
<path d="M64.1908 43.3398C65.167 42.2502 65.7617 40.8119 65.7617 39.2383C65.7617 35.8463 63.0014 33.0859 59.6094 33.0859H47.6684C48.851 29.4971 49.3555 24.7352 49.3555 22.6939V20.6445C49.3555 16.1219 45.675 12.4414 41.1523 12.4414H39.1016C38.1609 12.4414 37.3406 13.0813 37.1123 13.9945L35.9953 18.4639C34.4299 24.7229 29.4602 31.6285 24.3168 32.8836C23.4158 30.6031 21.1914 28.9844 18.5938 28.9844H6.28906C5.15703 28.9844 4.23828 29.9031 4.23828 31.0352V67.9492C4.23828 69.0812 5.15703 70 6.28906 70H18.5938C21.0396 70 23.1561 68.5658 24.1473 66.4932L31.1938 68.842C33.4975 69.6104 35.8982 70 38.3277 70H55.5078C58.8998 70 61.6602 67.2396 61.6602 63.8477C61.6602 63.0479 61.507 62.2822 61.2281 61.5809C63.8367 60.8686 65.7617 58.4773 65.7617 55.6445C65.7617 54.0709 65.167 52.6326 64.1908 51.543C65.167 50.4533 65.7617 49.015 65.7617 47.4414C65.7617 45.8678 65.167 44.4295 64.1908 43.3398ZM20.6445 63.8477C20.6445 64.9783 19.7244 65.8984 18.5938 65.8984H8.33984V33.0859H18.5938C19.7244 33.0859 20.6445 34.0061 20.6445 35.1367V63.8477ZM55.5078 45.3906H59.6094C60.74 45.3906 61.6602 46.3107 61.6602 47.4414C61.6602 48.5721 60.74 49.4922 59.6094 49.4922H55.5078C54.3758 49.4922 53.457 50.4109 53.457 51.543C53.457 52.675 54.3758 53.5938 55.5078 53.5938H59.6094C60.74 53.5938 61.6602 54.5139 61.6602 55.6445C61.6602 56.7752 60.74 57.6953 59.6094 57.6953H55.5078C54.3758 57.6953 53.457 58.6141 53.457 59.7461C53.457 60.8781 54.3758 61.7969 55.5078 61.7969C56.6385 61.7969 57.5586 62.717 57.5586 63.8477C57.5586 64.9783 56.6385 65.8984 55.5078 65.8984H38.3277C36.3398 65.8984 34.3752 65.5799 32.4898 64.951L24.7461 62.3697V36.9934C27.9631 36.3822 31.1117 34.3451 33.9541 31.0105C36.7295 27.7539 38.9799 23.4363 39.9738 19.4592L40.7025 16.543H41.1523C43.4137 16.543 45.2539 18.3832 45.2539 20.6445V22.6939C45.2539 25.4475 44.3926 30.7289 43.2906 33.0859H39.1016C37.9695 33.0859 37.0508 34.0047 37.0508 35.1367C37.0508 36.2687 37.9695 37.1875 39.1016 37.1875H59.6094C60.74 37.1875 61.6602 38.1076 61.6602 39.2383C61.6602 40.3689 60.74 41.2891 59.6094 41.2891H55.5078C54.3758 41.2891 53.457 42.2078 53.457 43.3398C53.457 44.4719 54.3758 45.3906 55.5078 45.3906Z" fill="#23283B"/>
<path d="M14.4922 61.7969C15.6248 61.7969 16.543 60.8787 16.543 59.7461C16.543 58.6135 15.6248 57.6953 14.4922 57.6953C13.3596 57.6953 12.4414 58.6135 12.4414 59.7461C12.4414 60.8787 13.3596 61.7969 14.4922 61.7969Z" fill="#23283B"/>
<path d="M43.2031 0C42.0705 0 41.1523 0.918203 41.1523 2.05078V6.28906C41.1523 7.42164 42.0705 8.33984 43.2031 8.33984C44.3357 8.33984 45.2539 7.42164 45.2539 6.28906V2.05078C45.2539 0.918203 44.3357 0 43.2031 0Z" fill="#9B2C60"/>
<path d="M34.5023 9.04337L31.6021 6.14315C30.8013 5.34226 29.5028 5.34226 28.7019 6.14315C27.901 6.94405 27.901 8.24247 28.7019 9.04337L31.6021 11.9436C32.4029 12.7443 33.7015 12.7445 34.5023 11.9436C35.3032 11.1427 35.3032 9.84427 34.5023 9.04337Z" fill="#9B2C60"/>
<path d="M57.7043 6.14315C56.9036 5.34226 55.605 5.34226 54.8041 6.14315L51.9039 9.04323C51.103 9.84413 51.103 11.1425 51.9039 11.9434C52.7047 12.7443 54.0032 12.7445 54.8041 11.9436L57.7043 9.04337C58.5052 8.24247 58.5052 6.94405 57.7043 6.14315Z" fill="#9B2C60"/>
</svg>
