<svg width="24" height="25" viewBox="0 0 24 25" fill="none" xmlns="http://www.w3.org/2000/svg">
<path d="M2.28262 24.5H18.4736C18.8941 24.5 19.2978 24.3332 19.5961 24.0361L23.5296 20.1215C23.8307 19.8222 24 19.4144 24 18.9893V4.74439C24 3.48112 22.9779 2.45703 21.7171 2.45703H20.3356V4.3575C20.3356 5.32051 19.5564 6.10123 18.5952 6.10123H18.482C17.5206 6.10123 16.7414 5.32051 16.7414 4.35731V2.45703H7.30619V4.35731C7.30619 5.32051 6.527 6.10123 5.56567 6.10123H5.45257C4.49124 6.10123 3.71205 5.32051 3.71205 4.35731V2.45703H2.28291C1.0221 2.45703 0 3.48117 0 4.74439V22.2127C0 23.4758 1.02214 24.4999 2.28276 24.4999L2.28262 24.5ZM19.1902 22.6819V20.2032C19.1902 19.7311 19.5738 19.3472 20.0446 19.3472H22.3526L19.1902 22.6819ZM22.5712 8.5883V17.916H20.0446C18.7856 17.916 17.7617 18.9422 17.7617 20.2034V23.0689H2.28262C1.81164 23.0689 1.42829 22.685 1.42829 22.213V8.58839L22.5712 8.5883Z" fill="#23283B"/>
<path d="M4.88076 14.7801H7.53257C8.10528 14.7801 8.56995 14.1486 8.56995 13.3696V11.9066C8.56995 11.1277 8.10548 10.4961 7.53257 10.4961H4.88076C4.30805 10.4961 3.84338 11.1275 3.84338 11.9066V13.3696C3.84338 14.1486 4.30804 14.7801 4.88076 14.7801Z" fill="#B20932"/>
<path d="M10.6979 14.7801H13.3493C13.9224 14.7801 14.3867 14.1486 14.3867 13.3696V11.9066C14.3867 11.1277 13.9222 10.4961 13.3493 10.4961H10.6979C10.1248 10.4961 9.66052 11.1275 9.66052 11.9066V13.3696C9.66052 14.1486 10.125 14.7801 10.6979 14.7801Z" fill="#23283B"/>
<path d="M16.5146 14.7801H19.1664C19.7391 14.7801 20.2037 14.1486 20.2037 13.3696V11.9066C20.2037 11.1277 19.7393 10.4961 19.1664 10.4961H16.5146C15.9418 10.4961 15.4772 11.1275 15.4772 11.9066V13.3696C15.4774 14.1486 15.9418 14.7801 16.5146 14.7801Z" fill="#23283B"/>
<path d="M4.88076 20.547H7.53257C8.10528 20.547 8.56995 19.9156 8.56995 19.1366V17.6735C8.56995 16.8945 8.10548 16.2631 7.53257 16.2631H4.88076C4.30805 16.2631 3.84338 16.8945 3.84338 17.6735V19.1366C3.84338 19.9154 4.30804 20.547 4.88076 20.547Z" fill="#23283B"/>
<path d="M10.6979 20.547H13.3493C13.9224 20.547 14.3867 19.9156 14.3867 19.1366V17.6735C14.3867 16.8945 13.9222 16.2631 13.3493 16.2631H10.6979C10.1248 16.2631 9.66052 16.8945 9.66052 17.6735V19.1366C9.66052 19.9154 10.125 20.547 10.6979 20.547Z" fill="#23283B"/>
<path d="M5.45212 5.35269H5.56521C6.11264 5.35269 6.55798 4.90651 6.55798 4.35799V1.4947C6.55798 0.946203 6.11266 0.5 5.56521 0.5H5.45212C4.90469 0.5 4.45935 0.946184 4.45935 1.4947V4.3578C4.45935 4.90649 4.90467 5.35269 5.45212 5.35269Z" fill="#23283B"/>
<path d="M18.4817 5.35269H18.5948C19.1422 5.35269 19.5875 4.90651 19.5875 4.35799V1.4947C19.5875 0.946203 19.1422 0.5 18.5948 0.5H18.4817C17.9342 0.5 17.4889 0.946184 17.4889 1.4947V4.3578C17.4887 4.90649 17.934 5.35269 18.4817 5.35269Z" fill="#23283B"/>
</svg>
