<svg width="24" height="24" viewBox="0 0 24 24" fill="none" xmlns="http://www.w3.org/2000/svg">
<path d="M11.9999 23.095C11.9296 23.0246 11.8341 22.9851 11.7346 22.9851C11.6351 22.9851 11.5396 23.0246 11.4693 23.095C11.3989 23.1654 11.3594 23.2608 11.3594 23.3603C11.3594 23.4599 11.3989 23.5553 11.4693 23.6257L11.7337 23.89C11.7685 23.9249 11.8099 23.9526 11.8554 23.9714C11.9009 23.9903 11.9497 24 11.999 24C12.0483 24 12.0971 23.9903 12.1426 23.9714C12.1881 23.9526 12.2295 23.9249 12.2643 23.89L12.5306 23.6257C12.6009 23.5553 12.6405 23.4599 12.6405 23.3603C12.6405 23.2608 12.6009 23.1654 12.5306 23.095C12.4602 23.0246 12.3648 22.9851 12.2653 22.9851C12.1657 22.9851 12.0703 23.0246 11.9999 23.095Z" fill="white"/>
<path d="M3.67766 14.773C3.64282 14.7381 3.60145 14.7105 3.55593 14.6916C3.5104 14.6728 3.46161 14.6631 3.41234 14.6631C3.36306 14.6631 3.31427 14.6728 3.26874 14.6916C3.22322 14.7105 3.18185 14.7381 3.14701 14.773C3.11217 14.8078 3.08453 14.8492 3.06567 14.8947C3.04681 14.9402 3.03711 14.989 3.03711 15.0383C3.03711 15.0876 3.04681 15.1364 3.06567 15.1819C3.08453 15.2274 3.11217 15.2688 3.14701 15.3036L3.70954 15.8662C3.77991 15.9365 3.87535 15.9761 3.97486 15.9761C4.07438 15.9761 4.16982 15.9365 4.24019 15.8662C4.31056 15.7958 4.35009 15.7004 4.35009 15.6008C4.35009 15.5013 4.31056 15.4059 4.24019 15.3355L3.67766 14.773Z" fill="white"/>
<path d="M10.3339 21.4322C10.2635 21.3618 10.1681 21.3223 10.0686 21.3223C9.96907 21.3223 9.87363 21.3618 9.80326 21.4322C9.73289 21.5025 9.69336 21.598 9.69336 21.6975C9.69336 21.797 9.73289 21.8924 9.80326 21.9628L10.3658 22.5253C10.4362 22.5957 10.5316 22.6352 10.6311 22.6352C10.7306 22.6352 10.8261 22.5957 10.8964 22.5253C10.9668 22.455 11.0063 22.3595 11.0063 22.26C11.0063 22.1605 10.9668 22.0651 10.8964 21.9947L10.3339 21.4322Z" fill="white"/>
<path d="M2.01555 13.1101C1.94518 13.0398 1.84974 13.0002 1.75023 13.0002C1.65071 13.0002 1.55527 13.0398 1.4849 13.1101C1.41453 13.1805 1.375 13.276 1.375 13.3755C1.375 13.475 1.41453 13.5704 1.4849 13.6408L2.04743 14.2033C2.1178 14.2737 2.21324 14.3132 2.31275 14.3132C2.41227 14.3132 2.50771 14.2737 2.57808 14.2033C2.64845 14.133 2.68798 14.0375 2.68798 13.938C2.68798 13.8385 2.64845 13.743 2.57808 13.6727L2.01555 13.1101Z" fill="white"/>
<path d="M8.6718 19.7669C8.60143 19.6965 8.50599 19.657 8.40648 19.657C8.30696 19.657 8.21152 19.6965 8.14115 19.7669C8.07078 19.8373 8.03125 19.9327 8.03125 20.0322C8.03125 20.1317 8.07078 20.2272 8.14115 20.2975L8.70368 20.8601C8.77405 20.9304 8.86949 20.97 8.969 20.97C9.06852 20.97 9.16396 20.9304 9.23433 20.8601C9.3047 20.7897 9.34423 20.6943 9.34423 20.5947C9.34423 20.4952 9.3047 20.3998 9.23433 20.3294L8.6718 19.7669Z" fill="white"/>
<path d="M7.00579 18.1016C6.93542 18.0312 6.83998 17.9917 6.74046 17.9917C6.64095 17.9917 6.5455 18.0312 6.47514 18.1016C6.40477 18.172 6.36523 18.2674 6.36523 18.3669C6.36523 18.4664 6.40477 18.5619 6.47514 18.6323L7.03766 19.1948C7.07251 19.2296 7.11387 19.2573 7.1594 19.2761C7.20492 19.295 7.25371 19.3047 7.30299 19.3047C7.35226 19.3047 7.40106 19.295 7.44658 19.2761C7.49211 19.2573 7.53347 19.2296 7.56831 19.1948C7.60316 19.1599 7.6308 19.1186 7.64965 19.073C7.66851 19.0275 7.67821 18.9787 7.67821 18.9295C7.67821 18.8802 7.66851 18.8314 7.64965 18.7859C7.6308 18.7403 7.60316 18.699 7.56831 18.6641L7.00579 18.1016Z" fill="white"/>
<path d="M5.34368 16.4385C5.30883 16.4037 5.26747 16.376 5.22194 16.3572C5.17642 16.3383 5.12763 16.3286 5.07835 16.3286C5.02908 16.3286 4.98028 16.3383 4.93476 16.3572C4.88923 16.376 4.84787 16.4037 4.81303 16.4385C4.77818 16.4734 4.75054 16.5147 4.73169 16.5602C4.71283 16.6058 4.70312 16.6546 4.70312 16.7038C4.70312 16.7531 4.71283 16.8019 4.73169 16.8474C4.75054 16.893 4.77818 16.9343 4.81303 16.9692L5.37555 17.5317C5.4104 17.5665 5.45176 17.5942 5.49729 17.613C5.54281 17.6319 5.5916 17.6416 5.64088 17.6416C5.69015 17.6416 5.73895 17.6319 5.78447 17.613C5.83 17.5942 5.87136 17.5665 5.9062 17.5317C5.94105 17.4968 5.96869 17.4555 5.98754 17.41C6.0064 17.3644 6.01611 17.3156 6.01611 17.2664C6.01611 17.2171 6.0064 17.1683 5.98754 17.1228C5.96869 17.0772 5.94105 17.0359 5.9062 17.001L5.34368 16.4385Z" fill="white"/>
<path d="M0.905026 11.4691C0.870197 11.4343 0.828837 11.4066 0.78331 11.3877C0.737784 11.3688 0.688984 11.3591 0.639701 11.3591C0.590417 11.3591 0.541617 11.3688 0.496091 11.3877C0.450565 11.4066 0.409204 11.4343 0.374375 11.4691L0.109988 11.7354C0.0751199 11.7702 0.047459 11.8116 0.0285865 11.8571C0.00971396 11.9026 0 11.9514 0 12.0007C0 12.05 0.00971396 12.0988 0.0285865 12.1443C0.047459 12.1898 0.0751199 12.2312 0.109988 12.266L0.374375 12.5304C0.409218 12.5653 0.450583 12.5929 0.496108 12.6118C0.541632 12.6306 0.590425 12.6403 0.639701 12.6403C0.688976 12.6403 0.737769 12.6306 0.783293 12.6118C0.828818 12.5929 0.870183 12.5653 0.905026 12.5304C0.939869 12.4956 0.967508 12.4542 0.986365 12.4087C1.00522 12.3632 1.01493 12.3144 1.01493 12.2651C1.01493 12.2158 1.00522 12.167 0.986365 12.1215C0.967508 12.076 0.939869 12.0346 0.905026 11.9998C0.939894 11.9649 0.967555 11.9236 0.986427 11.8781C1.0053 11.8325 1.01501 11.7837 1.01501 11.7344C1.01501 11.6852 1.0053 11.6364 0.986427 11.5908C0.967555 11.5453 0.939894 11.5039 0.905026 11.4691Z" fill="white"/>
<path d="M7.03083 4.81229L6.4683 5.37482C6.43346 5.40966 6.40582 5.45103 6.38696 5.49655C6.3681 5.54208 6.3584 5.59087 6.3584 5.64015C6.3584 5.68942 6.3681 5.73821 6.38696 5.78374C6.40582 5.82926 6.43346 5.87063 6.4683 5.90547C6.53867 5.97584 6.63411 6.01537 6.73363 6.01537C6.7829 6.01537 6.83169 6.00567 6.87722 5.98681C6.92274 5.96795 6.96411 5.94031 6.99895 5.90547L7.56148 5.34294C7.63185 5.27258 7.67138 5.17714 7.67138 5.07762C7.67138 4.9781 7.63185 4.88266 7.56148 4.81229C7.49111 4.74193 7.39567 4.70239 7.29615 4.70239C7.19664 4.70239 7.1012 4.74193 7.03083 4.81229Z" fill="white"/>
<path d="M8.69587 3.14774L8.13334 3.71027C8.0985 3.74511 8.07086 3.78648 8.052 3.832C8.03314 3.87753 8.02344 3.92632 8.02344 3.9756C8.02344 4.02487 8.03314 4.07366 8.052 4.11919C8.07086 4.16471 8.0985 4.20608 8.13334 4.24092C8.16818 4.27576 8.20955 4.3034 8.25507 4.32226C8.3006 4.34112 8.34939 4.35082 8.39866 4.35082C8.44794 4.35082 8.49673 4.34112 8.54226 4.32226C8.58778 4.3034 8.62915 4.27576 8.66399 4.24092L9.22652 3.67839C9.29688 3.60803 9.33642 3.51258 9.33642 3.41307C9.33642 3.31355 9.29688 3.21811 9.22652 3.14774C9.15615 3.07737 9.06071 3.03784 8.96119 3.03784C8.86167 3.03784 8.76623 3.07737 8.69587 3.14774Z" fill="white"/>
<path d="M5.36774 6.47587L4.80521 7.0384C4.77037 7.07324 4.74273 7.1146 4.72387 7.16013C4.70502 7.20565 4.69531 7.25445 4.69531 7.30372C4.69531 7.353 4.70502 7.40179 4.72387 7.44731C4.74273 7.49284 4.77037 7.5342 4.80521 7.56905C4.84006 7.60389 4.88142 7.63153 4.92695 7.65038C4.97247 7.66924 5.02126 7.67895 5.07054 7.67895C5.11981 7.67895 5.16861 7.66924 5.21413 7.65038C5.25966 7.63153 5.30102 7.60389 5.33586 7.56905L5.89839 7.00652C5.96876 6.93615 6.00829 6.84071 6.00829 6.74119C6.00829 6.64168 5.96876 6.54624 5.89839 6.47587C5.82802 6.4055 5.73258 6.36597 5.63307 6.36597C5.53355 6.36597 5.43811 6.4055 5.36774 6.47587Z" fill="white"/>
<path d="M10.359 1.48417L9.79642 2.0467C9.76158 2.08154 9.73394 2.1229 9.71509 2.16843C9.69623 2.21395 9.68652 2.26275 9.68652 2.31202C9.68652 2.3613 9.69623 2.41009 9.71509 2.45561C9.73394 2.50114 9.76158 2.5425 9.79642 2.57735C9.86679 2.64772 9.96223 2.68725 10.0618 2.68725C10.111 2.68725 10.1598 2.67754 10.2053 2.65869C10.2509 2.63983 10.2922 2.61219 10.3271 2.57735L10.8896 2.01482C10.96 1.94445 10.9995 1.84901 10.9995 1.74949C10.9995 1.64998 10.96 1.55454 10.8896 1.48417C10.8192 1.4138 10.7238 1.37427 10.6243 1.37427C10.5248 1.37427 10.4293 1.4138 10.359 1.48417Z" fill="white"/>
<path d="M3.7027 8.14091L3.14017 8.70343C3.10533 8.73828 3.07769 8.77964 3.05884 8.82517C3.03998 8.87069 3.03027 8.91948 3.03027 8.96876C3.03027 9.01803 3.03998 9.06683 3.05884 9.11235C3.07769 9.15788 3.10533 9.19924 3.14017 9.23408C3.21054 9.30445 3.30598 9.34399 3.4055 9.34399C3.45478 9.34399 3.50357 9.33428 3.54909 9.31542C3.59462 9.29657 3.63598 9.26893 3.67083 9.23408L4.23335 8.67156C4.30372 8.60119 4.34325 8.50575 4.34325 8.40623C4.34325 8.30672 4.30372 8.21128 4.23335 8.14091C4.16298 8.07054 4.06754 8.03101 3.96803 8.03101C3.86851 8.03101 3.77307 8.07054 3.7027 8.14091Z" fill="white"/>
<path d="M2.03962 9.80692L1.47709 10.3694C1.40672 10.4398 1.36719 10.5353 1.36719 10.6348C1.36719 10.7343 1.40672 10.8297 1.47709 10.9001C1.54746 10.9705 1.6429 11.01 1.74241 11.01C1.84193 11.01 1.93737 10.9705 2.00774 10.9001L2.57027 10.3376C2.64064 10.2672 2.68017 10.1718 2.68017 10.0722C2.68017 9.97273 2.64064 9.87729 2.57027 9.80692C2.4999 9.73655 2.40446 9.69702 2.30494 9.69702C2.20542 9.69702 2.10998 9.73655 2.03962 9.80692Z" fill="white"/>
<path d="M11.7355 0.109052L11.4693 0.37344C11.4344 0.408283 11.4068 0.449648 11.3879 0.495172C11.3691 0.540697 11.3594 0.58949 11.3594 0.638765C11.3594 0.688041 11.3691 0.736834 11.3879 0.782358C11.4068 0.827883 11.4344 0.869247 11.4693 0.90409C11.5396 0.974459 11.6351 1.01399 11.7346 1.01399C11.7839 1.01399 11.8327 1.00429 11.8782 0.985429C11.9237 0.966572 11.9651 0.938933 11.9999 0.90409C12.0348 0.938933 12.0761 0.966572 12.1217 0.985429C12.1672 1.00429 12.216 1.01399 12.2653 1.01399C12.3145 1.01399 12.3633 1.00429 12.4088 0.985429C12.4544 0.966572 12.4957 0.938933 12.5306 0.90409C12.5654 0.869247 12.5931 0.827883 12.6119 0.782358C12.6308 0.736834 12.6405 0.688041 12.6405 0.638765C12.6405 0.58949 12.6308 0.540697 12.6119 0.495172C12.5931 0.449648 12.5654 0.408283 12.5306 0.37344L12.2643 0.109052C12.1941 0.039205 12.099 0 11.9999 0C11.9009 0 11.8058 0.039205 11.7355 0.109052Z" fill="white"/>
<path d="M18.9221 7.66999C18.996 7.66968 19.0682 7.64751 19.1296 7.60629C19.191 7.56506 19.2388 7.5066 19.2671 7.43827C19.2953 7.36994 19.3028 7.29478 19.2884 7.22224C19.2741 7.1497 19.2386 7.08302 19.1865 7.03058L18.624 6.46806C18.5536 6.39769 18.4581 6.35815 18.3586 6.35815C18.2591 6.35815 18.1637 6.39769 18.0933 6.46806C18.0229 6.53842 17.9834 6.63386 17.9834 6.73338C17.9834 6.8329 18.0229 6.92834 18.0933 6.99871L18.6558 7.56123C18.6909 7.59599 18.7324 7.62349 18.7781 7.64215C18.8238 7.66081 18.8727 7.67027 18.9221 7.66999Z" fill="white"/>
<path d="M20.5863 9.33332C20.6602 9.33301 20.7324 9.31085 20.7938 9.26962C20.8552 9.22839 20.903 9.16993 20.9313 9.1016C20.9595 9.03327 20.9669 8.95811 20.9526 8.88557C20.9383 8.81303 20.9028 8.74635 20.8507 8.69391L20.2881 8.13139C20.2178 8.06102 20.1223 8.02148 20.0228 8.02148C19.9233 8.02148 19.8279 8.06102 19.7575 8.13139C19.6871 8.20175 19.6476 8.29719 19.6476 8.39671C19.6476 8.49623 19.6871 8.59167 19.7575 8.66204L20.32 9.22456C20.3551 9.25932 20.3966 9.28682 20.4423 9.30548C20.488 9.32414 20.5369 9.3336 20.5863 9.33332Z" fill="white"/>
<path d="M17.2502 5.99885C17.3242 5.99854 17.3964 5.97637 17.4577 5.93514C17.5191 5.89392 17.5669 5.83546 17.5952 5.76713C17.6235 5.6988 17.6309 5.62364 17.6165 5.5511C17.6022 5.47856 17.5667 5.41188 17.5146 5.35944L16.9521 4.79691C16.9172 4.76207 16.8759 4.73443 16.8303 4.71557C16.7848 4.69672 16.736 4.68701 16.6868 4.68701C16.6375 4.68701 16.5887 4.69672 16.5432 4.71557C16.4976 4.73443 16.4563 4.76207 16.4214 4.79691C16.3866 4.83176 16.3589 4.87312 16.3401 4.91865C16.3212 4.96417 16.3115 5.01296 16.3115 5.06224C16.3115 5.11151 16.3212 5.16031 16.3401 5.20583C16.3589 5.25136 16.3866 5.29272 16.4214 5.32756L16.984 5.89009C17.019 5.92485 17.0606 5.95235 17.1062 5.97101C17.1519 5.98967 17.2009 5.99913 17.2502 5.99885Z" fill="white"/>
<path d="M21.9849 10.8886C22.0553 10.959 22.1507 10.9985 22.2503 10.9985C22.3498 10.9985 22.4452 10.959 22.5156 10.8886C22.5859 10.8183 22.6255 10.7228 22.6255 10.6233C22.6255 10.5238 22.5859 10.4283 22.5156 10.358L21.9531 9.79545C21.8827 9.72508 21.7872 9.68555 21.6877 9.68555C21.5882 9.68555 21.4928 9.72508 21.4224 9.79545C21.352 9.86582 21.3125 9.96126 21.3125 10.0608C21.3125 10.1603 21.352 10.2557 21.4224 10.3261L21.9849 10.8886Z" fill="white"/>
<path d="M13.11 1.48426C13.0751 1.51908 13.0475 1.56044 13.0286 1.60597C13.0097 1.6515 13 1.7003 13 1.74958C13 1.79886 13.0097 1.84766 13.0286 1.89319C13.0475 1.93872 13.0751 1.98008 13.11 2.01491L13.6725 2.57743C13.7429 2.6478 13.8383 2.68733 13.9378 2.68733C14.0374 2.68733 14.1328 2.6478 14.2032 2.57743C14.2735 2.50706 14.3131 2.41162 14.3131 2.31211C14.3131 2.21259 14.2735 2.11715 14.2032 2.04678L13.6406 1.48426C13.6058 1.44939 13.5644 1.42173 13.5189 1.40285C13.4734 1.38398 13.4246 1.37427 13.3753 1.37427C13.326 1.37427 13.2772 1.38398 13.2317 1.40285C13.1862 1.42173 13.1448 1.44939 13.11 1.48426Z" fill="white"/>
<path d="M14.774 3.1471C14.7392 3.18193 14.7115 3.22329 14.6926 3.26881C14.6738 3.31434 14.6641 3.36314 14.6641 3.41242C14.6641 3.46171 14.6738 3.51051 14.6926 3.55603C14.7115 3.60156 14.7392 3.64292 14.774 3.67775L15.3366 4.24027C15.4069 4.31064 15.5024 4.35018 15.6019 4.35018C15.7014 4.35018 15.7969 4.31064 15.8672 4.24027C15.9376 4.16991 15.9771 4.07447 15.9771 3.97495C15.9771 3.87543 15.9376 3.77999 15.8672 3.70962L15.3047 3.1471C15.2699 3.11223 15.2285 3.08457 15.183 3.0657C15.1375 3.04682 15.0887 3.03711 15.0394 3.03711C14.9901 3.03711 14.9413 3.04682 14.8958 3.0657C14.8502 3.08457 14.8089 3.11223 14.774 3.1471Z" fill="white"/>
<path d="M23.6259 11.4695C23.5555 11.3992 23.4601 11.3596 23.3606 11.3596C23.2611 11.3596 23.1656 11.3992 23.0953 11.4695C23.0249 11.5399 22.9854 11.6353 22.9854 11.7348C22.9854 11.8344 23.0249 11.9298 23.0953 12.0002C23.0604 12.035 23.0328 12.0764 23.0139 12.1219C22.9951 12.1674 22.9854 12.2162 22.9854 12.2655C22.9854 12.3148 22.9951 12.3636 23.0139 12.4091C23.0328 12.4546 23.0604 12.496 23.0953 12.5308C23.1301 12.5657 23.1715 12.5933 23.217 12.6122C23.2625 12.631 23.3113 12.6407 23.3606 12.6407C23.4099 12.6407 23.4586 12.631 23.5042 12.6122C23.5497 12.5933 23.5911 12.5657 23.6259 12.5308L23.8903 12.2664C23.9252 12.2316 23.9528 12.1902 23.9717 12.1447C23.9906 12.0992 24.0003 12.0504 24.0003 12.0011C24.0003 11.9518 23.9906 11.903 23.9717 11.8575C23.9528 11.812 23.9252 11.7706 23.8903 11.7358L23.6259 11.4695Z" fill="white"/>
<path d="M13.6646 21.4322L13.1021 21.9947C13.0317 22.0651 12.9922 22.1605 12.9922 22.26C12.9922 22.3595 13.0317 22.455 13.1021 22.5253C13.1725 22.5957 13.2679 22.6352 13.3674 22.6352C13.4669 22.6352 13.5624 22.5957 13.6327 22.5253L14.1953 21.9628C14.2656 21.8924 14.3052 21.797 14.3052 21.6975C14.3052 21.598 14.2656 21.5025 14.1953 21.4322C14.1249 21.3618 14.0295 21.3223 13.9299 21.3223C13.8304 21.3223 13.735 21.3618 13.6646 21.4322Z" fill="white"/>
<path d="M18.6558 16.4385L18.0933 17.001C18.0585 17.0359 18.0308 17.0772 18.012 17.1228C17.9931 17.1683 17.9834 17.2171 17.9834 17.2664C17.9834 17.3156 17.9931 17.3644 18.012 17.41C18.0308 17.4555 18.0585 17.4968 18.0933 17.5317C18.1281 17.5665 18.1695 17.5942 18.215 17.613C18.2606 17.6319 18.3093 17.6416 18.3586 17.6416C18.4079 17.6416 18.4567 17.6319 18.5022 17.613C18.5477 17.5942 18.5891 17.5665 18.624 17.5317L19.1865 16.9692C19.2213 16.9343 19.249 16.893 19.2678 16.8474C19.2867 16.8019 19.2964 16.7531 19.2964 16.7038C19.2964 16.6546 19.2867 16.6058 19.2678 16.5602C19.249 16.5147 19.2213 16.4734 19.1865 16.4385C19.1516 16.4037 19.1103 16.376 19.0647 16.3572C19.0192 16.3383 18.9704 16.3286 18.9212 16.3286C18.8719 16.3286 18.8231 16.3383 18.7776 16.3572C18.732 16.376 18.6907 16.4037 18.6558 16.4385Z" fill="white"/>
<path d="M20.3209 14.773L19.7583 15.3355C19.688 15.4059 19.6484 15.5013 19.6484 15.6008C19.6484 15.7004 19.688 15.7958 19.7583 15.8662C19.8287 15.9365 19.9241 15.9761 20.0237 15.9761C20.1232 15.9761 20.2186 15.9365 20.289 15.8662L20.8515 15.3036C20.9219 15.2333 20.9614 15.1378 20.9614 15.0383C20.9614 14.9388 20.9219 14.8434 20.8515 14.773C20.7811 14.7026 20.6857 14.6631 20.5862 14.6631C20.4867 14.6631 20.3912 14.7026 20.3209 14.773Z" fill="white"/>
<path d="M21.9849 13.1101L21.4224 13.6727C21.352 13.743 21.3125 13.8385 21.3125 13.938C21.3125 14.0375 21.352 14.133 21.4224 14.2033C21.4928 14.2737 21.5882 14.3132 21.6877 14.3132C21.7872 14.3132 21.8827 14.2737 21.9531 14.2033L22.5156 13.6408C22.5859 13.5704 22.6255 13.475 22.6255 13.3755C22.6255 13.276 22.5859 13.1805 22.5156 13.1101C22.4452 13.0398 22.3498 13.0002 22.2503 13.0002C22.1507 13.0002 22.0553 13.0398 21.9849 13.1101Z" fill="white"/>
<path d="M15.3277 19.7669L14.7652 20.3294C14.7303 20.3643 14.7027 20.4056 14.6838 20.4511C14.665 20.4967 14.6553 20.5455 14.6553 20.5947C14.6553 20.644 14.665 20.6928 14.6838 20.7383C14.7027 20.7839 14.7303 20.8252 14.7652 20.8601C14.8 20.8949 14.8414 20.9225 14.8869 20.9414C14.9324 20.9603 14.9812 20.97 15.0305 20.97C15.0798 20.97 15.1286 20.9603 15.1741 20.9414C15.2196 20.9225 15.261 20.8949 15.2958 20.8601L15.8584 20.2975C15.8932 20.2627 15.9208 20.2213 15.9397 20.1758C15.9585 20.1303 15.9683 20.0815 15.9683 20.0322C15.9683 19.9829 15.9585 19.9341 15.9397 19.8886C15.9208 19.8431 15.8932 19.8017 15.8584 19.7669C15.8235 19.732 15.7821 19.7044 15.7366 19.6855C15.6911 19.6667 15.6423 19.657 15.593 19.657C15.5438 19.657 15.495 19.6667 15.4494 19.6855C15.4039 19.7044 15.3625 19.732 15.3277 19.7669Z" fill="white"/>
<path d="M16.9927 18.1016L16.4302 18.6641C16.3954 18.699 16.3677 18.7403 16.3489 18.7859C16.33 18.8314 16.3203 18.8802 16.3203 18.9295C16.3203 18.9787 16.33 19.0275 16.3489 19.073C16.3677 19.1186 16.3954 19.1599 16.4302 19.1948C16.4651 19.2296 16.5064 19.2573 16.5519 19.2761C16.5975 19.295 16.6463 19.3047 16.6955 19.3047C16.7448 19.3047 16.7936 19.295 16.8391 19.2761C16.8847 19.2573 16.926 19.2296 16.9609 19.1948L17.5234 18.6323C17.5938 18.5619 17.6333 18.4664 17.6333 18.3669C17.6333 18.2674 17.5938 18.172 17.5234 18.1016C17.453 18.0312 17.3576 17.9917 17.2581 17.9917C17.1585 17.9917 17.0631 18.0312 16.9927 18.1016Z" fill="white"/>
<path d="M12.2642 3.1093C12.194 3.03945 12.0989 3.00024 11.9998 3.00024C11.9008 3.00024 11.8057 3.03945 11.7354 3.1093L3.11003 11.7347C3.04018 11.805 3.00098 11.9 3.00098 11.9991C3.00098 12.0982 3.04018 12.1932 3.11003 12.2635C3.11003 12.2635 11.7242 20.8889 11.7354 20.8889C11.8057 20.9587 11.9008 20.9979 11.9998 20.9979C12.0989 20.9979 12.194 20.9587 12.2642 20.8889L20.8896 12.2635C20.9595 12.1932 20.9987 12.0982 20.9987 11.9991C20.9987 11.9 20.9595 11.805 20.8896 11.7347L12.2642 3.1093ZM16.1663 10.7315L10.2316 16.5781C10.1615 16.6468 10.0673 16.6853 9.96911 16.6853C9.87094 16.6853 9.7767 16.6468 9.70659 16.5781L7.45649 14.3655C7.24513 14.1531 7.12679 13.8655 7.12749 13.5659C7.1282 13.2663 7.24789 12.9792 7.46024 12.7679C7.67259 12.5565 7.9602 12.4382 8.2598 12.4389C8.55941 12.4396 8.84646 12.5593 9.05781 12.7716L9.96723 13.6698L14.565 9.13959C14.7256 8.98172 14.9293 8.87488 15.1505 8.8325C15.3717 8.79013 15.6005 8.81412 15.8081 8.90145C15.9776 8.97325 16.127 9.08555 16.243 9.22849C16.359 9.37144 16.4381 9.54067 16.4735 9.72134C16.5088 9.902 16.4993 10.0886 16.4457 10.2647C16.3922 10.4408 16.2962 10.6011 16.1663 10.7315Z" fill="#9B2C60"/>
</svg>
