<svg width="68" height="68" viewBox="0 0 68 68" fill="none" xmlns="http://www.w3.org/2000/svg">
<g clip-path="url(#clip0_17_77)">
<path d="M52.2001 54.3411C63.6835 42.557 63.6835 23.4513 52.2001 11.6672C40.7167 -0.116841 22.0984 -0.116841 10.615 11.6672C-0.868465 23.4513 -0.868465 42.557 10.615 54.3411C22.0984 66.1251 40.7167 66.1251 52.2001 54.3411Z" fill="#FFD6E6"/>
<path d="M41.4425 55.3285C42.9778 52.8761 44.6127 51.3209 44.6327 51.3209C44.7922 51.1813 45.0314 51.1813 45.171 51.3408C45.3106 51.5003 45.3106 51.7396 45.1511 51.8792L45.1311 51.8991L45.0713 51.939C45.0314 51.9788 44.9517 52.0586 44.8719 52.1383C44.6925 52.3178 44.4532 52.577 44.1741 52.9159C43.5959 53.5938 42.8183 54.5509 42.0806 55.7472C40.5852 58.1198 39.2095 61.3698 39.5883 64.839V64.8589C39.5883 64.8789 39.6082 64.9188 39.6082 64.9586C39.6282 65.0384 39.688 65.158 39.7677 65.2378C39.8276 65.2976 39.8874 65.3574 40.007 65.3773C40.1067 65.4172 40.2662 65.4371 40.4855 65.3973C40.9242 65.3175 41.6419 65.0184 42.6588 64.2608C42.9379 64.0614 43.1772 63.8421 43.4164 63.6228C44.7922 62.3467 45.7293 60.6918 46.5667 58.7379C47.4041 56.784 48.1219 54.511 49.0191 52.0586C49.9362 49.6062 49.4976 47.1737 48.7998 45.3195C48.3611 44.183 47.8427 43.2658 47.4639 42.6876C47.2246 43.3655 46.8458 44.0035 46.3872 44.6416C45.7492 45.5188 44.9317 46.3762 44.0345 47.2734C42.26 49.0878 40.1864 51.0816 38.5914 53.7733C37.8337 55.0493 37.5147 56.3254 37.435 57.5615C37.3552 58.7778 37.5347 59.9541 37.8337 60.971C38.0929 61.928 38.4518 62.7455 38.7708 63.3636C38.8306 60.2532 40.1067 57.4419 41.4425 55.3285Z" fill="white"/>
<path d="M50.2553 48.2904C50.0958 46.3962 49.4378 44.7214 48.8197 43.5251C48.2017 42.3288 47.6234 41.5911 47.6035 41.5911C47.5038 41.4715 47.3642 41.4316 47.2247 41.4516C47.0851 41.4914 46.9655 41.6111 46.9455 41.7506C46.806 42.588 46.4072 43.3856 45.8091 44.203C44.9118 45.4392 43.576 46.6953 42.1404 48.1508C40.7248 49.6262 39.2095 51.301 37.9733 53.3946C37.1359 54.8301 36.7571 56.2856 36.6973 57.6414C36.5976 59.695 37.1559 61.5294 37.7341 62.8852C38.093 63.7226 38.4519 64.3606 38.6911 64.7195C38.7509 64.7594 38.7908 64.7793 38.8506 64.8192C38.8107 64.3207 38.7908 63.8422 38.7908 63.3637C38.4718 62.7456 38.1129 61.9281 37.8537 60.9711C37.5746 59.9542 37.3951 58.7779 37.4549 57.5617C37.5347 56.3454 37.8736 55.0494 38.6114 53.7734C40.2064 51.0817 42.28 49.068 44.0545 47.2735C44.9517 46.3763 45.7692 45.519 46.4072 44.6417C46.8658 44.0236 47.2446 43.3656 47.4839 42.6877C47.8627 43.2659 48.3811 44.1831 48.8197 45.3196C49.5176 47.1738 49.9562 49.6063 49.0391 52.0587C48.1418 54.5111 47.4241 56.7841 46.5867 58.738C45.7493 60.692 44.7922 62.3468 43.4364 63.6229C43.1972 63.8422 42.938 64.0615 42.6788 64.2609C41.6619 65.0185 40.9441 65.3176 40.5055 65.3974C40.2862 65.4373 40.1267 65.4173 40.027 65.3774C39.9273 65.3376 39.8475 65.2977 39.7877 65.2379C39.708 65.1581 39.6681 65.0385 39.6282 64.9587C39.6083 64.9189 39.6083 64.879 39.6083 64.859V64.8391C39.6282 64.9787 39.5485 65.1182 39.4488 65.1781C39.9672 65.4771 40.5055 65.7762 41.0638 66.0553C41.1036 66.0553 41.1236 66.0354 41.1635 66.0354C41.7018 65.856 42.3398 65.4971 43.1573 64.8989C43.4564 64.6796 43.7156 64.4603 43.9947 64.2011C45.4701 62.8253 46.487 61.0708 47.3244 59.057C48.1817 57.0433 48.8995 54.7703 49.7967 52.3378C50.2354 50.9222 50.355 49.5465 50.2553 48.2904Z" fill="#9B2C60"/>
<path d="M39.4088 65.1581C39.5285 65.0784 39.5883 64.9587 39.5684 64.8192C39.1895 61.3499 40.5653 58.1199 42.0606 55.7273C42.7983 54.531 43.5759 53.574 44.1541 52.8961C44.4532 52.5571 44.6925 52.298 44.852 52.1185C44.9317 52.0388 45.0115 51.959 45.0514 51.9191L45.1112 51.8793L45.1311 51.8593C45.2906 51.7197 45.2906 51.4805 45.1511 51.321C45.0115 51.1615 44.7722 51.1615 44.6127 51.301C44.5928 51.321 42.9579 52.8562 41.4226 55.3086C40.0867 57.4221 38.8306 60.2334 38.7509 63.3437C38.7309 63.8223 38.7509 64.3008 38.8107 64.7992C39.0101 64.9189 39.2095 65.0385 39.4088 65.1581Z" fill="#9B2C60"/>
<path d="M28.742 58.5785C28.0641 58.8776 27.3064 59.0969 26.4092 59.2165C24.8939 59.4159 23.0197 59.8745 21.0857 59.7947C20.986 59.8346 20.9062 59.8545 20.8065 59.8944C19.1915 60.5125 17.7361 61.1306 16.3803 61.4496C15.7622 61.5892 15.164 61.6689 14.5858 61.629C14.845 62.0079 15.2039 62.4864 15.6824 63.0048C16.3005 63.6627 17.0781 64.3606 18.0152 64.8989C18.9523 65.4372 20.0688 65.836 21.3249 65.9158C23.7574 66.0553 25.9307 66.2946 27.8846 66.2547C29.8386 66.2348 31.5333 65.9357 33.0486 65.0584C33.6069 64.7394 34.0057 64.4403 34.2649 64.2011C34.5839 63.9219 34.7035 63.6827 34.7633 63.5232C34.8032 63.3637 34.7833 63.2839 34.7633 63.2042C34.7434 63.1444 34.7035 63.1045 34.6636 63.0447C34.6038 62.9649 34.5241 62.925 34.5241 62.925C32.0118 61.5094 29.1208 61.4496 26.788 61.7686C24.4552 62.0876 22.7007 62.8054 22.5212 62.8852H22.5013C22.3019 62.9649 22.0826 62.8852 22.0028 62.6858C21.9231 62.4864 22.0028 62.2671 22.2022 62.1873C22.2222 62.1873 23.9767 61.4097 26.4491 61.0508C28.4429 60.7518 30.8953 60.6919 33.248 61.5094C32.7495 61.0309 32.271 60.5723 31.8324 60.0938C31.7726 60.034 31.7327 59.9742 31.6729 59.9144C31.2941 59.6352 30.8953 59.376 30.4367 59.1567C29.9183 58.9374 29.3601 58.7181 28.742 58.5785Z" fill="white"/>
<path d="M34.4642 61.6491C34.2848 61.4098 34.0455 61.1307 33.7664 60.8316C33.3277 60.373 32.7894 59.8546 32.1514 59.3761C32.2112 59.4559 32.2909 59.5157 32.3507 59.5954C33.0087 60.2933 33.7065 60.9712 34.4642 61.6491Z" fill="#9B2C60"/>
<path d="M28.7419 58.5787C29.3401 58.7182 29.9183 58.9375 30.4168 59.1967C30.8554 59.4161 31.2741 59.6753 31.6529 59.9544C31.1545 59.3961 30.676 58.8379 30.2572 58.2995C30.0778 58.2198 29.8984 58.16 29.699 58.0802C29.3999 58.2596 29.0809 58.4192 28.7419 58.5787Z" fill="#9B2C60"/>
<path d="M34.863 62.9452C34.7633 63.005 34.6237 63.005 34.524 62.9452C34.524 62.9452 34.6038 62.985 34.6636 63.0648C34.7035 63.1047 34.7433 63.1645 34.7633 63.2243C34.8032 63.3041 34.8231 63.4037 34.7633 63.5433C34.7234 63.7028 34.5838 63.9221 34.2648 64.2212C34.0056 64.4605 33.6069 64.7595 33.0486 65.0786C31.5333 65.9558 29.8385 66.235 27.8846 66.2748C25.9506 66.2948 23.7574 66.0755 21.3249 65.9359C20.0688 65.8561 18.9722 65.4773 18.0152 64.9191C17.0781 64.3807 16.2805 63.6829 15.6824 63.0249C15.2039 62.5065 14.825 62.0081 14.5858 61.6492C15.164 61.6891 15.7621 61.6093 16.3802 61.4697C17.736 61.1507 19.1915 60.5326 20.8065 59.9146C20.9062 59.8747 20.986 59.8547 21.0857 59.8149C20.5872 59.7949 20.0688 59.7351 19.5703 59.6354C19.5504 59.6354 19.5305 59.6354 19.5105 59.6155C19.3311 59.6952 19.1516 59.755 18.9722 59.8149C17.9753 60.2136 17.0382 60.5526 16.2008 60.732C15.3634 60.9314 14.6057 60.9713 13.9079 60.7918C13.7683 60.752 13.6088 60.8118 13.5291 60.9314C13.4294 61.051 13.4294 61.2105 13.4892 61.3501C13.5091 61.37 14.0475 62.3869 15.1241 63.5433C15.7621 64.2412 16.6195 64.9789 17.6363 65.577C18.6731 66.1752 19.8894 66.6138 21.285 66.6936C23.6976 66.8331 25.8908 67.0724 27.8846 67.0325C29.8984 67.0126 31.7327 66.7135 33.4075 65.7365C34.0056 65.3976 34.4443 65.0786 34.7633 64.7795C35.0025 64.5402 35.2019 64.3209 35.3216 64.1016C35.4412 63.9022 35.501 63.6829 35.5209 63.5034C35.3016 63.3041 35.0823 63.1246 34.863 62.9452Z" fill="#9B2C60"/>
<path d="M26.4491 61.0708C23.9967 61.4496 22.2222 62.2073 22.2022 62.2073C22.0029 62.287 21.9231 62.5064 22.0029 62.7057C22.0826 62.9051 22.3019 62.9849 22.5013 62.9051H22.5212C22.7007 62.8254 24.4553 62.1076 26.788 61.7886C29.1208 61.4696 32.0118 61.5294 34.5241 62.945C34.6437 63.0048 34.7633 63.0048 34.863 62.945C34.2848 62.4864 33.7465 62.0079 33.248 61.5294C30.8953 60.7119 28.423 60.7717 26.4491 61.0708Z" fill="#9B2C60"/>
<path d="M39.4089 65.1582C39.2095 65.0385 39.0101 64.9189 38.8307 64.8192C38.7709 64.7793 38.731 64.7594 38.6712 64.7195C37.0961 63.7425 35.7004 62.7257 34.4842 61.649C33.7265 60.9911 33.0287 60.2932 32.3906 59.6153C32.3308 59.5356 32.2511 59.4758 32.1913 59.396C31.5931 58.738 31.0548 58.0801 30.5763 57.4221C30.3968 57.5816 30.1974 57.7411 29.998 57.9006C30.0977 58.0402 30.1974 58.1598 30.2971 58.2994C30.7358 58.8577 31.1943 59.4159 31.6928 59.9543C31.7526 60.0141 31.7925 60.0739 31.8523 60.1337C32.2909 60.6122 32.7695 61.0908 33.2679 61.5493C33.7863 62.0279 34.3246 62.4864 34.8829 62.9649C35.1022 63.1444 35.3415 63.3238 35.5608 63.5033C37.7141 65.1382 40.3061 66.6735 43.3965 67.9694C43.5959 68.0492 43.8152 67.9694 43.895 67.7701C43.9748 67.5707 43.895 67.3514 43.6956 67.2716C42.7585 66.8728 41.8812 66.4741 41.0438 66.0354C40.4656 65.7364 39.9273 65.4572 39.4089 65.1582Z" fill="#9B2C60"/>
<path d="M49.079 31.4027C49.8366 31.6619 50.5743 32.0407 51.1924 32.5193C51.2522 32.5591 51.2921 32.599 51.332 32.6588C51.5114 32.8383 51.5912 33.0975 51.6111 33.3168C51.6311 33.556 51.5912 33.7754 51.5114 33.9947C51.3719 34.4333 51.0927 34.872 50.7937 35.2907C50.7538 35.3305 50.7338 35.3704 50.694 35.4103C50.7338 35.4103 50.7737 35.4302 50.8136 35.4302C50.9532 35.4502 51.0927 35.4901 51.2124 35.5299C51.2124 35.51 51.2323 35.51 51.2323 35.4901C51.3519 35.3704 51.4915 35.191 51.651 34.9916C51.97 34.5729 52.3289 34.0146 52.4485 33.5162C52.5283 33.1772 52.5283 32.8781 52.3887 32.599C52.1893 32.2202 51.97 31.9012 51.7308 31.642C51.5114 31.4027 51.2921 31.2033 51.0728 31.0239C50.8535 30.8444 50.6541 30.665 50.4746 30.4856C50.3351 30.346 50.2354 30.1865 50.1556 30.007C49.9563 29.5086 49.6173 28.7111 49.1787 28.2325C49.0192 28.0531 48.8397 27.9135 48.6403 27.8338C48.2615 27.6743 47.7032 27.5945 47.145 27.5746C46.5867 27.5546 46.0284 27.5746 45.5898 27.5746C45.2508 27.5746 44.8321 27.5347 44.3935 27.5148C43.9548 27.4948 43.5162 27.5148 43.1573 27.5945C42.9181 27.6543 42.7187 27.7341 42.599 27.8338C42.5592 27.8537 42.5392 27.8936 42.4994 27.9135C42.2601 28.1328 42.0806 28.4917 41.981 28.7908C42.1205 28.731 42.2601 28.6712 42.3997 28.6114C42.7984 28.4519 43.2969 28.2924 43.8751 28.3322C44.2539 28.3522 44.6726 28.4519 45.1113 28.6911C45.6695 28.9702 46.1082 29.3092 46.4072 29.6681C46.9855 30.2862 47.2048 30.8843 47.2447 31.0638C47.8827 31.0837 48.4808 31.2033 49.079 31.4027Z" fill="white"/>
<path d="M42.1206 34.852C42.1804 34.4732 42.2801 34.1143 42.4595 33.7953C42.6788 33.3566 42.9978 32.9778 43.3368 32.6389C44.254 31.8015 45.4702 31.2831 46.5269 31.1236C46.507 31.0837 46.487 31.0438 46.4671 30.984C46.3674 30.7647 46.188 30.4855 45.9088 30.1865C45.6496 29.9073 45.2907 29.6082 44.8122 29.3889C44.2739 29.1297 43.8552 29.0899 43.4564 29.1297C43.0776 29.1895 42.6988 29.3291 42.3399 29.4886C42.1006 29.5883 41.8414 29.688 41.5623 29.7478C41.1237 29.8276 40.5255 30.1266 40.1068 30.5254C39.7878 30.8045 39.5884 31.1435 39.5685 31.3828C39.5485 31.5223 39.5685 31.7416 39.6482 32.0008C39.708 32.26 39.8077 32.5392 39.9074 32.7984C40.0869 33.2171 40.2663 33.5959 40.366 33.7753C40.6252 33.895 40.9043 34.0345 41.1635 34.194C41.5025 34.3934 41.8215 34.6127 42.1206 34.852Z" fill="white"/>
<path d="M50.8734 33.3767C50.8734 33.277 50.8335 33.2172 50.7936 33.1773L50.7338 33.1374C50.1755 32.7187 49.4976 32.3598 48.8197 32.1405C48.1418 31.9012 47.4639 31.8016 46.9057 31.8414C45.9686 31.9212 44.6925 32.3997 43.8352 33.1972C43.5361 33.4764 43.2769 33.7954 43.1174 34.1343C42.9379 34.4733 42.8383 34.8521 42.8383 35.2708C42.8383 35.3306 42.8383 35.3904 42.8383 35.4503C42.9978 35.5898 43.1373 35.7493 43.2769 35.8889C43.4364 36.0683 43.576 36.2278 43.6956 36.3873L43.3965 36.6067L43.6956 36.3873C43.895 36.6665 44.1143 37.1051 44.3336 37.6036C44.4134 37.803 44.4931 38.0223 44.5729 38.2416C44.9517 37.7232 45.3904 37.1849 45.9087 36.7064C46.4471 36.2079 47.0652 35.7693 47.7431 35.5699C48.5007 35.3506 49.2185 35.2907 49.8565 35.3306C50.1556 34.9717 50.4547 34.553 50.654 34.1543C50.8136 33.8353 50.8933 33.5561 50.8734 33.3767Z" fill="white"/>
<path d="M43.3367 32.6189C42.9778 32.9579 42.6788 33.3367 42.4594 33.7753C42.2999 34.0943 42.1803 34.4532 42.1205 34.832C42.3797 35.0314 42.6189 35.2308 42.8383 35.4302C42.8383 35.3704 42.8383 35.3106 42.8383 35.2508C42.8383 34.832 42.938 34.4532 43.1174 34.1143C43.2968 33.7753 43.5361 33.4563 43.8352 33.1772C44.6925 32.3796 45.9686 31.9011 46.9057 31.8214C47.4639 31.7815 48.1418 31.8812 48.8197 32.1204C49.4976 32.3597 50.1755 32.6987 50.7338 33.1174L50.7936 33.1572C50.8534 33.2171 50.8734 33.2769 50.8734 33.3566C50.8933 33.5161 50.8136 33.8152 50.6341 34.1342C50.4347 34.513 50.1357 34.9517 49.8366 35.3106C50.1556 35.3305 50.4547 35.3704 50.7139 35.4103C50.7537 35.3704 50.7737 35.3305 50.8136 35.2906C51.1126 34.8919 51.3718 34.4532 51.5313 33.9946C51.6111 33.7753 51.651 33.5361 51.631 33.3167C51.6111 33.0775 51.5313 32.8382 51.3519 32.6588C51.312 32.6189 51.2522 32.5591 51.2123 32.5192C50.5743 32.0407 49.8366 31.6619 49.0989 31.4027C48.5007 31.2033 47.9225 31.0837 47.3443 31.0637C47.3443 31.0837 47.3642 31.1036 47.3642 31.1036C47.4241 31.303 47.3044 31.5024 47.105 31.5622C46.9057 31.622 46.7063 31.5024 46.6465 31.303V31.283L46.6265 31.2232C46.6066 31.1834 46.6066 31.1634 46.5866 31.1036C45.4701 31.2631 44.2539 31.7815 43.3367 32.6189Z" fill="#9B2C60"/>
<path d="M44.0148 39.039C43.8951 38.5605 43.6957 38.0222 43.4964 37.5636C43.3369 37.2446 43.1973 36.9655 43.0777 36.806C42.978 36.6664 42.8583 36.5268 42.7188 36.3873C42.2403 35.8689 41.5225 35.2907 40.7848 34.852C40.5056 34.6925 40.2265 34.5529 39.9673 34.4333C39.9474 34.4333 39.9474 34.4134 39.9274 34.4134C39.6682 34.3137 39.429 34.214 39.1897 34.1542C39.2695 34.3934 39.3492 34.6925 39.4489 35.0315C39.6882 35.829 40.0072 36.7661 40.2664 37.3443C40.4458 37.763 40.7449 38.1817 41.1237 38.5805C41.7817 39.2982 42.6789 39.8964 43.3568 40.0758C43.3767 40.0758 43.3767 40.0758 43.3967 40.0758C43.4964 39.8964 43.7157 39.5176 44.0148 39.039Z" fill="white"/>
<path d="M43.3566 40.5145C43.2968 40.4148 43.2968 40.2952 43.3566 40.1756C43.3566 40.1756 43.3766 40.1357 43.4164 40.0759C43.3965 40.0759 43.3965 40.0759 43.3766 40.0759C42.6987 39.8964 41.8014 39.3182 41.1435 38.5805C40.7846 38.1817 40.4855 37.763 40.2861 37.3443C40.0269 36.7661 39.7079 35.8091 39.4687 35.0315C39.369 34.7125 39.2693 34.3935 39.2095 34.1542C39.4487 34.214 39.688 34.2938 39.9472 34.4134C39.8874 34.3735 39.8276 34.3337 39.7877 34.2738C39.7877 34.2738 39.6481 34.0147 39.4687 33.6358C39.4487 33.576 39.4089 33.5162 39.3889 33.4564C39.1497 33.3966 38.9303 33.3567 38.711 33.3567C38.5914 33.3567 38.4718 33.3966 38.392 33.4963C38.3123 33.5959 38.2923 33.7156 38.3322 33.8352C38.3322 33.8352 38.5116 34.4932 38.7708 35.2907C39.03 36.0882 39.349 37.0453 39.6282 37.6833C39.8475 38.2017 40.2064 38.6802 40.6052 39.1388C41.1036 39.6771 41.7018 40.1357 42.2999 40.4746C42.599 40.6341 42.898 40.7737 43.1971 40.8535C43.2968 40.8734 43.3965 40.8933 43.4962 40.9133C43.5361 40.8734 43.576 40.8136 43.6158 40.7737C43.4763 40.694 43.3965 40.6142 43.3566 40.5145Z" fill="#9B2C60"/>
<path d="M42.7385 36.3873C42.8781 36.5468 42.9977 36.6863 43.0974 36.806C43.1971 36.9655 43.3566 37.2247 43.5161 37.5636C43.7155 38.0023 43.9348 38.5605 44.0345 39.039C44.0544 39.0191 44.0544 38.9992 44.0744 38.9792C44.2139 38.74 44.3934 38.5007 44.5728 38.2415C44.4931 38.0222 44.4133 37.8029 44.3336 37.6035C44.1142 37.105 43.8949 36.6664 43.6955 36.3873L43.3965 36.6066L43.6955 36.3873C43.5759 36.2278 43.4363 36.0483 43.2768 35.8888C43.1373 35.7492 42.9977 35.5897 42.8382 35.4502C42.6189 35.2508 42.3796 35.0514 42.1204 34.852C41.8213 34.6327 41.5023 34.4134 41.1634 34.214C40.9042 34.0545 40.645 33.9149 40.3658 33.7953C40.3858 33.8352 40.4057 33.875 40.4057 33.895V33.9149C40.5054 34.0944 40.4456 34.3336 40.2662 34.4333C40.1665 34.4931 40.0468 34.4931 39.9471 34.4533C40.2263 34.5729 40.5054 34.7124 40.7646 34.872C41.5422 35.2907 42.26 35.8689 42.7385 36.3873Z" fill="#9B2C60"/>
<path d="M39.7678 34.2538C39.8077 34.3136 39.8475 34.3734 39.9273 34.3933C39.9472 34.3933 39.9472 34.4133 39.9672 34.4133C40.0669 34.4532 40.1865 34.4532 40.2862 34.3933C40.4656 34.2937 40.5254 34.0743 40.4257 33.875V33.855C40.4257 33.8351 40.4058 33.8151 40.3859 33.7553C40.2862 33.5759 40.1067 33.1971 39.9273 32.7784C39.8276 32.5192 39.7279 32.24 39.6681 31.9808C39.6083 31.7216 39.5883 31.5023 39.5883 31.3627C39.6083 31.1035 39.8077 30.7845 40.1267 30.5054C40.5454 30.1066 41.1435 29.8076 41.5822 29.7278C41.8613 29.668 42.1205 29.5683 42.3598 29.4686C42.7386 29.3091 43.0975 29.1496 43.4763 29.1097C43.8551 29.0499 44.2738 29.0898 44.8321 29.3689C45.3106 29.6082 45.6695 29.8873 45.9287 30.1664C46.2078 30.4655 46.3673 30.7447 46.487 30.964C46.5069 31.0038 46.5268 31.0637 46.5468 31.1035C46.5667 31.1434 46.5867 31.1833 46.5867 31.2232L46.6066 31.283V31.3029C46.6664 31.5023 46.8658 31.6219 47.0652 31.5621C47.2646 31.5023 47.3842 31.3029 47.3244 31.1035C47.3244 31.1035 47.3244 31.0836 47.3044 31.0637C47.2446 30.9042 47.0452 30.306 46.467 29.668C46.148 29.329 45.7293 28.9901 45.171 28.691C44.7324 28.4717 44.3137 28.372 43.9349 28.3321C43.3567 28.2922 42.8781 28.4518 42.4594 28.6113C42.2999 28.6711 42.1604 28.7309 42.0407 28.7907V28.8106C41.941 29.1297 41.9012 29.3888 41.9012 29.3888C41.8812 29.5882 41.7018 29.7477 41.4825 29.7278C41.2831 29.7079 41.1236 29.5284 41.1435 29.3091C41.1435 29.3091 41.1635 29.1895 41.1834 29.0499C40.6451 29.2094 40.0669 29.5284 39.6083 29.9471C39.2294 30.306 38.9104 30.7446 38.8307 31.283C38.7908 31.602 38.8506 31.921 38.9304 32.24C39.0301 32.6587 39.2095 33.0575 39.3491 33.4164C39.369 33.4762 39.4089 33.536 39.4288 33.5958C39.6282 33.9946 39.7678 34.2538 39.7678 34.2538Z" fill="#9B2C60"/>
<path d="M41.1435 29.349C41.1236 29.5484 41.2631 29.7477 41.4824 29.7677C41.6818 29.7876 41.8812 29.648 41.9011 29.4287C41.9011 29.4088 41.941 29.1496 42.0407 28.8505V28.8306C42.1404 28.5315 42.3198 28.1726 42.5591 27.9533C42.599 27.9334 42.6189 27.8935 42.6588 27.8735C42.7984 27.7739 42.9778 27.6941 43.2171 27.6343C43.576 27.5545 44.0146 27.5545 44.4532 27.5545C44.8919 27.5745 45.3106 27.6143 45.6495 27.6143C46.0882 27.6143 46.6464 27.5944 47.2047 27.6143C47.763 27.6343 48.3213 27.714 48.7001 27.8735C48.8795 27.9533 49.059 28.0929 49.2384 28.2723C49.697 28.7508 50.0359 29.5484 50.2154 30.0468C50.2951 30.2462 50.4148 30.3858 50.5344 30.5253C50.7138 30.7247 50.9332 30.8842 51.1325 31.0637C51.3519 31.2431 51.5712 31.4425 51.7905 31.6817C52.0298 31.9409 52.269 32.24 52.4485 32.6388C52.588 32.898 52.588 33.217 52.5083 33.5559C52.3887 34.0743 52.0298 34.6326 51.7108 35.0314C51.5513 35.2308 51.3917 35.4102 51.2921 35.5298C51.2721 35.5498 51.2721 35.5498 51.2721 35.5697C51.631 35.6694 51.8902 35.7691 52.0497 35.8289C52.2292 35.6096 52.4684 35.3105 52.6877 34.9915C52.927 34.6127 53.1463 34.194 53.2659 33.7354C53.3856 33.2768 53.3856 32.7783 53.1662 32.3198C52.9469 31.8612 52.6678 31.4824 52.3887 31.1833C52.1295 30.9042 51.8902 30.6848 51.6509 30.5054C51.4316 30.3259 51.2322 30.1664 51.1126 30.0269C51.0129 29.9272 50.973 29.8474 50.9332 29.7677C50.7338 29.2493 50.3948 28.3919 49.7967 27.7539C49.5774 27.5147 49.3182 27.3153 49.0191 27.1757C48.4808 26.9564 47.8627 26.8766 47.2645 26.8567C46.6664 26.8368 46.0882 26.8567 45.6894 26.8567C45.3106 26.8567 44.6925 26.7969 44.0545 26.7969C43.7355 26.7969 43.4165 26.8168 43.1174 26.8966C42.8183 26.9564 42.5192 27.076 42.26 27.2555C42.2002 27.2953 42.1603 27.3352 42.1005 27.395C41.7018 27.7738 41.4824 28.2524 41.3628 28.6511C41.303 28.8306 41.2631 28.9701 41.2432 29.0898C41.1435 29.2293 41.1435 29.329 41.1435 29.349Z" fill="#9B2C60"/>
<path d="M45.1312 40.1757C45.9288 40.2355 46.9257 40.2355 47.7431 39.9962C48.1419 39.8965 48.6603 39.5177 49.1787 39.0392C50.1158 38.1819 50.9931 36.9856 51.4317 36.3675C51.2523 36.3077 50.9931 36.2279 50.7139 36.1681C49.9962 36.0285 49.0192 35.9687 47.9625 36.2678C47.4441 36.4073 46.9257 36.7662 46.4272 37.2248C45.4502 38.122 44.6726 39.3781 44.2938 40.056C44.4932 40.1159 44.7923 40.1557 45.1312 40.1757Z" fill="white"/>
<path d="M51.2522 35.5498C51.1325 35.5099 50.993 35.49 50.8534 35.4501C50.8135 35.4501 50.7737 35.4302 50.7338 35.4302C50.4746 35.3903 50.1755 35.3504 49.8565 35.3305C49.2384 35.2906 48.5206 35.3504 47.743 35.5698C47.0651 35.7691 46.4471 36.1878 45.9087 36.7062C45.4103 37.1848 44.9517 37.7231 44.5729 38.2415C44.3934 38.5007 44.214 38.7599 44.0744 38.9792C44.0545 38.9991 44.0545 39.0191 44.0345 39.039C43.7355 39.5175 43.5161 39.9163 43.4164 40.0957C43.3766 40.1555 43.3566 40.1954 43.3566 40.1954C43.2968 40.2951 43.2968 40.4147 43.3566 40.5344C43.3965 40.6341 43.4962 40.6939 43.5959 40.7338C43.7355 40.5742 43.875 40.4147 43.9947 40.2353C44.1143 40.0758 44.3535 40.0359 44.513 40.1755C44.6726 40.2951 44.7124 40.5344 44.5729 40.6939C44.533 40.7537 44.4931 40.8135 44.4333 40.8534C44.6127 40.8733 44.8321 40.8933 45.0514 40.9132C45.8888 40.973 46.9654 40.973 47.9225 40.7138C48.5406 40.5344 49.1188 40.1157 49.6771 39.5973C51.0727 38.3013 52.289 36.4271 52.289 36.4072C52.3488 36.3075 52.3687 36.2078 52.3288 36.1081C52.3089 36.0084 52.2291 35.9087 52.1295 35.8688C52.1295 35.8688 52.0696 35.8489 51.9899 35.809C51.8703 35.7492 51.6111 35.6495 51.2522 35.5498ZM44.2738 40.0758C44.6526 39.4178 45.4501 38.1418 46.4072 37.2446C46.9056 36.786 47.424 36.4271 47.9424 36.2875C48.9992 35.9685 49.9761 36.0483 50.6939 36.1878C50.993 36.2477 51.2322 36.3274 51.4117 36.3872C50.993 36.9854 50.0958 38.2016 49.1587 39.0589C48.6403 39.5375 48.1219 39.8963 47.7231 40.016C46.9056 40.2552 45.9087 40.2552 45.1112 40.1954C44.7922 40.1555 44.4931 40.1157 44.2738 40.0758Z" fill="#9B2C60"/>
<path d="M40.067 45.0604C40.7648 44.522 41.4826 43.9239 42.1605 43.2859C42.958 42.5282 43.7356 41.7307 44.4334 40.8733C44.4733 40.8135 44.5132 40.7537 44.573 40.7138C44.6926 40.5543 44.6727 40.3151 44.5132 40.1954C44.3537 40.0758 44.1144 40.0957 43.9948 40.2552C43.8552 40.4148 43.7356 40.5743 43.596 40.7537C43.5562 40.7936 43.5163 40.8534 43.4764 40.8933C42.9181 41.5512 42.3001 42.1693 41.682 42.7475C41.1436 43.246 40.5854 43.7245 40.0271 44.1631C40.0271 44.203 40.047 44.2628 40.047 44.3027C40.067 44.542 40.067 44.8012 40.067 45.0604Z" fill="#9B2C60"/>
<path d="M16.5796 16.0304C16.6793 16.2099 16.779 16.3893 16.8787 16.5688C17.0182 16.2697 17.1977 15.9706 17.4569 15.7114C17.1777 15.3924 16.9185 15.0933 16.6793 14.8342C16.2207 14.3357 15.8219 13.9569 15.5428 13.6977C15.5229 13.6977 15.5229 13.6777 15.5029 13.6777C15.5029 13.7176 15.483 13.7575 15.483 13.7974C15.4631 13.8771 15.4631 13.9569 15.4431 14.0366C15.483 14.1164 15.5229 14.1762 15.5627 14.2559C15.8219 14.7145 16.1808 15.3525 16.5796 16.0304Z" fill="white"/>
<path d="M16.5598 17.5457C16.5996 17.3663 16.6395 17.1868 16.6993 17.0074C16.2208 16.17 15.7224 15.2927 15.3635 14.6547C15.3635 14.7942 15.3435 14.9338 15.3635 15.0933C15.3834 16.0503 15.6027 17.2267 16.4601 18.3233C16.4601 18.1239 16.5 17.8448 16.5598 17.5457Z" fill="white"/>
<path d="M17.7361 15.452C17.8956 15.3324 18.0551 15.2327 18.2345 15.153C17.7959 14.8339 17.3373 14.5548 16.9186 14.3355C16.799 14.2757 16.6594 14.1959 16.5398 14.1361C16.6594 14.2757 16.799 14.4152 16.9386 14.5548C17.1978 14.8339 17.457 15.133 17.7361 15.452Z" fill="white"/>
<path d="M16.4401 18.3631C16.4401 18.3432 16.4401 18.3233 16.4401 18.3033C15.6027 17.2067 15.3634 16.0304 15.3435 15.0733C15.3435 14.9138 15.3435 14.7742 15.3435 14.6347C15.0045 14.0365 14.7852 13.6378 14.7852 13.6378C14.7254 13.5381 14.7653 13.4384 14.865 13.3786C14.9647 13.3188 15.0644 13.3586 15.1242 13.4583C15.1242 13.4583 15.2438 13.6577 15.4232 13.9967C15.4432 13.9169 15.4432 13.8371 15.4631 13.7574C15.4631 13.7175 15.4831 13.6776 15.4831 13.6378C15.503 13.6378 15.503 13.6577 15.5229 13.6577C15.4033 13.5381 15.3036 13.4384 15.2239 13.3786C15.1441 13.3188 15.1042 13.2789 15.1042 13.2789C15.0245 13.2191 15.0245 13.0994 15.0843 13.0197C15.1441 12.9399 15.2637 12.9399 15.3435 12.9997C15.3435 12.9997 15.822 13.4184 16.5198 14.1163C16.6395 14.1761 16.7591 14.2359 16.8987 14.3157C17.3174 14.535 17.756 14.8141 18.2146 15.1331C18.3542 15.0733 18.4738 15.0135 18.6134 14.9736C18.7729 14.9138 18.9124 14.8739 19.0719 14.8341C18.394 14.2957 17.6763 13.877 17.0582 13.558C16.0812 13.0396 15.3435 12.8004 15.3235 12.7804C15.1242 12.7206 14.9048 12.8203 14.845 13.0197C14.845 13.0396 14.546 13.897 14.5659 15.0733C14.5858 16.1101 14.845 17.446 15.7622 18.6622C16.0014 18.5625 16.2208 18.4628 16.4401 18.3631Z" fill="#9B2C60"/>
<path d="M17.457 15.6913C17.4769 15.6714 17.4968 15.6514 17.5168 15.6315L17.5566 15.5916C17.6165 15.5318 17.6763 15.4919 17.7361 15.4321C17.457 15.1131 17.1978 14.814 16.9585 14.5548C16.8189 14.3953 16.6794 14.2557 16.5597 14.1361C15.8619 13.4183 15.3834 13.0196 15.3834 13.0196C15.3036 12.9598 15.184 12.9598 15.1242 13.0395C15.0644 13.1193 15.0644 13.2389 15.1441 13.2987C15.1441 13.2987 15.184 13.3386 15.2637 13.3984C15.3435 13.4582 15.4432 13.5579 15.5628 13.6775C15.842 13.9367 16.2407 14.3355 16.6993 14.814C16.9186 15.0931 17.1778 15.3723 17.457 15.6913Z" fill="#9B2C60"/>
<path d="M16.8786 16.5489C16.7789 16.3694 16.6792 16.19 16.5795 16.0106C16.2007 15.3327 15.8418 14.6946 15.5627 14.2361C15.5228 14.1563 15.4829 14.0766 15.443 14.0167C15.2636 13.6778 15.144 13.4784 15.144 13.4784C15.0842 13.3787 14.9845 13.3588 14.8848 13.3986C14.7851 13.4585 14.7651 13.5582 14.805 13.6578C14.805 13.6578 15.0243 14.0566 15.3633 14.6548C15.7222 15.2928 16.2206 16.1701 16.6992 17.0075C16.759 16.8679 16.7988 16.7084 16.8786 16.5489Z" fill="#9B2C60"/>
<path d="M28.0441 14.914C28.0441 14.914 28.0641 14.894 28.1039 14.8741C28.1637 14.4952 28.2036 14.1563 28.2236 13.8173C28.2634 13.4186 28.2834 13.0597 28.3232 12.7606C28.1438 12.8603 27.9644 12.96 27.745 13.0597C27.6852 13.0996 27.6055 13.0996 27.5257 13.0996C27.5058 13.299 27.4858 13.5183 27.4659 13.7575C27.446 14.0167 27.4061 14.2759 27.3662 14.5551C27.5855 14.6747 27.7849 14.8143 27.9644 14.9538C28.0042 14.9538 28.0242 14.9339 28.0441 14.914Z" fill="#9B2C60"/>
<path d="M27.5656 6.75916C27.2864 8.07509 27.1269 9.92934 27.6653 12.2023C27.745 12.0229 27.8647 11.7836 27.9643 11.5045C28.2435 10.8066 28.5426 9.82965 28.6622 8.79286C28.7021 8.33428 28.6821 7.63645 28.6422 6.95855C28.6024 6.28065 28.5226 5.62268 28.4827 5.20398C28.4827 5.1641 28.4827 5.12423 28.4628 5.08435C28.3432 5.0046 28.2435 4.94478 28.1637 4.90491C28.1239 4.96472 28.1039 5.04447 28.064 5.14417C27.9045 5.52299 27.7251 6.06133 27.5656 6.75916Z" fill="white"/>
<path d="M27.7251 5.00452C27.5257 5.08427 27.2864 5.22384 27.0472 5.44316C26.6085 5.86186 26.1699 6.5597 26.0503 7.83575C25.9506 8.93235 26.1699 9.82957 26.4889 10.5473C26.7082 11.0259 26.9674 11.4246 27.1868 11.7237C26.5487 8.45383 27.2665 6.06124 27.7251 5.00452Z" fill="white"/>
<path d="M29.0212 8.83266C28.8816 10.1087 28.4828 11.2651 28.1638 12.0028C28.4031 11.8433 28.6025 11.6838 28.7819 11.5243C29.3202 11.0259 29.5994 10.4676 29.7589 9.82957C29.9184 9.19154 29.9184 8.43389 29.8785 7.57655C29.8187 6.65939 29.4598 6.0413 29.0411 5.60266C28.9813 5.54285 28.9215 5.48303 28.8617 5.42322C28.8816 5.66248 28.9215 5.96155 28.9414 6.28056C29.0411 7.13791 29.1009 8.15476 29.0212 8.83266Z" fill="white"/>
<path d="M28.3232 12.7803C28.702 12.5609 29.0211 12.3217 29.3002 12.0625C29.9582 11.4643 30.317 10.7466 30.4965 9.98891C30.6759 9.23126 30.6759 8.41379 30.6361 7.51657C30.5762 6.40003 30.0977 5.6025 29.5993 5.06417C28.9812 4.40621 28.3432 4.14701 28.3033 4.12707C28.2435 4.10714 28.1836 4.0872 28.1438 4.10714C28.1039 4.10714 27.2864 4.16695 26.5288 4.88473C25.9506 5.42306 25.4122 6.32028 25.2926 7.75583C25.173 8.992 25.4322 10.0288 25.7911 10.8463C26.1499 11.6637 26.6285 12.2619 26.9475 12.6208C27.1867 12.88 27.3462 13.0195 27.3662 13.0195C27.426 13.0594 27.4858 13.0793 27.5456 13.0993C27.6254 13.1192 27.6852 13.0993 27.7649 13.0594C27.9643 12.9797 28.1438 12.88 28.3232 12.7803ZM27.5656 12.9198C27.4858 12.8999 27.426 12.86 27.4061 12.7803C27.3064 12.4214 27.2266 12.0824 27.1668 11.7435C26.9275 11.4444 26.6683 11.0456 26.469 10.5671C26.1499 9.84935 25.9306 8.95213 26.0303 7.85552C26.1499 6.57948 26.5886 5.88164 27.0272 5.46294C27.2665 5.24362 27.5057 5.10405 27.7051 5.02429C27.8646 4.62553 28.0042 4.42615 28.0042 4.40621C28.064 4.32646 28.1637 4.28658 28.2634 4.34639C28.3432 4.40621 28.383 4.5059 28.3232 4.60559L28.3033 4.62553C28.2833 4.64547 28.2634 4.68534 28.2435 4.72522C28.2235 4.7651 28.1836 4.82491 28.1637 4.90467C28.2435 4.94454 28.3432 5.00436 28.4628 5.08411C28.4428 4.88473 28.4229 4.7651 28.4229 4.74516C28.403 4.64547 28.4827 4.54578 28.5824 4.52584C28.6821 4.5059 28.7818 4.58565 28.8017 4.68534C28.8017 4.68534 28.8416 4.96448 28.8815 5.38318C28.9413 5.443 29.0011 5.50281 29.0609 5.56263C29.4597 6.00127 29.8385 6.61935 29.8983 7.53651C29.9382 8.39386 29.9382 9.13157 29.7787 9.78953C29.6192 10.4276 29.3401 10.9858 28.8017 11.4843C28.6223 11.6438 28.4229 11.8033 28.1836 11.9628C27.9643 12.4812 27.7649 12.8002 27.7649 12.8002C27.7251 12.8999 27.6453 12.9398 27.5656 12.9198Z" fill="#9B2C60"/>
<path d="M27.7651 12.8201C27.7651 12.8201 27.9445 12.5011 28.1838 11.9827C28.5028 11.245 28.9215 10.1085 29.0411 8.81255C29.1009 8.13465 29.0411 7.1178 28.9813 6.26046C28.9614 5.94144 28.9215 5.64237 28.9016 5.40311C28.8617 4.98441 28.8218 4.70527 28.8218 4.70527C28.8019 4.60558 28.7221 4.52583 28.6025 4.54577C28.5028 4.56571 28.423 4.64546 28.443 4.76509C28.443 4.76509 28.4629 4.88472 28.4829 5.10404C28.4829 5.14392 28.4829 5.18379 28.5028 5.22367C28.5427 5.64237 28.6224 6.30033 28.6623 6.97823C28.7022 7.65613 28.7221 8.33403 28.6822 8.81255C28.5826 9.86928 28.2635 10.8263 27.9844 11.5242C27.8648 11.8033 27.7651 12.0425 27.6853 12.222C27.1669 9.94903 27.3065 8.09477 27.5856 6.77885C27.7451 6.08101 27.9445 5.52274 28.0841 5.16385C28.124 5.0841 28.1639 5.00435 28.1838 4.92459C28.2237 4.84484 28.2436 4.78503 28.2635 4.74515C28.2835 4.70527 28.3034 4.6654 28.3234 4.64546L28.3433 4.62552C28.4031 4.54577 28.3632 4.42614 28.2835 4.36632C28.2037 4.30651 28.0841 4.34639 28.0243 4.42614C28.0243 4.42614 27.8847 4.64546 27.7252 5.04422C27.2866 6.10095 26.5489 8.49354 27.1869 11.7833C27.2467 12.1223 27.3264 12.4612 27.4261 12.8201C27.4461 12.8999 27.5059 12.9398 27.5856 12.9597C27.6455 12.9398 27.7252 12.8999 27.7651 12.8201Z" fill="#9B2C60"/>
<path d="M15.9416 6.26064C15.4232 5.54286 14.8849 4.24688 14.4662 3.13033C14.3266 2.77145 14.207 2.4325 14.1073 2.13342C14.1073 2.15336 14.1073 2.1733 14.1073 2.21318C13.9877 3.15027 14.0475 4.38644 14.7055 5.60268C15.1441 6.42014 15.5827 7.07811 16.0613 7.57656C16.5597 8.11489 17.098 8.49372 17.756 8.73298C18.1149 8.87255 18.5137 8.97224 18.9523 9.03205C18.3143 8.63329 17.5167 8.03514 16.7591 7.21767C16.46 6.93854 16.1809 6.59959 15.9416 6.26064Z" fill="white"/>
<path d="M16.2406 6.0414C16.4799 6.38035 16.7391 6.69936 16.9983 6.97849C17.7759 7.8159 18.6332 8.43399 19.2513 8.81281C18.5934 8.0751 17.5964 6.8788 16.6195 5.50307C16.0612 4.72547 15.2238 3.42949 14.6057 2.45251C14.6655 2.63196 14.7453 2.8114 14.8051 3.01079C15.2437 4.08745 15.7821 5.38344 16.2406 6.0414Z" fill="white"/>
<path d="M19.8496 8.21467C19.8496 7.99535 19.8297 7.75609 19.8097 7.49689C19.6901 6.32054 19.2913 4.74542 18.1548 3.11048C17.8757 2.71172 17.6165 2.39271 17.3573 2.11357C16.48 1.15654 15.7224 0.857462 15.184 0.777709C15.0046 0.75777 14.8451 0.737832 14.7255 0.75777C15.0245 1.01697 15.4233 1.37586 15.9018 1.89425C17.0782 3.15036 18.6134 5.18406 19.8496 8.21467Z" fill="white"/>
<path d="M15.1441 2.57211C15.7422 3.48927 16.46 4.58587 16.9385 5.26377C17.9354 6.67939 18.9722 7.91556 19.6302 8.63333C18.394 5.50303 16.8189 3.38958 15.6425 2.13347C15.1042 1.55526 14.6656 1.1565 14.3665 0.917236C14.3466 0.957113 14.3466 0.996989 14.3266 1.0568C14.3067 1.09668 14.3067 1.1565 14.2867 1.21631C14.3067 1.27612 14.3466 1.33594 14.3864 1.39575C14.5858 1.69483 14.845 2.11353 15.1441 2.57211Z" fill="white"/>
<path d="M19.8495 9.73C19.7897 9.67018 19.7698 9.59043 19.7698 9.51068C19.5704 9.41098 19.2713 9.25148 18.9324 9.03216C18.4937 8.97234 18.095 8.87265 17.7361 8.73308C17.0781 8.49382 16.5398 8.115 16.0413 7.57667C15.5628 7.07821 15.1441 6.42025 14.6855 5.60278C14.0276 4.36661 13.9678 3.15038 14.0874 2.21328C14.0874 2.19334 14.0874 2.1734 14.0874 2.13353C13.8681 1.51544 13.7285 1.0768 13.7285 1.0768V1.05686C13.7285 1.03692 13.7285 1.01699 13.7285 0.997048C13.7285 0.97711 13.7484 0.957172 13.7484 0.937233C13.7883 0.877419 13.7883 0.877419 13.8082 0.85748C13.8282 0.85748 13.8282 0.837542 13.8481 0.837542H13.8681C13.888 0.837542 13.9079 0.837542 13.9279 0.837542C13.9478 0.837542 13.9678 0.85748 13.9877 0.85748C14.0076 0.877419 14.0276 0.877419 14.0276 0.897357C14.0276 0.897357 14.1073 1.01699 14.227 1.21637C14.2469 1.15655 14.2668 1.11668 14.2668 1.05686C14.2868 0.997048 14.3067 0.957172 14.3067 0.917295C14.1472 0.777727 14.0276 0.697975 13.9877 0.678036L13.9678 0.658098C13.888 0.598283 13.8681 0.478654 13.9279 0.398901C13.9877 0.319148 14.1073 0.29921 14.1871 0.359024C14.1871 0.359024 14.3865 0.498592 14.6855 0.757789C14.8251 0.757789 14.9647 0.757789 15.1441 0.777727C15.6824 0.85748 16.4202 1.17649 17.3174 2.11359C17.5766 2.39272 17.8358 2.71174 18.1149 3.1105C19.2514 4.74544 19.6502 6.32056 19.7698 7.49691C19.7897 7.75611 19.8097 7.99537 19.8097 8.21469C19.9293 8.51376 20.0489 8.81284 20.1685 9.13185C20.2483 9.15179 20.3281 9.19166 20.3879 9.25148C20.3879 9.25148 20.4277 9.29136 20.4876 9.39105C20.5274 9.07203 20.6072 8.3742 20.5075 7.4371C20.3879 6.16105 19.9492 4.44636 18.7131 2.6918C18.4339 2.2731 18.1348 1.91421 17.8557 1.61513C16.8189 0.498592 15.8419 0.0998274 15.1242 0.0200744C14.4064 -0.0596786 13.9279 0.159642 13.888 0.17958C13.8082 0.219457 13.7484 0.279271 13.7086 0.359024C13.6886 0.378963 13.3895 1.0768 13.2699 2.11359C13.1503 3.15038 13.2101 4.54605 13.9678 5.96167C14.4263 6.81901 14.8849 7.51685 15.4232 8.09506C15.9815 8.71315 16.6395 9.15179 17.3971 9.45086C18.1149 9.73 18.9324 9.84963 19.8894 9.86956C19.8495 9.80975 19.8296 9.78981 19.8097 9.74994L19.8495 9.73Z" fill="#9B2C60"/>
<path d="M19.8495 8.21454C18.6133 5.18393 17.0781 3.15023 15.9217 1.89412C15.4432 1.37573 15.0444 1.01684 14.7453 0.75764C14.4263 0.498443 14.2469 0.358876 14.2469 0.358876C14.1671 0.299061 14.0475 0.318999 13.9877 0.398752C13.9278 0.478505 13.9478 0.598134 14.0275 0.657949L14.0475 0.677887C14.0874 0.717764 14.207 0.797517 14.3665 0.917146C14.6456 1.15641 15.1042 1.55517 15.6425 2.13338C16.8189 3.38949 18.394 5.50294 19.6302 8.63324C18.9722 7.89553 17.9354 6.6793 16.9385 5.26368C16.46 4.56584 15.7422 3.48918 15.1441 2.57202C14.845 2.11344 14.5858 1.69474 14.3864 1.39566C14.3465 1.33585 14.3067 1.27603 14.2867 1.23616C14.1671 1.03678 14.0874 0.917146 14.0874 0.917146C14.0874 0.937084 14.1073 0.937085 14.1073 0.957023C14.1073 0.957023 14.187 1.19628 14.3067 1.55517C14.3864 1.79443 14.5061 2.0935 14.6257 2.43245C15.2637 3.40943 16.1011 4.68547 16.6394 5.483C17.6164 6.85874 18.6133 8.05503 19.2713 8.79275C19.5504 8.95226 19.7697 9.09182 19.9293 9.17158C20.009 9.11176 20.1087 9.09182 20.2084 9.11176C20.0888 8.81269 19.9691 8.49368 19.8495 8.21454Z" fill="#9B2C60"/>
<path d="M19.2712 8.79272C18.6531 8.41389 17.7958 7.79581 17.0182 6.9584C16.759 6.67927 16.4998 6.36025 16.2605 6.0213C15.782 5.38328 15.2437 4.08729 14.825 2.99069C14.7452 2.79131 14.6854 2.61186 14.6256 2.43242C14.486 2.11341 14.3863 1.7944 14.3066 1.55514C14.1869 1.17631 14.1072 0.956991 14.1072 0.956991C14.1072 0.937053 14.0872 0.917114 14.0872 0.917114C14.0673 0.897176 14.0673 0.877238 14.0474 0.877238C14.0274 0.8573 14.0075 0.8573 13.9876 0.8573C13.9676 0.8573 13.9477 0.8573 13.9277 0.8573H13.9078C13.8879 0.8573 13.8879 0.877238 13.8679 0.877238C13.7882 0.877238 13.7882 0.877238 13.7682 0.897176C13.7483 0.917114 13.7483 0.937053 13.7483 0.956991C13.7483 0.976929 13.7483 0.996867 13.7483 1.01681V1.03674C13.7483 1.03674 13.8879 1.47539 14.1072 2.09347C14.2069 2.39254 14.3265 2.73149 14.4661 3.09038C14.8848 4.20692 15.4231 5.48297 15.9415 6.22069C16.1808 6.57957 16.4599 6.89859 16.739 7.19766C17.4967 8.01513 18.2942 8.61327 18.9322 9.01204C19.2712 9.23136 19.5703 9.39087 19.7696 9.49056C19.7696 9.37093 19.8095 9.2513 19.9092 9.17155L19.9291 9.15161C19.7696 9.09179 19.5304 8.97216 19.2712 8.79272Z" fill="#9B2C60"/>
<path d="M20.5473 9.39106C20.4875 9.31131 20.4476 9.2515 20.4476 9.2515C20.3878 9.17174 20.3081 9.13187 20.2283 9.13187C20.1286 9.11193 20.0289 9.13187 19.9492 9.19168L19.9292 9.21162C19.8295 9.29137 19.7897 9.411 19.7897 9.53063C19.7897 9.61038 19.8295 9.6702 19.8694 9.74995L19.8894 9.76989C19.9093 9.78983 19.9292 9.8297 19.9691 9.88952C20.328 10.3481 21.5243 11.9631 22.8203 14.4554C23.0595 14.4155 23.3387 14.3756 23.6178 14.3357C22.2221 11.6241 20.9062 9.86958 20.5473 9.39106Z" fill="#9B2C60"/>
<path d="M35.2418 25.5009C35.3415 25.5408 35.4213 25.6206 35.4612 25.7203C35.501 25.8199 35.501 25.9396 35.4412 26.0193C35.4412 26.0193 34.9627 26.9963 34.225 28.2125C33.8462 28.8306 33.4075 29.5085 32.929 30.1465C33.3477 29.8475 33.7664 29.5085 34.1452 29.1297C34.6836 28.6113 35.202 28.073 35.6406 27.5944C36.0992 27.096 36.478 26.6773 36.817 26.3583L36.8967 26.2985L36.9366 26.2785C37.4151 25.8399 37.7541 25.0822 37.8538 24.2448C37.9534 23.4074 37.8338 22.4504 37.4749 21.6529C37.4351 21.5731 37.3553 21.4136 37.2157 21.2342C37.0762 21.0547 36.9167 20.8354 36.7372 20.636C36.3783 20.1974 35.9397 19.7388 35.6207 19.36C35.4412 19.1805 35.3017 19.021 35.202 18.9014C35.1023 18.7818 35.0425 18.7219 35.0425 18.7219C35.0026 18.6621 34.9627 18.6023 34.9428 18.5425V18.5026C34.9428 18.4827 34.9228 18.4229 34.9029 18.363C34.863 18.2434 34.8032 18.0839 34.7235 17.8646C34.544 17.4658 34.2449 16.9275 33.7864 16.429C33.4275 16.0303 32.9689 15.6714 32.3508 15.3923C31.2941 14.8938 30.357 14.9337 29.6392 15.0932C29.1009 15.2128 28.7021 15.4122 28.5426 15.4919C29.1607 16.1898 29.6392 17.0272 29.9383 17.5655C29.9782 17.6253 30.018 17.7051 30.0978 17.7649C30.3171 18.0042 30.7358 18.2634 31.2343 18.6023C31.7327 18.9213 32.3109 19.34 32.8692 19.9182C33.0885 20.1575 33.3278 20.4366 33.5272 20.7556C33.886 21.3139 34.0256 21.9121 34.0256 22.4903C34.0256 23.0685 33.886 23.6068 33.7265 24.0853C33.587 24.504 33.4075 24.843 33.248 25.1221C33.2879 25.1221 33.3278 25.1221 33.3677 25.1221C34.4842 25.2417 35.202 25.481 35.2418 25.5009Z" fill="white"/>
<path d="M19.2713 27.9732C19.2314 27.8137 19.1716 27.6742 19.1317 27.4947C18.8326 26.4978 18.4937 25.4012 18.2145 24.3644C17.9354 23.3276 17.7161 22.3108 17.6762 21.4534C17.6363 20.8752 17.6762 20.3568 17.8357 19.8982C17.9354 19.639 18.075 19.3998 18.2743 19.2203C18.2943 19.2004 18.3342 19.1605 18.3541 19.1406C18.7529 18.8216 19.2513 18.7019 19.7298 18.7418C20.2084 18.7618 20.6869 18.9013 21.1654 19.0808C22.1224 19.4197 23.0994 19.8982 23.8969 20.0179C24.0166 20.0378 24.1362 20.0378 24.2758 20.0577C24.1561 19.8584 23.9767 19.6191 23.7175 19.34C23.2589 18.8415 22.5611 18.3032 21.5442 17.9443C20.7068 17.6452 20.0688 17.6652 19.5105 17.8247C18.9523 17.9642 18.4538 18.2633 17.9553 18.5424C17.6164 18.7219 17.2974 18.9213 16.9385 19.021C16.44 19.1805 15.8419 19.5394 15.3434 19.9979C15.0444 20.2771 14.7652 20.5961 14.5858 20.9151C14.4063 21.2341 14.3066 21.5531 14.3066 21.8123C14.3066 22.0516 14.3864 22.3506 14.506 22.6896C14.6456 23.0285 14.825 23.3874 15.0045 23.7064C15.3434 24.3046 15.7223 24.823 15.8419 24.9825C16.3005 25.3015 16.779 25.6803 17.2376 26.0592C17.9753 26.6972 18.6931 27.3751 19.2713 27.9732Z" fill="white"/>
<path d="M26.7681 19.8785C27.8448 19.7788 28.9813 19.7389 30.0579 20.1177C30.2772 20.1975 30.4567 20.3171 30.6162 20.4766C30.8156 20.6959 30.9352 20.9551 30.995 21.2542C31.0548 21.5333 31.0548 21.8324 31.0349 22.1514C30.9751 22.7695 30.7956 23.4275 30.5763 24.0655C30.3769 24.6038 30.1576 25.1222 29.9782 25.521C30.8355 25.2618 31.653 25.1621 32.3708 25.1422C32.3907 25.1222 32.4106 25.1023 32.4106 25.0624C32.5103 24.9029 32.6299 24.7035 32.7496 24.4244C33.0088 23.906 33.248 23.2081 33.248 22.5103C33.248 22.0517 33.1483 21.6131 32.8692 21.1944C32.6898 20.9152 32.4904 20.676 32.291 20.4567C31.8125 19.9383 31.2941 19.5794 30.7956 19.2604C30.3171 18.9414 29.8585 18.6822 29.5196 18.3033C29.4199 18.2036 29.3401 18.084 29.2604 17.9444C28.9613 17.3862 28.4828 16.5488 27.9046 15.9307C27.5258 15.512 27.0871 15.193 26.6485 15.0733C26.0503 14.8939 25.2528 14.8939 24.4553 14.9736C23.6577 15.0534 22.8802 15.173 22.282 15.2528C21.8234 15.3126 21.2253 15.3325 20.6271 15.3924C20.009 15.4522 19.391 15.5319 18.8925 15.7114C18.5536 15.831 18.2744 15.9706 18.075 16.1699L18.0551 16.1899C17.6563 16.5687 17.437 17.1669 17.3174 17.6852C17.2775 17.8248 17.2576 17.9444 17.2576 18.0641C17.5168 17.9245 17.7959 17.765 18.1149 17.5856C18.6532 17.2865 19.2913 17.0073 20.0689 16.9475C20.5873 16.9077 21.1655 16.9874 21.8035 17.2067C22.9599 17.6055 23.7574 18.2435 24.2758 18.8018C24.7743 19.3401 25.0335 19.8386 25.1332 20.018C25.6316 19.9981 26.1899 19.9383 26.7681 19.8785Z" fill="white"/>
<path d="M28.7817 28.5915C29.2802 28.7111 29.7587 28.8507 30.1974 29.0102C30.9749 29.3093 31.613 29.6482 32.0715 30.027C32.57 29.389 33.0485 28.6712 33.4473 28.0332C33.9457 27.2357 34.3246 26.5179 34.5439 26.0793C34.524 26.0793 34.524 26.0793 34.524 26.0793C34.2249 26.0195 33.8062 25.9397 33.2678 25.8998C33.0485 25.8799 32.8093 25.8799 32.5501 25.8799C32.5301 25.8799 32.5301 25.8799 32.5102 25.8799C31.6329 25.8799 30.5762 26.0394 29.4995 26.478C29.4198 26.817 29.1606 27.6344 28.7817 28.5915Z" fill="white"/>
<path d="M29.5594 26.3385C29.5594 26.3585 29.5395 26.4183 29.5195 26.4781C30.5962 26.0395 31.6529 25.8999 32.5302 25.88C32.4704 25.88 32.3906 25.86 32.3308 25.8002C32.1713 25.6806 32.1314 25.4413 32.2511 25.2818V25.2619L32.2909 25.222C32.3109 25.2021 32.3308 25.1622 32.3508 25.1223C31.633 25.1423 30.8155 25.2419 29.9582 25.5011C29.7787 25.9398 29.6192 26.2389 29.5594 26.3385Z" fill="#9B2C60"/>
<path d="M34.5441 26.0791C34.564 26.0791 34.564 26.0791 34.564 26.0791C34.3447 26.4978 33.9459 27.2355 33.4674 28.033C33.0686 28.691 32.5901 29.3888 32.0917 30.0268C32.1116 30.0468 32.1515 30.0667 32.1714 30.1066C32.2911 30.2063 32.4107 30.3259 32.5104 30.4256C32.6499 30.3259 32.8095 30.2462 32.949 30.1465C33.4275 29.5084 33.8662 28.8106 34.245 28.2125C34.9827 26.9962 35.4413 26.0392 35.4612 26.0193C35.5011 25.9196 35.5211 25.8199 35.4812 25.7202C35.4413 25.6205 35.3615 25.5407 35.2619 25.5009C35.2419 25.5009 34.5042 25.2417 33.3677 25.142C33.3278 25.142 33.288 25.142 33.2481 25.142C33.0487 25.5009 32.8892 25.7202 32.8892 25.7202C32.8095 25.8199 32.7098 25.8597 32.5901 25.8797C32.8493 25.8797 33.0886 25.8797 33.3079 25.8996C33.8064 25.9395 34.245 26.0193 34.5441 26.0791Z" fill="#9B2C60"/>
<path d="M28.8416 26.1392L28.8616 26.0794C28.8616 26.0594 28.8616 26.0594 28.8815 26.0395C28.8815 26.0195 28.8815 26.0195 28.9015 25.9996C28.9015 25.9996 28.9214 25.9797 28.9413 25.9198C28.9613 25.86 29.0011 25.8002 29.061 25.7005C29.1606 25.5011 29.2803 25.2419 29.4198 24.9229C29.699 24.2849 30.018 23.4475 30.1974 22.6899C30.3171 22.1914 30.337 21.7129 30.2772 21.3939C30.2373 21.2144 30.1775 21.0749 30.0778 20.9752C30.018 20.9154 29.9382 20.8555 29.8186 20.8157C28.9214 20.4966 27.8846 20.5166 26.8478 20.6163C25.811 20.696 24.7543 20.8555 23.7973 20.7359C23.0595 20.6362 22.3218 20.3172 21.6041 20.0381C20.9062 19.7589 20.2084 19.4997 19.69 19.4798C19.3311 19.4599 19.0719 19.5396 18.8127 19.7191L18.7728 19.7789C18.6731 19.8786 18.5934 19.9982 18.5336 20.1577C18.4738 20.3172 18.4339 20.5365 18.4139 20.7957C18.3741 21.2942 18.4538 21.9322 18.5734 22.65C18.8326 24.0656 19.371 25.7603 19.8495 27.2956C20.1087 28.1529 20.3679 28.8508 20.667 29.4489C20.8265 29.5287 21.1255 29.7081 21.4645 29.9274C21.5243 29.9673 21.5642 29.9873 21.624 30.0271C21.6639 29.9873 21.7037 29.9474 21.7436 29.9075C22.9 28.8308 24.4353 28.3922 25.9506 28.3324C26.6684 28.2925 27.3662 28.3523 28.0441 28.452C28.4827 27.3155 28.7818 26.3585 28.8416 26.1392Z" fill="white"/>
<path d="M21.1454 19.0809C20.6669 18.9014 20.1884 18.7818 19.7099 18.7419C19.2313 18.722 18.7528 18.8217 18.3341 19.1407C18.3142 19.1606 18.2743 19.1806 18.2544 19.2205C18.055 19.3999 17.9154 19.6392 17.8157 19.8984C17.6562 20.3569 17.6164 20.8753 17.6562 21.4535C17.716 22.3308 17.9354 23.3277 18.1946 24.3645C18.4737 25.4013 18.8126 26.4979 19.1117 27.4948C19.1516 27.6543 19.2114 27.8138 19.2513 27.9733C19.5304 28.2525 19.7697 28.5117 19.9691 28.731C20.2881 29.0699 20.5074 29.3092 20.5871 29.4089C20.6071 29.4089 20.6071 29.4288 20.627 29.4288C20.328 28.8307 20.0688 28.1328 19.8096 27.2755C19.351 25.7403 18.8126 24.0455 18.5335 22.6299C18.3939 21.9121 18.3341 21.2741 18.374 20.7756C18.3939 20.5164 18.4338 20.3171 18.4936 20.1376C18.5534 19.9582 18.6332 19.8385 18.7329 19.7588L18.7728 19.7189C19.012 19.5195 19.2912 19.4597 19.6501 19.4797C20.1884 19.4996 20.8663 19.7389 21.5641 20.0379C22.2819 20.3171 23.0196 20.6361 23.7573 20.7358C24.7144 20.8753 25.7711 20.7158 26.8079 20.6161C27.8447 20.5164 28.8815 20.4965 29.7787 20.8155C29.8983 20.8554 29.9581 20.9152 30.0379 20.975C30.1176 21.0747 30.1974 21.1943 30.2373 21.3937C30.2971 21.7127 30.2771 22.1913 30.1575 22.6897C29.998 23.4474 29.679 24.2848 29.3799 24.9228C29.2403 25.2418 29.1008 25.5209 29.021 25.7004C28.9811 25.8001 28.9413 25.8798 28.9014 25.9197C28.8815 25.9795 28.8615 25.9995 28.8615 25.9995C28.8615 26.0194 28.8615 26.0194 28.8416 26.0393C28.8416 26.0593 28.8216 26.0593 28.8216 26.0792L28.8017 26.139C28.7419 26.3583 28.4428 27.3353 28.0042 28.4519C28.2634 28.4917 28.5026 28.5316 28.7618 28.5914C29.1407 27.6145 29.3999 26.797 29.4995 26.458C29.5195 26.3982 29.5394 26.3583 29.5394 26.3185C29.5992 26.2188 29.7388 25.9197 29.9382 25.501C30.1176 25.1022 30.3369 24.5838 30.5363 24.0455C30.7557 23.4274 30.9351 22.7695 30.9949 22.1314C31.0148 21.8124 31.0148 21.5134 30.955 21.2342C30.8952 20.9551 30.7756 20.6759 30.5762 20.4566C30.4366 20.2971 30.2373 20.1775 30.0179 20.0977C28.9413 19.7189 27.8048 19.7588 26.7281 19.8585C26.1499 19.9183 25.5916 19.9781 25.0733 19.998C25.0932 20.0379 25.1131 20.0778 25.1131 20.0778C25.1929 20.2772 25.0932 20.4965 24.9137 20.5763C24.7144 20.656 24.495 20.5563 24.4153 20.3769V20.3569L24.3954 20.2971C24.3754 20.2373 24.3355 20.1576 24.2757 20.0579C24.2757 20.0379 24.2558 20.018 24.2358 19.998C24.0963 19.998 23.9766 19.9781 23.857 19.9582C23.0794 19.8984 22.1025 19.4198 21.1454 19.0809Z" fill="#9B2C60"/>
<path d="M20.1884 30.0469C20.1485 30.027 20.1087 29.9871 20.0887 29.9672C20.0887 29.9672 20.0289 29.9074 19.9093 29.7678C19.7897 29.6482 19.6302 29.4687 19.4308 29.2494C18.5535 28.2924 16.8986 26.6176 15.4032 25.6007C15.3833 25.5808 15.3434 25.5608 15.3235 25.5409C15.2637 25.501 15.2039 25.4611 15.1241 25.4213C14.825 25.2219 14.526 25.0624 14.2468 24.9427C14.2668 25.1421 14.2867 25.3814 14.3266 25.6605C14.4263 26.3982 14.6057 27.3553 14.8848 28.1528C15.0643 28.6911 15.3036 29.1497 15.5827 29.4289C15.7821 29.6482 16.1011 29.9074 16.4998 30.1466C16.8986 30.3859 17.3572 30.6451 17.8556 30.8644C18.075 30.9641 18.2744 31.0438 18.4937 31.1435C19.1516 30.8445 19.8694 30.5853 20.6271 30.346C20.4476 30.2463 20.2881 30.1466 20.2084 30.1068C20.2283 30.0669 20.1884 30.0469 20.1884 30.0469Z" fill="white"/>
<path d="M21.4645 29.9272C21.1255 29.7079 20.8065 29.5284 20.6669 29.4487C20.647 29.4487 20.647 29.4287 20.6271 29.4287C20.5473 29.329 20.328 29.0698 20.009 28.7508C19.8096 28.5315 19.5504 28.2723 19.2912 27.9932C18.713 27.395 17.9952 26.7171 17.2575 26.0791C16.7989 25.6803 16.3403 25.3215 15.8618 25.0024C15.8818 25.0224 15.8818 25.0224 15.8818 25.0423L15.9017 25.0623C16.0213 25.2218 16.0014 25.461 15.8419 25.5807C15.7223 25.6803 15.5627 25.6803 15.4431 25.6205C16.9385 26.6573 18.5734 28.3321 19.4706 29.2692C19.67 29.4885 19.8295 29.668 19.9492 29.7876C20.0688 29.9072 20.1286 29.987 20.1286 29.987C20.1485 30.0269 20.1884 30.0468 20.2283 30.0668C20.2283 30.0668 20.2482 30.0867 20.2881 30.1066C20.3679 30.1465 20.5074 30.2263 20.7068 30.3459C21.0059 30.2661 21.285 30.1664 21.604 30.1066C21.624 30.0867 21.6439 30.0668 21.6638 30.0468C21.5642 29.987 21.5043 29.9471 21.4645 29.9272Z" fill="#9B2C60"/>
<path d="M18.5335 31.1038C18.3141 31.0241 18.0948 30.9244 17.8954 30.8247C17.397 30.6054 16.9384 30.3661 16.5396 30.1069C16.1409 29.8677 15.8219 29.6085 15.6225 29.3891C15.3633 29.11 15.124 28.6514 14.9246 28.1131C14.6455 27.3156 14.4661 26.3585 14.3664 25.6208C14.3265 25.3616 14.3066 25.1024 14.2866 24.903C14.5658 25.0227 14.8648 25.1822 15.1639 25.3815C15.2237 25.4214 15.2835 25.4613 15.3633 25.5012C15.3434 25.4812 15.3234 25.4613 15.3234 25.4414C15.3234 25.4414 15.0842 25.1223 14.7851 24.6638C14.6854 24.5043 14.5658 24.3248 14.4461 24.1254C14.2866 24.0656 14.1271 24.0058 13.9676 23.9659C13.848 23.946 13.7284 23.9659 13.6486 24.0457C13.5489 24.1254 13.509 24.2451 13.509 24.3448C13.509 24.3647 13.5688 25.3417 13.7682 26.518C13.8679 27.0962 14.0274 27.7343 14.2268 28.3324C14.4461 28.9106 14.7053 29.4489 15.0842 29.8677C15.443 30.2664 15.9814 30.6253 16.5995 30.9842C16.9185 31.1636 17.2774 31.3431 17.6362 31.5026C17.9154 31.4029 18.2145 31.2434 18.5335 31.1038Z" fill="#9B2C60"/>
<path d="M14.7452 24.7233C15.0443 25.1819 15.2835 25.5009 15.2835 25.5009C15.3035 25.5208 15.3234 25.5408 15.3234 25.5607C15.3434 25.5806 15.3832 25.6006 15.4032 25.6205C15.5228 25.6803 15.6823 25.6803 15.8019 25.5806C15.9614 25.461 16.0013 25.2217 15.8617 25.0622L15.8418 25.0423C15.8418 25.0423 15.8219 25.0224 15.8219 25.0024C15.7022 24.8429 15.3234 24.3245 14.9845 23.7264C14.805 23.4074 14.6056 23.0485 14.486 22.7095C14.3464 22.3706 14.2866 22.0516 14.2866 21.8322C14.2866 21.5531 14.3863 21.254 14.5658 20.935C14.7452 20.616 15.0243 20.297 15.3234 20.0179C15.8219 19.5593 16.42 19.2004 16.9185 19.0409C17.2774 18.9213 17.6163 18.7418 17.9353 18.5624C18.4338 18.2832 18.9322 17.9842 19.4905 17.8446C20.0488 17.705 20.6868 17.6851 21.5242 17.9642C22.5411 18.3231 23.2389 18.8814 23.6975 19.3599C23.9567 19.639 24.1361 19.8783 24.2557 20.0777C24.2757 20.0976 24.2757 20.1176 24.2956 20.1375C24.3554 20.2372 24.3953 20.3169 24.4152 20.3768L24.4352 20.4366V20.4565C24.5149 20.6559 24.7343 20.7356 24.9336 20.6559C25.133 20.5761 25.2128 20.3568 25.133 20.1574C25.133 20.1574 25.1131 20.1176 25.0931 20.0777C25.0134 19.8982 24.7542 19.3998 24.2358 18.8614C23.7174 18.3032 22.9199 17.6652 21.7635 17.2664C21.1254 17.0471 20.5472 16.9673 20.0288 17.0072C19.2512 17.067 18.6132 17.3461 18.0749 17.6452C17.7559 17.8247 17.4767 17.9842 17.2175 18.1237C17.1777 18.4427 17.1777 18.682 17.1777 18.7019C17.1777 18.9013 17.0182 19.0808 16.7988 19.0808C16.5995 19.0808 16.42 18.9213 16.42 18.7019C16.42 18.7019 16.42 18.6023 16.42 18.4228C16.2007 18.5026 15.9814 18.6222 15.7621 18.7418C15.4231 18.9412 15.0842 19.1805 14.7851 19.4795C14.4262 19.7985 14.1271 20.1774 13.8879 20.5761C13.6486 20.9749 13.509 21.4135 13.509 21.8522C13.509 22.2509 13.6287 22.6697 13.8081 23.0884C13.9676 23.4871 14.167 23.8659 14.3863 24.2248C14.5259 24.3644 14.6455 24.5438 14.7452 24.7233Z" fill="#9B2C60"/>
<path d="M18.6333 14.9934C18.4937 15.0332 18.3542 15.093 18.2345 15.1529C18.0551 15.2326 17.8956 15.3323 17.7361 15.4519C17.6763 15.4918 17.6165 15.5516 17.5566 15.6114L17.5168 15.6513C17.4968 15.6713 17.4769 15.6912 17.4569 15.7111C17.1977 15.9703 17.0183 16.2694 16.8787 16.5685C16.8189 16.728 16.7591 16.8675 16.6993 17.0271C16.6395 17.2065 16.5996 17.4059 16.5597 17.5654C16.4999 17.8645 16.46 18.1237 16.46 18.323C16.46 18.343 16.46 18.3629 16.46 18.3829C16.4401 18.5424 16.46 18.6421 16.46 18.662C16.46 18.8614 16.6395 19.0408 16.8389 19.0408C17.0382 19.0408 17.2177 18.8614 17.2177 18.662C17.2177 18.6421 17.2177 18.4028 17.2576 18.0838C17.2775 17.9642 17.2974 17.8246 17.3174 17.705C17.437 17.1866 17.6563 16.6084 18.0551 16.2096L18.075 16.1896C18.2744 16.0102 18.5535 15.8507 18.8925 15.7311C19.391 15.5516 20.029 15.4719 20.6271 15.4121C21.2452 15.3522 21.8234 15.3323 22.282 15.2725C22.8801 15.1927 23.6577 15.0532 24.4553 14.9934C25.2528 14.9136 26.0503 14.9335 26.6485 15.093C27.0871 15.2127 27.5058 15.5317 27.9046 15.9504C28.4828 16.5884 28.9613 17.4059 29.2604 17.9642C29.3401 18.1037 29.4199 18.2034 29.5196 18.323C29.8585 18.6819 30.3171 18.9611 30.7956 19.2801C31.2741 19.5991 31.8125 19.958 32.291 20.4764C32.4904 20.6957 32.6898 20.9349 32.8692 21.2141C33.1483 21.6328 33.248 22.0714 33.248 22.53C33.248 23.2079 33.0088 23.9057 32.7496 24.4441C32.6299 24.7033 32.4904 24.9226 32.4106 25.0821C32.3907 25.102 32.3707 25.1419 32.3707 25.1619C32.3508 25.2017 32.3309 25.2416 32.3109 25.2615L32.2711 25.3014V25.3214C32.1514 25.4809 32.1913 25.7201 32.3508 25.8398C32.4106 25.8796 32.4704 25.8996 32.5502 25.9195C32.5701 25.9195 32.5701 25.9195 32.5901 25.9195C32.7097 25.9195 32.8094 25.8597 32.8891 25.76C32.8891 25.7401 33.0486 25.5407 33.248 25.1818C33.4075 24.9027 33.587 24.5438 33.7265 24.145C33.8861 23.6665 34.0256 23.1282 34.0256 22.5499C34.0256 21.9717 33.8861 21.3736 33.5272 20.8153C33.3278 20.4963 33.0885 20.2172 32.8692 19.9779C32.3309 19.3798 31.7327 18.981 31.2343 18.662C30.7358 18.343 30.3171 18.0838 30.0978 17.8246C30.038 17.7448 29.9782 17.685 29.9383 17.6252C29.6392 17.0869 29.1806 16.2495 28.5426 15.5516C28.5027 15.5716 28.4629 15.5915 28.4629 15.5915C28.2834 15.7111 28.0641 15.6513 27.9445 15.4719C27.8448 15.3124 27.8647 15.1329 27.9843 14.9934C27.8049 14.8338 27.6055 14.6943 27.3862 14.5946C27.2267 14.5148 27.0472 14.4351 26.8678 14.3753C26.1101 14.1559 25.2329 14.1759 24.3955 14.2556C24.1163 14.2756 23.8571 14.3155 23.5979 14.3354C23.3188 14.3753 23.0596 14.4151 22.8004 14.455C22.5811 14.4949 22.3618 14.5148 22.1823 14.5348C21.644 14.5946 20.7667 14.6145 19.9093 14.7342C19.6302 14.774 19.371 14.8139 19.1118 14.8937C18.9523 14.8937 18.7928 14.9335 18.6333 14.9934Z" fill="#9B2C60"/>
<path d="M27.9843 14.9737C27.8647 15.0933 27.8448 15.2927 27.9444 15.4522C28.0641 15.6317 28.2834 15.6715 28.4628 15.5718C28.4628 15.5718 28.4828 15.5519 28.5426 15.532C28.7021 15.4522 29.1009 15.2528 29.6392 15.1332C30.357 14.9737 31.2941 14.9538 32.3508 15.4323C32.9489 15.7114 33.4075 16.0902 33.7863 16.4691C34.2449 16.9675 34.544 17.5058 34.7234 17.9046C34.8032 18.104 34.863 18.2834 34.9029 18.4031C34.9228 18.4629 34.9428 18.5028 34.9428 18.5426V18.5825C34.9627 18.6623 34.9826 18.7221 35.0425 18.762C35.0425 18.762 35.1023 18.8218 35.202 18.9414C35.3017 19.061 35.4612 19.2006 35.6207 19.4C35.9596 19.7589 36.3783 20.2374 36.7372 20.676C36.9167 20.8953 37.0961 21.0947 37.2157 21.2742C37.3553 21.4536 37.435 21.6131 37.4749 21.6929C37.8338 22.4904 37.9534 23.4474 37.8537 24.2849C37.7541 25.1422 37.435 25.8799 36.9366 26.3185L36.8967 26.3385L36.817 26.3983C36.478 26.7173 36.0992 27.136 35.6406 27.6345C35.182 28.1329 34.6836 28.6713 34.1452 29.1697C33.7465 29.5286 33.3477 29.8875 32.929 30.1866C32.7894 30.2863 32.6499 30.386 32.4904 30.4657C32.5103 30.4856 32.5502 30.5255 32.5701 30.5455C32.7296 30.705 32.8493 30.8844 32.9689 31.0439C33.567 30.6651 34.1253 30.2065 34.6636 29.708C35.2418 29.1697 35.7602 28.6114 36.2188 28.1329C36.6774 27.6345 37.0562 27.2158 37.3553 26.9366L37.4151 26.8768L37.455 26.8369C38.1129 26.2189 38.4718 25.3216 38.5915 24.3447C38.7111 23.3677 38.5715 22.311 38.1528 21.3539C38.0731 21.1745 37.9534 20.995 37.8139 20.7957C37.3752 20.1975 36.6575 19.4 36.159 18.8616C35.9197 18.6025 35.7204 18.4031 35.6207 18.3034C35.5409 17.9644 35.202 16.9276 34.3047 15.9507C33.886 15.4921 33.3477 15.0734 32.6499 14.7344C31.4137 14.1363 30.2373 14.1961 29.4199 14.3755C28.722 14.5351 28.2435 14.7942 28.084 14.8939C28.0641 14.9139 28.0441 14.9139 28.0242 14.9338C28.0242 14.9338 28.0043 14.9538 27.9843 14.9737Z" fill="#9B2C60"/>
<path d="M28.1238 55.8271C27.0472 56.1262 25.8708 56.2059 24.7144 56.166C22.3816 56.0663 20.0887 55.4283 18.5336 54.6308C17.8357 54.2719 17.1977 53.7535 16.5995 53.1155C15.3634 51.7796 14.3665 49.9054 13.8082 47.8119C13.549 46.8349 13.3895 45.8181 13.3496 44.7813C13.3297 44.7414 13.3097 44.7016 13.3097 44.6617C13.0505 43.5053 12.6916 42.5083 12.4125 41.5314C12.3128 41.7906 12.2131 42.0697 12.0935 42.4087C11.6748 43.6648 11.1564 45.4791 10.8175 47.7122C10.5981 49.1677 10.8972 50.683 11.5153 52.0986C12.1334 53.5142 13.0505 54.8501 14.0076 55.8869C14.9048 56.8439 15.822 57.5617 16.5397 57.8608C17.3572 58.2197 18.4937 58.5985 19.7099 58.8577C21.943 59.3362 24.3356 58.7381 26.2895 58.4589C28.0441 58.2197 29.2204 57.5817 30.0579 56.8041C31.1146 55.8071 31.613 54.571 31.8523 53.5143C31.8722 53.3946 31.8922 53.275 31.9121 53.1753C31.6529 53.594 31.3339 53.9529 30.9949 54.2719C30.2174 55.0495 29.2005 55.548 28.1238 55.8271Z" fill="white"/>
<path d="M13.4493 42.4286C13.5091 42.0099 13.5889 41.5912 13.6885 41.1525C14.1272 39.398 14.8051 38.1219 15.7422 37.2646C16.759 36.3275 18.0351 35.8889 19.4906 35.829C20.9461 35.7692 22.6009 36.0683 24.4153 36.5668C25.3923 36.8459 26.1499 37.3244 26.7082 37.9226C27.3662 38.6403 27.745 39.5176 27.9643 40.3949C28.1637 41.2921 28.2036 42.2093 28.1637 43.0267C28.084 44.6816 27.6852 45.9776 27.6852 45.9975C27.6852 46.0175 27.6653 46.0374 27.6653 46.0374C27.3462 47.3932 26.8278 48.4101 26.8278 48.43L26.788 48.4898C26.6285 48.6892 26.469 48.8686 26.3095 49.0282C26.2696 49.1079 26.2496 49.1478 26.2496 49.1677C26.2297 49.2076 26.2098 49.2475 26.1699 49.2674C26.1699 49.2674 26.1499 49.2873 26.1101 49.3272C25.9904 49.4269 25.7512 49.6462 25.3923 49.8656C26.0503 49.9453 26.8079 49.9653 27.4858 49.8456C28.084 49.7459 28.6024 49.5465 29.0011 49.2275C29.041 49.1877 29.0809 49.1478 29.1407 49.1079C29.4796 48.8088 29.8983 48.2904 30.3569 47.6524C30.8155 47.0144 31.294 46.2368 31.7526 45.3795C32.6498 43.6648 33.4274 41.6709 33.6068 39.8566C33.6667 39.2385 33.6667 38.6603 33.5869 38.1219C33.5072 37.5836 33.3477 37.0851 33.1084 36.6465C32.4903 35.53 31.7725 34.4732 30.9351 33.5561C29.8585 32.3997 28.6223 31.5024 27.2266 30.9641C25.8309 30.4258 24.2558 30.2862 22.5212 30.665C22.3218 30.7049 22.1025 30.7647 21.9031 30.8046C21.9031 30.8046 21.9031 30.8046 21.8832 30.8046C19.0519 31.5024 16.8188 32.6987 15.3035 34.1144C14.3465 34.9916 13.6686 35.9686 13.2698 36.9456C12.7714 38.1818 12.7514 39.1986 12.9309 40.2553C12.9309 40.2553 12.9309 40.2553 12.9309 40.2753C12.9508 40.375 12.9708 40.4547 12.9907 40.5544C13.0705 41.1326 13.2499 41.7507 13.4493 42.4286Z" fill="white"/>
<path d="M35.1022 53.0955C36.5178 51.7796 38.073 49.6661 39.1696 46.2567C39.2693 45.9377 39.3291 45.4592 39.3092 44.9208C39.2892 44.3825 39.2095 43.7644 39.0898 43.1264C38.8506 41.8504 38.4319 40.4946 38.0132 39.4378C37.734 38.74 37.4549 38.1618 37.2356 37.8627C37.1159 37.6833 36.9764 37.5238 36.8368 37.3643C36.3583 36.8459 35.8 36.4471 35.2418 36.0483C34.6835 35.6695 34.1451 35.3106 33.7464 34.872C33.6068 34.7324 33.4872 34.553 33.3875 34.3935C33.2479 34.1343 33.1682 33.8551 33.1084 33.5959C33.0485 33.3168 33.0087 33.0576 32.9489 32.7785C32.8093 32.2401 32.6099 31.6619 32.0516 31.0438C31.9519 30.9242 31.8323 30.8046 31.6927 30.6849C31.4136 30.4457 30.9949 30.1865 30.4965 29.9472C29.9781 29.708 29.3799 29.5086 28.7419 29.3491C27.4459 29.0301 25.9505 28.9503 24.6147 29.2494C24.1561 29.3491 23.6975 29.5086 23.2788 29.7279C24.7742 29.5485 26.1898 29.7478 27.4459 30.2264C28.9811 30.8046 30.317 31.7815 31.4535 32.9978C32.3507 33.9548 33.1084 35.0714 33.7464 36.2477C34.0255 36.7661 34.205 37.3044 34.2847 37.8826C34.3645 38.0222 34.5639 38.3412 34.7632 38.7599C35.0424 39.3182 35.3813 40.0759 35.5408 40.8335C35.6605 41.3519 35.7003 41.8902 35.6206 42.3887C35.4611 43.246 35.2019 44.8411 34.6635 46.7352C34.2448 48.2306 33.6467 49.9253 32.7893 51.6201C32.8093 51.8992 32.8093 52.6369 32.6298 53.5541C32.5501 53.9927 32.4105 54.4513 32.2111 54.9298C32.3108 54.89 32.4105 54.8501 32.5102 54.8102C33.2081 54.551 34.1252 54.0127 35.1022 53.0955Z" fill="white"/>
<path d="M23.3786 47.2937C23.6378 47.174 23.9568 47.1142 24.2758 47.174C24.7145 47.2538 25.0734 47.4133 25.3326 47.6725C25.5519 47.9118 25.6715 48.2308 25.6915 48.5498C25.7313 48.47 25.7513 48.3703 25.7912 48.2706C25.9108 47.9118 26.0503 47.4332 26.0902 47.0145C26.1301 46.7354 26.1102 46.4762 26.0503 46.2768C26.0105 46.1771 25.9706 46.0974 25.9108 46.0376C25.851 45.9777 25.7712 45.9179 25.6516 45.898C25.1531 45.7784 24.7544 45.8182 24.3955 45.9179C24.0565 46.0176 23.7575 46.217 23.5381 46.4164C23.4384 46.5161 23.3587 46.5958 23.2989 46.6955C23.1593 46.875 22.9599 47.2339 22.8204 47.6127C22.8204 47.6326 22.8004 47.6725 22.8004 47.6924C22.9599 47.5329 23.1593 47.3934 23.3786 47.2937Z" fill="white"/>
<path d="M21.8831 48.789C21.8433 48.45 21.9031 48.1111 21.9828 47.7921C22.1423 47.1341 22.4614 46.5559 22.7205 46.2169C22.8202 46.0973 22.9199 45.9777 23.0595 45.8581C23.3386 45.5989 23.7374 45.3397 24.196 45.2001C24.6745 45.0605 25.2328 45.0206 25.8509 45.1602C26.1101 45.22 26.3294 45.3596 26.4889 45.5191C26.6284 45.6786 26.7281 45.8581 26.788 46.0375C26.8079 46.1172 26.8278 46.197 26.8478 46.2768C27.087 45.4394 27.2465 44.4424 27.1468 43.5253C27.0671 42.8274 26.8278 42.2094 26.3692 41.7109C26.0502 41.3719 25.6315 41.0928 25.0533 40.8735C23.9966 40.4947 23.0595 40.4349 22.2221 40.6143C21.3847 40.7937 20.6669 41.1925 20.0887 41.7308C18.9323 42.7876 18.3541 44.4225 18.5933 45.8182C18.7329 46.6356 19.1915 47.5129 19.8494 48.2307C20.5074 48.9485 21.3647 49.4868 22.2819 49.6862C22.0227 49.427 21.923 49.108 21.8831 48.789Z" fill="white"/>
<path d="M24.176 49.5666C24.3954 49.4868 24.6346 49.3871 24.8539 49.2476C24.9137 49.0083 24.9536 48.789 24.9337 48.6295C24.9137 48.4301 24.8739 48.3105 24.7742 48.2108C24.6745 48.0911 24.4751 47.9914 24.1561 47.9316C23.9966 47.9117 23.8371 47.9316 23.6776 48.0114C23.5181 48.0712 23.3586 48.1908 23.219 48.3304C22.9797 48.5497 22.7804 48.8289 22.6807 48.9684C22.7205 49.0681 22.7604 49.1678 22.8402 49.2476C22.88 49.2874 22.9399 49.3472 23.0196 49.3871C23.1193 49.4469 23.2389 49.5068 23.3386 49.5267C23.3984 49.5068 23.4583 49.5267 23.5181 49.5267H23.538L23.5978 49.5466C23.6377 49.5666 23.6975 49.5666 23.7773 49.5865C23.7972 49.5865 23.8171 49.5865 23.8371 49.5865C23.9368 49.5865 24.0564 49.5865 24.176 49.5666Z" fill="white"/>
<path d="M33.9457 46.5559C34.4641 44.6817 34.7233 43.1266 34.8828 42.2692C34.9426 41.9303 34.9227 41.5315 34.823 41.1128C34.7432 40.6941 34.5837 40.2554 34.4242 39.8567C34.4043 39.7969 34.3644 39.7171 34.3445 39.6573C34.2847 40.395 34.1451 41.1527 33.9457 41.9103C33.3874 43.9041 32.4105 45.8581 31.4335 47.3734C30.7755 48.3902 30.1375 49.1878 29.6191 49.6663C29.5593 49.7261 29.5194 49.766 29.4596 49.8059C28.9213 50.2445 28.2633 50.4838 27.5854 50.6034C26.9075 50.723 26.2097 50.7031 25.5717 50.6632C24.9336 50.6034 24.3554 50.5037 23.9367 50.404C23.4183 50.5236 22.8999 50.5436 22.3815 50.4638C21.1653 50.2844 20.0687 49.6264 19.2313 48.7292C18.4736 47.9117 17.9552 46.9348 17.7957 45.9179C17.5166 44.2232 18.1945 42.3888 19.5304 41.1527C20.2083 40.5346 21.0457 40.0561 22.0226 39.8567C22.9996 39.6573 24.0962 39.7171 25.2726 40.1558C25.9505 40.395 26.4888 40.7539 26.8676 41.1925C27.067 41.4119 27.2465 41.6511 27.386 41.9103C27.3661 41.4517 27.3063 40.9932 27.2066 40.5545C27.0271 39.757 26.6882 38.9993 26.1299 38.4211C25.6713 37.9227 25.0533 37.5239 24.1959 37.2846C22.4214 36.7862 20.8463 36.527 19.5104 36.5669C18.1746 36.6267 17.0979 37.0055 16.2406 37.803C15.443 38.5408 14.8249 39.6772 14.4062 41.3321C13.8878 43.4256 13.9875 45.6388 14.5059 47.6326C15.0243 49.6264 15.9614 51.4009 17.1178 52.6172C17.6562 53.1954 18.2543 53.6539 18.8525 53.973C19.9291 54.5312 21.4644 55.0297 23.0794 55.2689C24.6944 55.5082 26.429 55.5082 27.9244 55.1094C28.9213 54.8502 29.7986 54.3917 30.5163 53.7536C30.8553 53.4346 31.1344 53.0957 31.3936 52.677C31.6528 52.2583 31.8721 51.8196 32.0915 51.4009C32.9289 49.7261 33.527 48.0513 33.9457 46.5559Z" fill="white"/>
<path d="M22.8402 49.2275C22.7604 49.1478 22.7205 49.0481 22.6807 48.9484C22.6408 49.0082 22.6208 49.0481 22.6009 49.068C22.5012 49.2475 22.2819 49.3073 22.0825 49.2076C21.9031 49.1079 21.8433 48.8886 21.9429 48.6892C21.9629 48.6693 22.2221 48.1708 22.7006 47.7322C22.7405 47.7122 22.7604 47.6724 22.8003 47.6524C22.8003 47.6325 22.8202 47.5926 22.8202 47.5727C22.9598 47.1938 23.1592 46.8349 23.2987 46.6555C23.3586 46.5758 23.4583 46.4761 23.538 46.3764C23.7573 46.177 24.0365 45.9776 24.3954 45.8779C24.7343 45.7782 25.153 45.7383 25.6515 45.858C25.791 45.8979 25.8508 45.9377 25.9107 45.9975C25.9705 46.0574 26.0103 46.1371 26.0502 46.2368C26.11 46.4162 26.11 46.6754 26.0901 46.9745C26.0502 47.3932 25.9107 47.8717 25.791 48.2306C25.7512 48.3303 25.7113 48.43 25.6913 48.5098V48.5297V48.5496C25.8508 48.3901 26.0103 48.2306 26.1699 48.0312C26.1699 48.0113 26.1898 47.9914 26.2097 47.9714C26.2496 47.8917 26.2895 47.792 26.3493 47.6724C26.4689 47.4132 26.6085 47.0343 26.7481 46.5957C26.7879 46.496 26.8079 46.3764 26.8478 46.2767C26.8278 46.1969 26.8079 46.1172 26.7879 46.0374C26.7281 45.858 26.6284 45.6586 26.4889 45.519C26.3294 45.3396 26.11 45.22 25.8508 45.1601C25.2328 45.0006 24.6745 45.0405 24.196 45.2C23.7175 45.3396 23.3386 45.5988 23.0595 45.858C22.9399 45.9776 22.8202 46.0972 22.7205 46.2169C22.4613 46.5558 22.1423 47.154 21.9828 47.792C21.9031 48.111 21.8632 48.4499 21.8831 48.7889C21.923 49.1079 22.0227 49.407 22.242 49.6662C22.3218 49.6861 22.4215 49.7061 22.5212 49.7061C22.7006 49.726 22.88 49.7459 23.0595 49.7459C23.0994 49.6064 23.219 49.5266 23.3586 49.4867C23.2589 49.4469 23.1392 49.407 23.0396 49.3472C22.9399 49.3272 22.88 49.2873 22.8402 49.2275Z" fill="#9B2C60"/>
<path d="M23.8173 49.5864C23.7973 49.5864 23.7774 49.5864 23.7574 49.5864C23.7774 49.5864 23.8173 49.6063 23.8571 49.6063C23.8771 49.6063 23.917 49.6263 23.9369 49.6263C24.0166 49.6063 24.0964 49.5864 24.1761 49.5465C24.0565 49.5864 23.9369 49.5864 23.8173 49.5864Z" fill="#9B2C60"/>
<path d="M26.13 49.2075C25.8508 49.4667 25.5518 49.686 25.2527 49.8654C25.2926 49.8654 25.3324 49.8654 25.3723 49.8854C25.7113 49.686 25.9705 49.4667 26.0901 49.347C26.13 49.3072 26.1499 49.2872 26.1499 49.2872C26.1898 49.2474 26.2097 49.2274 26.2297 49.1875C26.2297 49.1875 26.2496 49.1277 26.2895 49.048C26.2297 49.1078 26.1898 49.1477 26.13 49.2075Z" fill="#9B2C60"/>
<path d="M23.2789 50.2443C23.0795 50.1845 22.9599 49.9851 23.0197 49.7857C23.0197 49.7857 23.0197 49.7857 23.0197 49.7658C22.8403 49.7658 22.6608 49.7658 22.4814 49.7259C22.3817 49.706 22.3019 49.686 22.2022 49.686C21.2851 49.4866 20.4277 48.9483 19.7698 48.2305C19.1118 47.5128 18.6532 46.6355 18.5137 45.818C18.2744 44.4223 18.8725 42.7874 20.009 41.7307C20.5872 41.1923 21.305 40.7936 22.1424 40.6141C22.9798 40.4347 23.9369 40.4945 24.9736 40.8733C25.5519 41.0926 25.9706 41.3718 26.2896 41.7107C26.7481 42.2092 26.9874 42.8472 27.0672 43.5251C27.1669 44.4423 27.0073 45.4392 26.7681 46.2766C26.7282 46.3962 26.7083 46.4959 26.6684 46.5956C26.5288 47.0342 26.3893 47.4131 26.2696 47.6723C26.2098 47.8118 26.1699 47.9115 26.1301 47.9713C26.1101 47.9913 26.1101 48.0112 26.0902 48.0311C25.9307 48.2305 25.7712 48.39 25.6117 48.5495C25.6316 48.8686 25.5718 49.2075 25.4522 49.5465C25.3924 49.7458 25.173 49.8455 24.9736 49.7857C24.7743 49.7259 24.6746 49.5066 24.7344 49.3072C24.7543 49.2673 24.7543 49.2274 24.7743 49.1876C24.5549 49.3271 24.3157 49.4268 24.0964 49.5066C24.0166 49.5265 23.9369 49.5664 23.8571 49.5863C24.0764 49.6461 24.3755 49.706 24.7145 49.7658C24.854 49.7857 25.0135 49.8056 25.173 49.8256C25.4721 49.6461 25.7512 49.4268 26.0503 49.1676C26.1101 49.1078 26.15 49.0679 26.2098 49.0081C26.3693 48.8486 26.5288 48.6692 26.6883 48.4698L26.7282 48.41C26.7282 48.39 27.2466 47.3732 27.5656 46.0174C27.4859 46.1769 27.3064 46.2766 27.127 46.2168C26.9276 46.157 26.808 45.9576 26.8678 45.7582V45.7382C26.8678 45.7183 26.8877 45.6784 26.8877 45.6386C26.9077 45.5588 26.9475 45.4392 26.9675 45.2996C27.0273 45.0005 27.127 44.5619 27.1868 44.0634C27.2665 43.4254 27.3264 42.6678 27.2865 41.8902C27.1469 41.631 26.9874 41.3917 26.7681 41.1724C26.3693 40.7537 25.831 40.3948 25.173 40.1356C23.9967 39.7169 22.9001 39.6372 21.9231 39.8365C20.9461 40.0359 20.1087 40.5144 19.4308 41.1325C18.1149 42.3687 17.437 44.203 17.6962 45.8978C17.8557 46.8947 18.394 47.8916 19.1317 48.709C19.9492 49.5863 21.0458 50.2642 22.282 50.4437C22.7804 50.5234 23.2988 50.5035 23.8372 50.3839C23.5381 50.324 23.2988 50.2443 23.2789 50.2443Z" fill="#9B2C60"/>
<path d="M30.5164 53.7334C29.8186 54.3914 28.9214 54.83 27.9245 55.0892C26.4291 55.488 24.7144 55.488 23.0795 55.2487C21.4645 55.0095 19.9292 54.511 18.8526 53.9528C18.2544 53.6537 17.6762 53.1752 17.1179 52.597C15.9815 51.3608 15.0244 49.6062 14.506 47.6124C13.9876 45.6186 13.8879 43.4254 14.4063 41.3119C14.8051 39.657 15.4431 38.5206 16.2407 37.7828C17.098 36.9853 18.1747 36.6065 19.5105 36.5467C20.8464 36.4869 22.4215 36.766 24.196 37.2645C25.0534 37.5037 25.6714 37.9025 26.13 38.4009C26.6883 38.9991 27.0073 39.7368 27.2067 40.5343C27.3064 40.973 27.3662 41.4315 27.3861 41.8901C27.426 42.6677 27.3662 43.4254 27.2864 44.0634C27.2266 44.5618 27.1269 45.0005 27.0671 45.2996C27.0272 45.4591 27.0073 45.5588 26.9874 45.6385C26.9674 45.6784 26.9674 45.7183 26.9674 45.7382V45.7581C26.9076 45.9575 27.0272 46.1569 27.2266 46.2167C27.4061 46.2765 27.6055 46.1768 27.6653 46.0173C27.6653 45.9974 27.6852 45.9775 27.6852 45.9775C27.6852 45.9575 28.084 44.6615 28.1637 43.0067C28.2036 42.1693 28.1637 41.2521 27.9643 40.3748C27.765 39.4776 27.3662 38.6003 26.7082 37.9025C26.15 37.3043 25.3923 36.8258 24.4153 36.5467C22.601 36.0482 20.9461 35.7491 19.4906 35.809C18.0351 35.8688 16.759 36.3074 15.7422 37.2445C14.8051 38.1218 14.1272 39.3978 13.6886 41.1325C13.5889 41.5512 13.5091 41.9699 13.4493 42.4085C13.6487 43.0465 13.8481 43.7444 14.0275 44.502C14.0674 44.7014 13.9478 44.9008 13.7484 44.9606C13.5889 45.0005 13.4294 44.9207 13.3496 44.7812C13.3895 45.818 13.549 46.8348 13.8082 47.8118C14.3665 49.9053 15.3434 51.7795 16.5995 53.1154C17.1977 53.7534 17.8357 54.2718 18.5336 54.6307C20.0887 55.4282 22.4016 56.0662 24.7144 56.1659C25.8708 56.2058 27.0472 56.126 28.1238 55.827C29.2005 55.5279 30.2174 55.0494 31.0348 54.2917C31.3738 53.9727 31.6928 53.5939 31.952 53.1951C32.0916 52.3178 32.0517 51.6798 32.0517 51.6C32.0517 51.5203 32.0716 51.4405 32.0916 51.3807C31.8722 51.7994 31.633 52.2381 31.3937 52.6568C31.1345 53.0755 30.8354 53.4344 30.5164 53.7334Z" fill="#9B2C60"/>
<path d="M34.6637 46.7751C35.202 44.861 35.4612 43.2659 35.6207 42.4285C35.7204 41.9301 35.6606 41.3917 35.541 40.8733C35.3615 40.0958 35.0425 39.358 34.7634 38.7998C34.5441 38.3811 34.3646 38.0621 34.2849 37.9225C34.3447 38.2614 34.3646 38.6203 34.3646 38.9593C34.3646 39.1985 34.3646 39.4179 34.3447 39.6571C34.3646 39.7169 34.4045 39.7967 34.4244 39.8565C34.584 40.2553 34.7435 40.6939 34.8232 41.1126C34.903 41.5313 34.9428 41.95 34.883 42.269C34.7235 43.1463 34.4643 44.7015 33.9459 46.5557C33.5272 48.0312 32.9291 49.706 32.0917 51.3808C32.1515 51.2811 32.2512 51.2014 32.3907 51.1814C32.5901 51.1615 32.7696 51.321 32.7895 51.5204C32.7895 51.5204 32.7895 51.5602 32.7895 51.64C33.6469 49.9452 34.245 48.2704 34.6637 46.7751Z" fill="#9B2C60"/>
<path d="M12.1733 40.1556C12.273 39.9762 12.4923 39.8964 12.6717 39.9762C12.7914 40.036 12.8512 40.1357 12.8711 40.2553C12.6917 39.1986 12.7116 38.1817 13.2101 36.9455C13.6088 35.9486 14.2867 34.9916 15.2438 34.1143C16.779 32.6987 18.9922 31.5024 21.8234 30.8046C21.7038 30.8245 21.5841 30.8046 21.4844 30.7049C21.3249 30.5653 21.3249 30.3261 21.4645 30.1665C21.4844 30.1466 21.5243 30.1067 21.5443 30.0868C21.2452 30.1665 20.9461 30.2463 20.647 30.3261C19.8894 30.5454 19.1716 30.8245 18.5136 31.1236C18.1946 31.2632 17.8956 31.4027 17.6164 31.5622C16.4999 32.1404 15.5229 32.8183 14.7254 33.556C13.7085 34.5131 12.9509 35.5499 12.5122 36.6664C11.9739 37.9823 11.934 39.1587 12.1135 40.2752C12.1533 40.1955 12.1733 40.1556 12.1733 40.1556Z" fill="#9B2C60"/>
<path d="M13.3497 44.7811C13.4295 44.9207 13.589 44.9805 13.7485 44.9606C13.9479 44.9207 14.0675 44.7213 14.0276 44.502C13.8482 43.7443 13.6488 43.0465 13.4494 42.4085C13.25 41.7505 13.0507 41.1324 12.931 40.5343C12.9111 40.4346 12.8912 40.3548 12.8712 40.2551C12.8712 40.3349 12.8712 40.3947 12.8313 40.4744L12.8114 40.4944C12.8114 40.5143 12.7915 40.5542 12.7715 40.5941C12.7317 40.6738 12.6718 40.7935 12.612 40.9729C12.5522 41.1324 12.4725 41.3119 12.3927 41.5511C12.6718 42.5281 13.0108 43.525 13.2899 44.6814C13.3099 44.7213 13.3298 44.7612 13.3497 44.7811Z" fill="#9B2C60"/>
<path d="M22.4614 30.645C24.196 30.2662 25.7711 30.4257 27.1668 30.9441C28.5625 31.4824 29.8186 32.3796 30.8753 33.536C31.7127 34.4332 32.4504 35.49 33.0486 36.6264C33.2879 37.0651 33.4474 37.5635 33.5271 38.1019C33.6069 38.6402 33.6069 39.2384 33.547 39.8365C33.3676 41.6509 32.59 43.6646 31.6928 45.3594C31.2342 46.2167 30.7557 46.9943 30.2971 47.6324C29.8385 48.2704 29.3999 48.7888 29.0809 49.0878C29.041 49.1277 28.9812 49.1676 28.9413 49.2075C28.5426 49.5464 28.0242 49.7259 27.426 49.8256C26.7481 49.9452 26.0104 49.9253 25.3325 49.8455C25.2926 49.8455 25.2527 49.8455 25.2129 49.8256C25.0534 49.8056 24.9138 49.7857 24.7543 49.7657C24.4153 49.7059 24.1163 49.6461 23.8969 49.5863C23.877 49.5863 23.8371 49.5664 23.8172 49.5664C23.7773 49.5664 23.7574 49.5464 23.7175 49.5464C23.6377 49.5265 23.5779 49.5066 23.5381 49.5066L23.4782 49.4866H23.4583C23.3985 49.4667 23.3387 49.4667 23.2789 49.4866C23.1393 49.5065 23.0396 49.6062 22.9798 49.7458C22.9798 49.7458 22.9798 49.7458 22.9798 49.7657C22.92 49.9651 23.0396 50.1645 23.239 50.2243C23.239 50.2243 23.4982 50.3041 23.8969 50.3838C24.3156 50.4835 24.8939 50.5832 25.5319 50.643C26.1699 50.7028 26.8677 50.7028 27.5456 50.5832C28.2235 50.4636 28.8815 50.2443 29.4198 49.7857C29.4796 49.7458 29.5195 49.686 29.5793 49.6461C30.0977 49.1676 30.7358 48.3501 31.3937 47.3532C32.3707 45.8379 33.3477 43.884 33.9059 41.8901C34.1053 41.1325 34.2648 40.3748 34.3047 39.6371C34.3246 39.3979 34.3246 39.1586 34.3246 38.9393C34.3246 38.5804 34.2848 38.2414 34.2449 37.9025C34.1452 37.3243 33.9658 36.766 33.7066 36.2676C33.0685 35.0912 32.3109 33.9946 31.4137 33.0176C30.2772 31.8014 28.9413 30.8244 27.4061 30.2462C26.15 29.7677 24.7343 29.5683 23.239 29.7478C22.8602 29.9471 22.5212 30.1665 22.2221 30.4655C22.1424 30.5254 22.0826 30.6051 22.0028 30.6849C21.943 30.7447 21.8832 30.7646 21.8234 30.7845C22.0427 30.7247 22.262 30.6849 22.4614 30.645Z" fill="#9B2C60"/>
<path d="M21.0857 59.7948C23.0197 59.8745 24.8939 59.4359 26.4092 59.2165C27.3064 59.0969 28.084 58.8776 28.742 58.5785C29.0809 58.419 29.3999 58.2595 29.699 58.0801C29.7787 58.0203 29.8784 57.9604 29.9582 57.9006C30.1775 57.7611 30.357 57.6016 30.5364 57.4221C30.5563 57.4022 30.5763 57.3822 30.5962 57.3822C31.0947 56.9236 31.4735 56.4252 31.7726 55.9068C31.6729 55.9267 31.5931 55.9467 31.5931 55.9467C31.3937 55.9866 31.1944 55.847 31.1545 55.6476C31.1146 55.4482 31.2542 55.2488 31.4536 55.209H31.4735L31.5333 55.189C31.5732 55.1691 31.6529 55.1691 31.7526 55.1292C31.8723 55.0893 32.0517 55.0295 32.2511 54.9697C32.4505 54.4912 32.5701 54.0127 32.6698 53.594C32.8492 52.6569 32.8492 51.9192 32.8293 51.66C32.8293 51.6001 32.8293 51.5603 32.8293 51.5403C32.8094 51.3409 32.6299 51.1814 32.4305 51.2014C32.3109 51.2213 32.1913 51.2811 32.1315 51.4008C32.0916 51.4606 32.0716 51.5403 32.0916 51.6201C32.0916 51.6799 32.1315 52.3379 31.9919 53.2151C31.972 53.3348 31.952 53.4345 31.9321 53.5541C31.7128 54.5909 31.2143 55.847 30.1376 56.8439C29.3002 57.6215 28.1039 58.2396 26.3693 58.4988C24.3954 58.7779 22.0228 59.3761 19.7897 58.8975C18.5735 58.6383 17.437 58.2595 16.6195 57.9006C15.9217 57.5816 14.9846 56.8838 14.0874 55.9267C13.1303 54.8899 12.2132 53.574 11.5951 52.1385C10.977 50.7029 10.658 49.1876 10.8972 47.7521C11.2362 45.519 11.7546 43.7046 12.1733 42.4485C12.2929 42.1095 12.3926 41.8304 12.4923 41.5712C12.572 41.3519 12.6518 41.1525 12.7116 40.993C12.7714 40.8335 12.8312 40.6939 12.8711 40.6142C12.8911 40.5743 12.911 40.5344 12.911 40.5145L12.9309 40.4945C12.9708 40.4347 12.9708 40.355 12.9708 40.2752C12.9708 40.2752 12.9708 40.2752 12.9708 40.2553C12.9509 40.1357 12.8711 40.036 12.7714 39.9761C12.592 39.8765 12.3527 39.9562 12.273 40.1556C12.273 40.1556 12.253 40.1955 12.2132 40.2752C11.954 40.8534 10.7975 43.565 10.1795 47.6125C9.92026 49.2474 10.2791 50.9023 10.9371 52.4176C11.5951 53.9329 12.5521 55.3286 13.569 56.4053C14.5061 57.4221 15.483 58.1798 16.3404 58.5586C17.1977 58.9374 18.3541 59.3162 19.6102 59.5954C19.6302 59.5954 19.6501 59.5954 19.6701 59.6153C20.0688 59.715 20.5872 59.7748 21.0857 59.7948Z" fill="#9B2C60"/>
<path d="M32.5901 30.5254C32.5702 30.5054 32.5303 30.4655 32.5104 30.4456C32.4107 30.3459 32.291 30.2263 32.1714 30.1266C32.1515 30.1067 32.1116 30.0867 32.0917 30.0468C31.6331 29.668 30.9751 29.3291 30.2175 29.03C29.7788 28.8705 29.3003 28.711 28.8018 28.6113C28.5626 28.5515 28.3034 28.5116 28.0442 28.4717C27.3663 28.372 26.6485 28.3122 25.9507 28.3521C24.4354 28.4119 22.9001 28.8505 21.7437 29.9272C21.7038 29.9671 21.664 30.007 21.6241 30.0468C21.6041 30.0668 21.5842 30.0867 21.5643 30.1067C21.5443 30.1266 21.5044 30.1665 21.4845 30.1864C21.3449 30.3459 21.3449 30.5852 21.5044 30.7247C21.6041 30.8045 21.7238 30.8444 21.8434 30.8244C21.8434 30.8244 21.8434 30.8244 21.8633 30.8244C21.9232 30.8045 22.0029 30.7646 22.0428 30.7247C22.1225 30.645 22.1823 30.5852 22.2621 30.5054C22.5811 30.2263 22.9201 29.987 23.279 29.7876C23.6977 29.5683 24.1363 29.4088 24.6148 29.3091C25.9507 28.9901 27.4261 29.0898 28.742 29.4088C29.4 29.5683 29.9981 29.7677 30.4966 30.007C31.015 30.2462 31.4138 30.5054 31.6929 30.7447C31.8325 30.8643 31.9521 30.9839 32.0518 31.1036C32.63 31.7217 32.8294 32.2799 32.949 32.8382C33.0088 33.1173 33.0487 33.3765 33.1085 33.6557C33.1683 33.9149 33.2481 34.194 33.3876 34.4532C33.4873 34.6326 33.607 34.7921 33.7465 34.9317C34.1453 35.3703 34.6836 35.7292 35.2419 36.1081C35.8002 36.4869 36.3584 36.9056 36.837 37.424C36.9765 37.5835 37.1161 37.743 37.2357 37.9224C37.455 38.2215 37.7342 38.7997 38.0133 39.4976C38.432 40.5543 38.8507 41.9101 39.09 43.1861C39.2096 43.8242 39.2894 44.4422 39.3093 44.9806C39.3292 45.5189 39.2894 45.9974 39.1697 46.3164C38.0532 49.7259 36.5179 51.8393 35.1023 53.1553C34.1254 54.0724 33.1883 54.5908 32.5104 54.8899C32.4107 54.9298 32.291 54.9896 32.2113 55.0095C32.0119 55.0893 31.8524 55.1491 31.7128 55.169C31.6131 55.189 31.5533 55.2089 31.4935 55.2288L31.4337 55.2488H31.4138C31.2144 55.2887 31.0748 55.4681 31.1147 55.6874C31.1546 55.8868 31.334 56.0264 31.5533 55.9865C31.5533 55.9865 31.6331 55.9666 31.7328 55.9466C32.2512 55.827 33.8462 55.3086 35.5808 53.6936C37.0962 52.2979 38.7111 50.0648 39.8676 46.5358C40.0071 46.1171 40.047 45.6385 40.047 45.1002C40.047 44.861 40.0271 44.6018 40.0071 44.3226C40.0071 44.2827 39.9872 44.2229 39.9872 44.1831C39.8476 42.9668 39.5286 41.5911 39.1299 40.3748C38.9305 39.7368 38.7111 39.1586 38.4918 38.6602C38.2725 38.1617 38.0532 37.743 37.8538 37.4639C37.7142 37.2645 37.5547 37.0651 37.3753 36.8857C36.837 36.3074 36.2189 35.8688 35.6606 35.47C35.1023 35.0713 34.6039 34.7323 34.2849 34.3934C34.1852 34.2737 34.0855 34.1541 34.0257 34.0544C33.9459 33.8949 33.8662 33.6955 33.8263 33.4563C33.7465 33.0974 33.6867 32.6588 33.5272 32.1603C33.4076 31.8213 33.2481 31.4425 32.9889 31.0637C32.8892 30.8643 32.7496 30.6849 32.5901 30.5254Z" fill="#9B2C60"/>
<path d="M25.6714 48.5495C25.6515 48.2305 25.5318 47.9115 25.3125 47.6723C25.0533 47.3931 24.6944 47.2336 24.2558 47.1738C23.9368 47.114 23.6178 47.1937 23.3586 47.2934C23.1393 47.3931 22.9598 47.5128 22.7804 47.6723C22.7405 47.6922 22.7206 47.7321 22.6807 47.752C22.2022 48.1907 21.943 48.6891 21.923 48.709C21.8233 48.8885 21.8831 49.1277 22.0626 49.2274C22.242 49.3271 22.4813 49.2673 22.581 49.0879C22.581 49.0679 22.6209 49.0281 22.6607 48.9682C22.7604 48.8087 22.9399 48.5495 23.1991 48.3302C23.3386 48.1906 23.4981 48.071 23.6577 48.0112C23.8172 47.9514 23.9767 47.9115 24.1362 47.9315C24.4751 47.9913 24.6546 48.091 24.7543 48.2106C24.8539 48.3103 24.8938 48.4299 24.9138 48.6293C24.9337 48.7888 24.8938 49.0081 24.834 49.2474C24.8141 49.2873 24.8141 49.3271 24.7941 49.367C24.7343 49.5664 24.834 49.7857 25.0334 49.8455C25.2328 49.9053 25.4521 49.8056 25.5119 49.6063C25.6116 49.2474 25.6714 48.9284 25.6714 48.6094C25.6914 48.5695 25.6914 48.5695 25.6714 48.5495C25.6914 48.5495 25.6714 48.5495 25.6714 48.5495Z" fill="#9B2C60"/>
</g>
<defs>
<clipPath id="clip0_17_77">
<rect width="64" height="68" fill="white" transform="translate(2)"/>
</clipPath>
</defs>
</svg>
