<svg width="170" height="40" viewBox="0 0 170 40" fill="none" xmlns="http://www.w3.org/2000/svg">
<path d="M45.4332 8.1473L44.7578 8.85489V10.9454C44.7599 11.016 44.7473 11.0862 44.7208 11.1517C44.6943 11.2173 44.6544 11.2766 44.6038 11.3261C44.5529 11.3785 44.4918 11.4202 44.4242 11.4484C44.3566 11.4766 44.284 11.4908 44.2107 11.4902C44.1398 11.4897 44.0697 11.475 44.0047 11.4468C43.9397 11.4185 43.8811 11.3775 43.8325 11.3261C43.782 11.2765 43.7424 11.2172 43.7162 11.1516C43.6899 11.0861 43.6775 11.0159 43.6798 10.9454V4.35376C43.6841 4.21211 43.7381 4.07643 43.8325 3.97037C43.9379 3.87628 44.0733 3.82242 44.2148 3.81836C44.3575 3.82239 44.4942 3.87619 44.6011 3.97037C44.698 4.07876 44.7526 4.21812 44.7551 4.36318V7.30923L47.7837 4.08068C47.8249 4.02447 47.8771 3.97722 47.9373 3.94182C47.9975 3.90643 48.0642 3.88365 48.1336 3.87486C48.205 3.86249 48.2783 3.86583 48.3483 3.88465C48.4183 3.90348 48.4833 3.93732 48.5388 3.98382C48.5954 4.02482 48.643 4.07684 48.6788 4.13674C48.7145 4.19664 48.7377 4.26315 48.7468 4.33224C48.7589 4.40338 48.7554 4.47628 48.7365 4.54594C48.7176 4.6156 48.6838 4.68037 48.6374 4.7358L46.187 7.36438L48.6685 10.6077C48.7181 10.6597 48.7558 10.7216 48.7791 10.7894C48.8024 10.8572 48.8108 10.9292 48.8036 11.0005C48.7844 11.1464 48.7082 11.2789 48.5915 11.3691C48.4959 11.4461 48.3768 11.4884 48.2538 11.4889C48.1739 11.4902 48.0948 11.4732 48.0227 11.4391C47.9505 11.4051 47.8872 11.3549 47.8377 11.2924L45.4332 8.1473Z" fill="#23283B"/>
<path d="M52.1456 8.52937L49.9261 11.2508C49.8762 11.3145 49.8125 11.3662 49.7398 11.4021C49.6671 11.4379 49.5872 11.457 49.506 11.4579C49.3861 11.4564 49.2703 11.4142 49.1778 11.3382C49.1205 11.2975 49.0721 11.2457 49.0357 11.1858C48.9992 11.1259 48.9754 11.0592 48.9657 10.9898C48.9532 10.9186 48.9565 10.8456 48.9754 10.7759C48.9943 10.7062 49.0283 10.6414 49.0751 10.5862L51.458 7.6469L49.1008 4.7291C49.0545 4.67362 49.0207 4.60885 49.0019 4.5392C48.983 4.46956 48.9794 4.39668 48.9914 4.32553C48.9967 4.2551 49.0176 4.18671 49.0526 4.1253C49.0877 4.06389 49.1359 4.01098 49.194 3.97039C49.2476 3.92488 49.3106 3.89155 49.3785 3.87273C49.4463 3.85392 49.5175 3.85006 49.5871 3.86143C49.7295 3.88208 49.8585 3.9562 49.9477 4.06859L52.1456 6.76846L54.2988 4.06456C54.3881 3.95216 54.5171 3.87804 54.6595 3.85739C54.7292 3.84609 54.8006 3.84998 54.8687 3.86879C54.9368 3.8876 55 3.92089 55.0539 3.96635C55.1131 4.00709 55.1624 4.06048 55.1981 4.12263C55.2339 4.18478 55.2552 4.2541 55.2606 4.32553C55.2728 4.39668 55.2694 4.46962 55.2505 4.53931C55.2316 4.60899 55.1977 4.67376 55.1512 4.7291L52.8345 7.6469L52.1456 8.52937Z" fill="#23283B"/>
<path d="M58.7268 3.8464C59.0101 3.85013 59.2897 3.91066 59.5489 4.02437C59.8082 4.13809 60.0417 4.30265 60.2357 4.50825C60.6287 4.90204 60.852 5.43298 60.8581 5.98817C60.8641 6.54336 60.6525 7.079 60.2681 7.4812C59.8736 7.89483 59.3407 8.15035 58.77 8.19955C58.7637 8.20583 58.1405 8.20942 56.9005 8.21031V10.9008C56.9023 10.9722 56.8886 11.0432 56.8604 11.1088C56.8322 11.1745 56.7901 11.2334 56.737 11.2815C56.6878 11.3333 56.6286 11.3745 56.5629 11.4027C56.4971 11.4309 56.4263 11.4455 56.3547 11.4456C56.2119 11.4422 56.0756 11.3847 55.974 11.2847C55.8723 11.1847 55.8128 11.0497 55.8076 10.9075V4.39121C55.8069 4.31834 55.8209 4.24607 55.849 4.17878C55.8771 4.11149 55.9187 4.05058 55.9711 3.99975C56.0211 3.94937 56.0809 3.90975 56.1469 3.88337C56.2129 3.85699 56.2837 3.8444 56.3547 3.8464H58.7268ZM58.639 7.12337C58.7876 7.12626 58.9352 7.09861 59.0725 7.04213C59.2099 6.98566 59.3341 6.90157 59.4374 6.79514C59.6451 6.58675 59.765 6.30712 59.7724 6.01356C59.7631 5.72198 59.6417 5.44508 59.4333 5.24005C59.328 5.13798 59.2029 5.05837 59.0656 5.0061C58.9283 4.95383 58.7818 4.92998 58.635 4.93603H56.9005V7.12337H58.639Z" fill="#23283B"/>
<path d="M68.0517 6.50342C67.9276 6.57035 67.7822 6.58628 67.6465 6.54782C67.5802 6.53303 67.5181 6.50376 67.4646 6.46211C67.4111 6.42046 67.3675 6.36749 67.3371 6.30702C66.7914 5.40034 66.0079 4.94699 64.9867 4.94699C64.2624 4.95189 63.5691 5.23984 63.0559 5.74884C62.5428 6.25784 62.2509 6.94717 62.2431 7.66839C62.2374 8.02462 62.3066 8.37809 62.4462 8.70612C62.5858 9.03416 62.7927 9.32952 63.0536 9.57323C63.3081 9.82387 63.6103 10.0214 63.9425 10.1542C64.2747 10.287 64.6301 10.3525 64.988 10.3467C65.4358 10.3487 65.8769 10.2376 66.27 10.0239C66.672 9.80474 67.0139 9.49063 67.2655 9.10913C67.2978 9.04355 67.3459 8.98697 67.4056 8.94447C67.4652 8.90198 67.5345 8.87489 67.6073 8.86564C67.675 8.84956 67.7458 8.85114 67.8128 8.87022C67.8797 8.88931 67.9406 8.92526 67.9896 8.97461C68.055 9.00461 68.113 9.04843 68.1596 9.10302C68.2063 9.15761 68.2405 9.22167 68.2597 9.29074C68.2832 9.35887 68.2885 9.43192 68.275 9.50269C68.2615 9.57346 68.2297 9.63951 68.1827 9.69431C67.8398 10.2342 67.3666 10.6801 66.8062 10.9911C66.2492 11.3039 65.6194 11.4653 64.9799 11.4592C64.4761 11.4655 63.9763 11.3703 63.5104 11.1793C63.0445 10.9884 62.6222 10.7056 62.2688 10.3481C61.901 10.0055 61.6091 9.59015 61.4118 9.1287C61.2146 8.66726 61.1163 8.16986 61.1233 7.66839C61.1153 7.16037 61.2132 6.65622 61.4108 6.1878C61.6085 5.71938 61.9015 5.29688 62.2715 4.94699C62.868 4.35764 63.642 3.97901 64.475 3.86897C65.308 3.75892 66.1543 3.92352 66.8846 4.33761C67.4623 4.65925 67.9356 5.13859 68.2489 5.71916C68.294 5.78748 68.3241 5.86445 68.3373 5.94509C68.3506 6.02573 68.3467 6.10824 68.3259 6.18729C68.3063 6.25679 68.2715 6.32113 68.2242 6.37576C68.1768 6.43039 68.1179 6.47397 68.0517 6.50342Z" fill="#23283B"/>
<path d="M69.616 11.4469C69.5442 11.4495 69.4727 11.4372 69.406 11.4108C69.3392 11.3844 69.2787 11.3445 69.2283 11.2936C69.1758 11.2427 69.1343 11.1818 69.1062 11.1145C69.0781 11.0472 69.064 10.975 69.0648 10.9021V4.3912C69.0615 4.31958 69.0745 4.24815 69.1028 4.18223C69.1311 4.11631 69.174 4.05761 69.2283 4.0105C69.2767 3.95742 69.336 3.91531 69.4022 3.887C69.4684 3.85869 69.5399 3.84484 69.6119 3.84638C69.6835 3.84644 69.7543 3.86102 69.82 3.88924C69.8858 3.91746 69.945 3.95872 69.9942 4.0105C70.0485 4.05761 70.0913 4.11631 70.1196 4.18223C70.148 4.24815 70.1609 4.31958 70.1577 4.3912V7.08165C71.3977 7.08165 72.0209 7.08524 72.0272 7.09242C72.5979 7.14162 73.1308 7.39714 73.5253 7.81077C73.9101 8.20353 74.1224 8.73243 74.1156 9.2811C74.1086 9.84609 73.8832 10.3866 73.4861 10.7903C73.0891 11.1939 72.5511 11.4296 71.984 11.4483L69.616 11.4469ZM70.1563 8.1686V10.3573H71.8948C72.0417 10.3633 72.1882 10.3395 72.3255 10.2872C72.4627 10.2349 72.5879 10.1553 72.6932 10.0533C72.9016 9.84823 73.023 9.57134 73.0322 9.27976C73.0245 8.98469 72.9031 8.7039 72.6932 8.49549C72.5898 8.3893 72.4656 8.30546 72.3282 8.24922C72.1909 8.19297 72.0433 8.16553 71.8948 8.1686H70.1563ZM74.4533 4.34815C74.4533 4.20544 74.5103 4.06857 74.6116 3.96766C74.7129 3.86675 74.8504 3.81006 74.9937 3.81006C75.1404 3.81369 75.2807 3.87062 75.3881 3.97014C75.4825 4.07567 75.5365 4.21093 75.5408 4.35219V10.9236C75.5427 10.9941 75.5301 11.0642 75.5039 11.1297C75.4776 11.1951 75.4382 11.2546 75.3881 11.3043C75.3389 11.3561 75.2797 11.3974 75.2139 11.4256C75.1482 11.4538 75.0774 11.4684 75.0058 11.4684C74.8641 11.4634 74.7296 11.4051 74.6293 11.3053C74.5291 11.2054 74.4705 11.0715 74.4655 10.9304L74.4533 4.34815Z" fill="#23283B"/>
<path d="M84.1997 3.82495C84.3414 3.82915 84.4769 3.88352 84.582 3.97831C84.6799 4.08713 84.7346 4.22772 84.736 4.3738C84.7318 4.51491 84.6772 4.64989 84.582 4.7545C84.4768 4.8489 84.3413 4.90281 84.1997 4.90651H82.5382V10.9237C82.5402 10.9943 82.5275 11.0645 82.501 11.13C82.4745 11.1955 82.4347 11.2549 82.3842 11.3044C82.3352 11.3565 82.276 11.3979 82.2102 11.4261C82.1444 11.4544 82.0735 11.4688 82.0019 11.4685C81.8602 11.4635 81.7257 11.4052 81.6254 11.3054C81.5251 11.2055 81.4666 11.0716 81.4616 10.9304V4.90248H79.8041C79.7333 4.90454 79.6628 4.89211 79.5971 4.86597C79.5313 4.83982 79.4717 4.80051 79.4218 4.75047C79.3703 4.70199 79.3293 4.6436 79.3012 4.57885C79.2731 4.5141 79.2585 4.44434 79.2583 4.3738C79.2575 4.30093 79.2716 4.22866 79.2997 4.16137C79.3278 4.09408 79.3693 4.03317 79.4218 3.98234C79.4716 3.93213 79.5312 3.89261 79.597 3.86623C79.6627 3.83986 79.7332 3.82718 79.8041 3.82899L84.1997 3.82495Z" fill="#23283B"/>
<path d="M88.1022 8.52914L85.8828 11.2505C85.8323 11.315 85.7678 11.3671 85.6941 11.403C85.6203 11.4389 85.5394 11.4576 85.4573 11.4577C85.3373 11.4566 85.2214 11.4143 85.1291 11.338C85.0724 11.2971 85.0247 11.2451 84.9889 11.1852C84.9531 11.1253 84.93 11.0587 84.921 10.9896C84.9091 10.9184 84.9128 10.8456 84.9316 10.7759C84.9505 10.7063 84.9842 10.6415 85.0304 10.586L87.4133 7.64667L85.0521 4.72887C85.0058 4.67339 84.972 4.60862 84.9531 4.53898C84.9343 4.46933 84.9307 4.39645 84.9426 4.32531C84.9602 4.18393 85.0333 4.05525 85.146 3.96749C85.2587 3.87974 85.4017 3.84006 85.5438 3.85717C85.6861 3.87781 85.8152 3.95194 85.9044 4.06433L88.1022 6.7642L90.2568 4.06433C90.3461 3.95194 90.4751 3.87781 90.6175 3.85717C90.7595 3.84006 90.9026 3.87974 91.0153 3.96749C91.1279 4.05525 91.2011 4.18393 91.2186 4.32531C91.2306 4.39645 91.227 4.46933 91.2081 4.53898C91.1893 4.60862 91.1555 4.67339 91.1092 4.72887L88.7912 7.64667L88.1022 8.52914Z" fill="#23283B"/>
<path d="M94.6836 3.84639C94.9668 3.85012 95.2464 3.91065 95.5057 4.02437C95.7649 4.13808 95.9985 4.30265 96.1925 4.50824C96.3929 4.70377 96.5514 4.93774 96.6584 5.19601C96.7655 5.45428 96.8188 5.73148 96.8152 6.01086C96.8189 6.28258 96.7686 6.55234 96.6673 6.80466C96.566 7.05698 96.4156 7.28689 96.2249 7.4812C95.8307 7.89453 95.2984 8.15003 94.7281 8.19955C94.72 8.20583 94.0968 8.20941 92.8586 8.21031V10.9008C92.8601 10.9723 92.8462 11.0433 92.8177 11.109C92.7893 11.1746 92.747 11.2335 92.6938 11.2815C92.6447 11.3334 92.5854 11.3747 92.5197 11.4029C92.4539 11.4312 92.3831 11.4457 92.3115 11.4456C92.17 11.4399 92.0358 11.3814 91.9357 11.2817C91.8355 11.182 91.7768 11.0484 91.7711 10.9075V4.39121C91.7705 4.31824 91.7848 4.24591 91.8131 4.17861C91.8415 4.11131 91.8832 4.05046 91.9359 3.99975C91.9857 3.9494 92.0453 3.9098 92.111 3.88341C92.1768 3.85703 92.2473 3.84442 92.3182 3.84639H94.6836ZM94.5971 7.12337C94.7455 7.12607 94.8928 7.09833 95.0299 7.04186C95.167 6.98539 95.291 6.9014 95.3941 6.79513C95.6045 6.58704 95.726 6.30605 95.7332 6.01086C95.7246 5.71913 95.6031 5.44199 95.3941 5.23736C95.289 5.13545 95.164 5.05594 95.027 5.00368C94.89 4.95141 94.7437 4.92747 94.5971 4.93334H92.8586V7.12337H94.5971Z" fill="#23283B"/>
<path d="M101.513 10.3573C101.655 10.3615 101.791 10.4159 101.896 10.5106C101.948 10.5615 101.99 10.6224 102.018 10.6897C102.046 10.757 102.06 10.8292 102.059 10.9021C102.061 10.9735 102.047 11.0445 102.019 11.1102C101.991 11.1759 101.949 11.2348 101.896 11.2828C101.847 11.3346 101.787 11.3758 101.722 11.4041C101.656 11.4323 101.585 11.4469 101.513 11.4469H97.7014C97.5599 11.4413 97.4257 11.3828 97.3256 11.2831C97.2254 11.1834 97.1667 11.0497 97.161 10.9088V4.39121C97.1604 4.31824 97.1747 4.24591 97.203 4.17861C97.2314 4.11131 97.2731 4.05046 97.3258 3.99975C97.3756 3.9494 97.4352 3.9098 97.5009 3.88341C97.5667 3.85703 97.6372 3.84442 97.7081 3.84639H101.513C101.655 3.85059 101.791 3.90496 101.896 3.99975C101.948 4.05057 101.99 4.11148 102.018 4.17877C102.046 4.24606 102.06 4.31834 102.059 4.39121C102.062 4.46322 102.05 4.53503 102.022 4.60169C101.995 4.66835 101.953 4.72827 101.9 4.77729C101.85 4.82859 101.79 4.86914 101.723 4.89644C101.657 4.92374 101.585 4.93721 101.513 4.93603H98.2444V7.12337H100.737C100.878 7.12756 101.014 7.18194 101.119 7.27672C101.172 7.32743 101.213 7.38829 101.242 7.45559C101.27 7.52288 101.284 7.59521 101.284 7.66818C101.285 7.73969 101.271 7.8107 101.243 7.87638C101.215 7.94206 101.172 8.00089 101.119 8.04888C101.07 8.10079 101.011 8.14213 100.945 8.17036C100.879 8.19859 100.808 8.2131 100.737 8.213H98.2485V10.3573H101.513Z" fill="#23283B"/>
<path d="M108.284 11.4578H103.269C103.198 11.4593 103.126 11.4454 103.06 11.417C102.995 11.3887 102.935 11.3467 102.887 11.2937C102.835 11.2448 102.794 11.1857 102.766 11.1202C102.738 11.0548 102.723 10.9842 102.724 10.913V4.40211C102.721 4.33051 102.734 4.25911 102.762 4.1932C102.79 4.1273 102.833 4.06859 102.887 4.02141C102.935 3.96844 102.995 3.92639 103.06 3.89808C103.126 3.86977 103.198 3.85586 103.269 3.85729C103.341 3.85717 103.412 3.87167 103.478 3.89989C103.544 3.92811 103.604 3.96946 103.653 4.02141C103.706 4.06922 103.748 4.12822 103.775 4.19409C103.802 4.25996 103.814 4.33104 103.81 4.40211V10.3682H107.187V4.40211C107.184 4.33051 107.197 4.25911 107.225 4.1932C107.253 4.1273 107.296 4.06859 107.35 4.02141C107.399 3.96834 107.458 3.92623 107.524 3.89792C107.59 3.86961 107.662 3.85575 107.734 3.85729C107.806 3.85735 107.876 3.87194 107.942 3.90015C108.008 3.92837 108.067 3.96963 108.116 4.02141C108.17 4.06859 108.213 4.1273 108.242 4.1932C108.27 4.25911 108.283 4.33051 108.28 4.40211V10.3682H108.838C108.983 10.3708 109.122 10.4252 109.231 10.5216C109.326 10.626 109.381 10.7611 109.385 10.9023V12.6874C109.387 12.758 109.374 12.8282 109.348 12.8937C109.321 12.9592 109.281 13.0186 109.231 13.0681C109.127 13.1723 108.985 13.2313 108.838 13.2322C108.764 13.2328 108.692 13.2186 108.624 13.1904C108.557 13.1621 108.495 13.1205 108.445 13.0681C108.391 13.0201 108.349 12.9612 108.321 12.8956C108.292 12.8299 108.278 12.7589 108.28 12.6874L108.284 11.4578Z" fill="#23283B"/>
<path d="M111.695 8.1473L111.019 8.85489V10.9454C111.021 11.016 111.009 11.0862 110.982 11.1517C110.956 11.2173 110.916 11.2766 110.865 11.3261C110.814 11.3785 110.753 11.4202 110.686 11.4484C110.618 11.4766 110.545 11.4908 110.472 11.4902C110.401 11.4903 110.33 11.4758 110.264 11.4476C110.198 11.4193 110.139 11.378 110.09 11.3261C110.039 11.2766 109.999 11.2173 109.973 11.1517C109.946 11.0862 109.934 11.016 109.936 10.9454V4.35376C109.94 4.21213 109.994 4.07649 110.089 3.97037C110.194 3.87628 110.329 3.82242 110.471 3.81836C110.616 3.82128 110.755 3.87512 110.864 3.97037C110.961 4.07876 111.015 4.21812 111.018 4.36318V7.30923L114.045 4.08068C114.087 4.02463 114.139 3.9775 114.199 3.94213C114.259 3.90676 114.326 3.88387 114.395 3.87486C114.466 3.86267 114.54 3.86611 114.61 3.88492C114.68 3.90374 114.745 3.93748 114.8 3.98382C114.857 4.02498 114.904 4.07705 114.94 4.13692C114.976 4.19679 114.999 4.26322 115.008 4.33224C115.02 4.40338 115.017 4.47628 114.998 4.54594C114.979 4.6156 114.945 4.68037 114.899 4.7358L112.455 7.36438L114.937 10.6077C114.986 10.6597 115.024 10.7216 115.047 10.7894C115.071 10.8572 115.079 10.9292 115.072 11.0005C115.062 11.0732 115.037 11.1431 115 11.2064C114.963 11.2696 114.913 11.3249 114.854 11.3691C114.758 11.4464 114.639 11.4887 114.515 11.4889C114.436 11.4901 114.357 11.473 114.285 11.439C114.213 11.4049 114.15 11.3548 114.101 11.2924L111.695 8.1473Z" fill="#23283B"/>
<path d="M119.119 11.447C118.618 11.4546 118.121 11.3577 117.659 11.1626C117.198 10.9676 116.783 10.6786 116.44 10.3144C116.084 9.9609 115.803 9.5398 115.613 9.07603C115.423 8.61226 115.329 8.11526 115.335 7.61449C115.331 7.12053 115.427 6.63084 115.617 6.17447C115.807 5.71809 116.087 5.30431 116.44 4.95766C116.791 4.60556 117.208 4.32608 117.668 4.13535C118.127 3.94463 118.62 3.84644 119.118 3.84644C119.616 3.84644 120.109 3.94463 120.569 4.13535C121.028 4.32608 121.446 4.60556 121.796 4.95766C122.15 5.30431 122.43 5.71809 122.619 6.17447C122.809 6.63084 122.905 7.12053 122.901 7.61449C122.908 8.11526 122.814 8.61226 122.624 9.07603C122.434 9.5398 122.153 9.9609 121.796 10.3144C121.454 10.6786 121.039 10.9675 120.578 11.1626C120.117 11.3576 119.62 11.4545 119.119 11.447ZM119.119 4.90251C118.397 4.90322 117.705 5.18917 117.194 5.69761C116.683 6.20606 116.396 6.89544 116.396 7.61449C116.387 7.97984 116.453 8.34316 116.59 8.68209C116.727 9.02102 116.933 9.32837 117.194 9.58525C117.445 9.83925 117.745 10.041 118.075 10.1786C118.406 10.3163 118.76 10.3872 119.118 10.3872C119.476 10.3872 119.831 10.3163 120.161 10.1786C120.492 10.041 120.791 9.83925 121.043 9.58525C121.302 9.32675 121.508 9.01936 121.647 8.68101C121.786 8.34266 121.856 7.98011 121.853 7.61449C121.856 7.25679 121.786 6.90218 121.647 6.5725C121.508 6.24282 121.302 5.94505 121.043 5.69754C120.793 5.4412 120.494 5.2384 120.163 5.10166C119.833 4.96493 119.477 4.89715 119.119 4.90251Z" fill="#23283B"/>
<path d="M124.595 4.94693V10.913C124.596 10.9859 124.582 11.0582 124.554 11.1255C124.526 11.1927 124.484 11.2536 124.432 11.3045C124.327 11.3993 124.191 11.4536 124.05 11.4578C123.979 11.4596 123.908 11.447 123.842 11.4206C123.777 11.3942 123.717 11.3547 123.667 11.3045C123.615 11.2536 123.573 11.1927 123.545 11.1255C123.517 11.0582 123.503 10.9859 123.504 10.913V4.40211C123.501 4.33051 123.514 4.25911 123.542 4.1932C123.57 4.1273 123.613 4.06859 123.667 4.02141C123.716 3.96834 123.775 3.92623 123.841 3.89792C123.907 3.86961 123.979 3.85575 124.051 3.85729H127.855C127.926 3.8572 127.997 3.87171 128.063 3.89993C128.129 3.92816 128.188 3.9695 128.237 4.02141C128.29 4.06916 128.332 4.12811 128.359 4.19397C128.387 4.25983 128.399 4.33094 128.395 4.40211C128.396 4.47531 128.382 4.54789 128.353 4.61543C128.325 4.68298 128.283 4.74405 128.23 4.79492C128.127 4.88755 127.994 4.94131 127.855 4.94693H124.595Z" fill="#23283B"/>
<path d="M132.456 11.4472C131.955 11.4547 131.458 11.3578 130.996 11.1627C130.535 10.9677 130.12 10.6787 129.777 10.3145C129.421 9.96095 129.14 9.53981 128.95 9.07603C128.761 8.61225 128.667 8.11528 128.673 7.6146C128.669 7.12073 128.765 6.63108 128.955 6.17469C129.144 5.71831 129.424 5.30449 129.777 4.95777C130.128 4.60563 130.545 4.32612 131.005 4.13538C131.465 3.94464 131.958 3.84644 132.456 3.84644C132.954 3.84644 133.447 3.94464 133.907 4.13538C134.366 4.32612 134.784 4.60563 135.135 4.95777C135.488 5.30442 135.768 5.7182 135.958 6.17458C136.147 6.63096 136.243 7.12064 136.239 7.6146C136.246 8.11537 136.152 8.61237 135.962 9.07614C135.772 9.53991 135.491 9.96101 135.135 10.3145C134.792 10.6787 134.377 10.9677 133.915 11.1627C133.454 11.3578 132.957 11.4547 132.456 11.4472ZM132.456 4.90262C131.734 4.90369 131.042 5.1898 130.532 5.6982C130.022 6.2066 129.735 6.89579 129.734 7.6146C129.725 7.97996 129.791 8.34328 129.928 8.6822C130.066 9.02113 130.271 9.32849 130.532 9.58536C130.784 9.83936 131.083 10.0411 131.413 10.1787C131.744 10.3164 132.098 10.3873 132.456 10.3873C132.815 10.3873 133.169 10.3164 133.499 10.1787C133.83 10.0411 134.129 9.83936 134.381 9.58536C134.64 9.32686 134.846 9.01947 134.985 8.68112C135.124 8.34277 135.194 7.98022 135.191 7.6146C135.195 7.25691 135.125 6.9023 134.985 6.57262C134.846 6.24294 134.64 5.94517 134.381 5.69765C134.131 5.44121 133.832 5.23836 133.501 5.10162C133.17 4.96488 132.814 4.89716 132.456 4.90262Z" fill="#23283B"/>
<path d="M144.68 3.86942C144.753 3.86863 144.825 3.88264 144.893 3.91063C144.961 3.93861 145.022 3.97996 145.073 4.03219C145.125 4.08114 145.166 4.14018 145.194 4.20566C145.222 4.27114 145.237 4.34167 145.236 4.41289V10.9238C145.238 10.9952 145.224 11.0662 145.196 11.1319C145.168 11.1976 145.126 11.2564 145.073 11.3045C144.97 11.4027 144.832 11.4576 144.69 11.4576C144.547 11.4576 144.41 11.4027 144.307 11.3045C144.254 11.2564 144.212 11.1976 144.183 11.1319C144.155 11.0662 144.142 10.9952 144.143 10.9238V8.23334H143.028L141.213 11.1928C141.166 11.275 141.097 11.3431 141.015 11.3903C140.932 11.4376 140.838 11.4623 140.743 11.4619C140.643 11.4665 140.544 11.4397 140.46 11.3852C140.396 11.3475 140.34 11.2971 140.297 11.2372C140.253 11.1773 140.223 11.109 140.207 11.0368C140.188 10.9687 140.185 10.8975 140.196 10.8278C140.207 10.7582 140.234 10.6918 140.273 10.6332L141.804 8.14993C141.341 7.99453 140.934 7.70679 140.634 7.32262C140.341 6.95417 140.183 6.49721 140.185 6.02716C140.188 5.73913 140.249 5.45459 140.365 5.19076C140.481 4.92694 140.65 4.68931 140.861 4.49226C141.056 4.29454 141.29 4.1378 141.547 4.03129C141.804 3.92478 142.08 3.87066 142.359 3.87211L144.68 3.86942ZM144.139 7.14639V4.95771H142.401C142.254 4.95184 142.107 4.97589 141.97 5.0284C141.833 5.08091 141.708 5.16076 141.602 5.26307C141.394 5.46753 141.273 5.74403 141.263 6.03523C141.271 6.3303 141.392 6.61109 141.602 6.8195C141.706 6.9257 141.83 7.00953 141.967 7.06577C142.105 7.12202 142.252 7.14946 142.401 7.14639H144.139Z" fill="#23283B"/>
<path d="M147.037 9.41034C147.057 9.55583 147.108 9.69558 147.185 9.82097C147.262 9.94637 147.363 10.0548 147.484 10.1395C147.739 10.3289 148.052 10.424 148.37 10.4085C148.692 10.4184 149.005 10.3053 149.245 10.0924C149.356 9.99823 149.444 9.88117 149.504 9.74941C149.565 9.61765 149.595 9.47438 149.594 9.32963C149.593 9.18067 149.562 9.03344 149.502 8.89696C149.442 8.76048 149.355 8.63763 149.245 8.53594C149.131 8.42143 148.995 8.33144 148.844 8.27152C148.693 8.2116 148.532 8.18302 148.37 8.18753C148.207 8.19146 148.048 8.13705 147.922 8.03417C147.869 7.98611 147.826 7.92724 147.798 7.86155C147.77 7.79586 147.756 7.72489 147.758 7.65347C147.757 7.5806 147.771 7.50833 147.8 7.44104C147.828 7.37374 147.869 7.31284 147.922 7.26201C148.048 7.15913 148.207 7.10472 148.37 7.10866C148.531 7.11481 148.692 7.08803 148.843 7.02996C148.993 6.9719 149.13 6.88377 149.245 6.771C149.356 6.66732 149.444 6.54221 149.504 6.40338C149.564 6.26456 149.594 6.11498 149.594 5.96387C149.595 5.81913 149.565 5.67588 149.504 5.54414C149.444 5.41239 149.356 5.29533 149.245 5.20112C149.005 4.98822 148.692 4.8751 148.37 4.88499C148.063 4.88757 147.763 4.97868 147.507 5.14731C147.279 5.27897 147.11 5.49347 147.037 5.74594C146.998 5.88872 146.914 6.01495 146.796 6.10511C146.736 6.15478 146.665 6.18878 146.589 6.20405C146.512 6.21932 146.433 6.21537 146.359 6.19255C145.988 6.12619 145.802 5.92261 145.801 5.58182C145.864 5.31893 145.978 5.07103 146.138 4.85239C146.297 4.63375 146.499 4.4487 146.73 4.30789C147.217 3.98711 147.791 3.82234 148.374 3.83572C149.005 3.82647 149.618 4.04321 150.102 4.44645C150.335 4.62669 150.523 4.85791 150.652 5.12221C150.781 5.38651 150.847 5.6768 150.845 5.97059C150.851 6.30186 150.774 6.62942 150.622 6.92386C150.469 7.2183 150.245 7.4704 149.971 7.65751C150.243 7.8442 150.465 8.0947 150.618 8.38698C150.77 8.67925 150.848 9.00435 150.845 9.33366C150.845 9.90852 150.597 10.4094 150.102 10.8363C149.627 11.2576 149.01 11.487 148.374 11.4793C147.758 11.4914 147.155 11.3024 146.657 10.9412C146.208 10.6132 145.903 10.1258 145.805 9.57984C145.805 9.23905 145.991 9.03233 146.363 8.95969C146.527 8.95867 146.687 9.00799 146.822 9.10094C146.88 9.13189 146.93 9.17608 146.967 9.22988C147.004 9.28367 147.028 9.34552 147.037 9.41034Z" fill="#23283B"/>
<path d="M152.035 11.4469C151.964 11.4489 151.893 11.4363 151.828 11.4099C151.762 11.3835 151.702 11.3439 151.653 11.2936C151.6 11.2427 151.559 11.1818 151.531 11.1145C151.502 11.0472 151.488 10.975 151.489 10.9021V4.3912C151.486 4.31958 151.499 4.24815 151.527 4.18223C151.555 4.11631 151.598 4.05761 151.653 4.0105C151.701 3.95746 151.76 3.91536 151.826 3.88704C151.892 3.85872 151.963 3.84486 152.035 3.84638C152.107 3.84626 152.178 3.86075 152.244 3.88897C152.31 3.9172 152.369 3.95855 152.419 4.0105C152.473 4.0578 152.515 4.11653 152.544 4.18241C152.572 4.24828 152.585 4.31962 152.582 4.3912V7.08165C153.821 7.08165 154.444 7.08524 154.452 7.09242C155.023 7.14086 155.557 7.39591 155.952 7.80942C156.337 8.20219 156.549 8.73108 156.543 9.27976C156.535 9.84464 156.31 10.385 155.913 10.7886C155.516 11.1922 154.978 11.4279 154.411 11.4469H152.035ZM152.575 8.1686V10.3573H154.314C154.461 10.3633 154.607 10.3395 154.744 10.2872C154.882 10.2349 155.007 10.1553 155.112 10.0533C155.321 9.8485 155.442 9.57134 155.45 9.27976C155.443 8.98473 155.322 8.70372 155.112 8.49549C155.009 8.3893 154.884 8.30546 154.747 8.24922C154.61 8.19298 154.462 8.16553 154.314 8.1686H152.575ZM156.872 4.34815C156.872 4.20544 156.929 4.06857 157.03 3.96766C157.132 3.86675 157.269 3.81006 157.413 3.81006C157.554 3.81426 157.69 3.86808 157.796 3.96207C157.891 4.0676 157.945 4.20286 157.949 4.34411V10.9236C157.951 10.9941 157.938 11.0642 157.912 11.1297C157.886 11.1951 157.846 11.2546 157.796 11.3043C157.747 11.3563 157.687 11.3976 157.621 11.4258C157.555 11.4541 157.484 11.4686 157.413 11.4684C157.271 11.4634 157.136 11.4051 157.036 11.3053C156.936 11.2054 156.877 11.0715 156.872 10.9304V4.34815Z" fill="#23283B"/>
<path d="M160.444 8.1472L159.768 8.85479V10.9453C159.77 11.0157 159.758 11.0859 159.732 11.1513C159.705 11.2168 159.666 11.2762 159.616 11.326C159.565 11.3784 159.504 11.42 159.436 11.4483C159.369 11.4765 159.296 11.4907 159.223 11.4901C159.151 11.4902 159.08 11.4757 159.014 11.4475C158.948 11.4193 158.888 11.3779 158.839 11.326C158.789 11.2762 158.749 11.2168 158.723 11.1513C158.697 11.0859 158.684 11.0157 158.686 10.9453V4.35366C158.689 4.20886 158.743 4.06968 158.839 3.96085C158.945 3.86666 159.081 3.81281 159.223 3.80884C159.368 3.81499 159.506 3.87218 159.613 3.97027C159.709 4.07909 159.763 4.21828 159.766 4.36307V7.30912L162.794 4.08057C162.836 4.02453 162.888 3.9774 162.948 3.94203C163.008 3.90665 163.075 3.88377 163.144 3.87475C163.216 3.86238 163.289 3.86573 163.359 3.88455C163.429 3.90337 163.494 3.93722 163.549 3.98372C163.606 4.02448 163.654 4.07645 163.69 4.13639C163.726 4.19633 163.749 4.26296 163.757 4.33213C163.769 4.40328 163.766 4.47618 163.747 4.54584C163.728 4.6155 163.694 4.68026 163.648 4.7357L161.199 7.36024L163.682 10.6036C163.731 10.6559 163.768 10.7179 163.791 10.7856C163.815 10.8533 163.823 10.9251 163.817 10.9964C163.798 11.1418 163.723 11.2743 163.609 11.3663C163.513 11.4436 163.393 11.4859 163.27 11.4861C163.19 11.4873 163.111 11.4703 163.039 11.4362C162.967 11.4021 162.903 11.352 162.854 11.2897L160.444 8.1472Z" fill="#23283B"/>
<path d="M168.163 9.94434H165.495L165.035 11.0542C164.984 11.3151 164.81 11.447 164.511 11.447H164.39C164.315 11.4189 164.247 11.3766 164.189 11.3224C164.131 11.2681 164.085 11.203 164.052 11.1308C163.979 11.0515 163.96 10.9169 163.997 10.7273L166.336 4.23922C166.364 4.1201 166.434 4.01488 166.533 3.94278C166.632 3.87067 166.754 3.83647 166.877 3.84642C166.995 3.83833 167.113 3.87378 167.208 3.94612C167.302 4.01846 167.367 4.12269 167.39 4.23922L169.609 10.7273C169.661 10.8569 169.661 11.0012 169.609 11.1308C169.545 11.2743 169.427 11.3875 169.281 11.447C169.143 11.4714 169.002 11.4521 168.876 11.3918C168.735 11.3176 168.623 11.1988 168.558 11.0542L168.163 9.94434ZM167.84 8.84394L166.878 6.05663L165.893 8.84394H167.84Z" fill="#23283B"/>
<path d="M53.5883 15.4842C54.3988 13.6627 57.1505 13.7354 57.9204 15.5541C60.333 20.6512 62.1607 26.0119 64.4639 31.1588C65.9026 31.4453 68.407 31.5301 68.2287 33.6138C68.4989 35.1326 66.9994 36.4388 65.527 36.2088C59.043 36.2478 52.5508 36.3177 46.0627 36.2168C44.1716 36.4267 42.8423 34.4425 43.4421 32.7381C44.1337 31.3216 45.8453 31.5153 47.1286 31.1655C49.4101 25.9958 51.177 20.5974 53.5883 15.4842ZM52.4779 31.4036C54.6798 31.3955 56.8812 31.3955 59.0822 31.4036C58.0168 28.5921 56.9433 25.7828 55.8617 22.9758C54.5609 25.7093 53.5261 28.5611 52.4779 31.4036Z" fill="#B20932"/>
<path d="M69.7686 16.1688C69.8146 14.9312 70.8628 13.9787 72.0246 14.0272C72.5581 14.0597 73.0617 14.2839 73.4419 14.6582C73.822 15.0325 74.0528 15.5315 74.0913 16.0625C74.0805 20.1421 74.0688 24.2226 74.0562 28.3041C76.1815 25.8342 78.3141 23.3137 80.4538 20.7425C81.9577 18.931 83.4392 17.1284 84.8981 15.3347C85.1348 15.0105 85.4412 14.743 85.795 14.5518C86.5123 14.1657 87.5444 14.042 88.1928 14.4872C88.9709 15.0253 89.0222 16.1836 89.0384 16.7069C89.1127 19.1 89.1276 25.6943 89.0141 34.5634C88.6305 35.7526 87.4809 36.5005 86.3124 36.3714C85.8064 36.3061 85.3314 36.092 84.9481 35.7565C84.5648 35.4211 84.2906 34.9795 84.1605 34.4881C84.1119 30.9394 84.0637 27.3902 84.016 23.8406L78.0088 30.2385C76.3756 32.099 74.9451 33.6487 73.7942 34.8876C73.5321 35.1701 72.8026 35.9221 71.8125 36.0983C71.5828 36.14 70.8399 36.2718 70.2941 35.8575C70.2382 35.8185 70.185 35.7758 70.1347 35.7297C69.7038 35.3262 69.6741 34.741 69.6606 34.5029C69.6214 33.7912 69.6511 26.3548 69.7686 16.1688Z" fill="#B20932"/>
<path d="M96.7395 16.6531C97.4393 14.8492 99.2602 13.1757 101.332 13.8726C103.629 14.8869 104.169 17.5598 105.058 19.657C106.653 24.3438 108.84 28.8449 110.091 33.6474C110.596 35.5388 108.335 36.8477 106.714 36.1576C105.22 35.2052 105.034 33.3071 104.403 31.8044C101.688 31.7964 98.9806 31.8044 96.2735 31.7816C95.7683 33.0286 95.3874 34.3537 94.6525 35.4917C93.6178 36.7697 91.2997 36.615 90.5527 35.1124C90.3109 32.9425 91.3456 30.9287 92.0535 28.9458C93.6785 24.8658 95.0294 20.6902 96.7395 16.6531ZM97.5717 27.2428C99.3845 27.2428 101.2 27.2401 103.017 27.2347C102.071 24.5241 101.236 21.7812 100.396 19.0382C99.3764 21.7435 98.4983 24.4931 97.5717 27.2428Z" fill="#B20932"/>
<path d="M117.625 17.6364C117.98 16.5871 118.857 13.9962 120.439 13.7931C120.718 13.762 121.001 13.7951 121.265 13.8899C123.057 14.4684 123.783 16.9476 123.913 17.4131L130.369 33.6352C130.471 34.1857 130.378 34.7546 130.103 35.2433C129.829 35.7321 129.392 36.1099 128.867 36.3113C128.343 36.5127 127.764 36.525 127.231 36.3461C126.698 36.1671 126.245 35.8082 125.95 35.3315L120.925 22.9554L116.602 34.4988C116.258 35.6194 115.387 36.4252 114.367 36.5449C114.174 36.5678 112.977 36.6794 112.326 35.7714C111.735 34.9427 112.084 33.958 112.119 33.8612C114.553 26.5525 116.508 20.9053 117.625 17.6364Z" fill="#B20932"/>
<path d="M138.111 14.6165C142.085 13.1825 147.048 13.6398 150.168 16.6841C153.863 20.3337 154.127 26.3697 152.238 30.9435C148.996 38.4351 136.703 38.6207 133.038 31.417C130.176 25.7402 131.567 17.0648 138.111 14.6165ZM139.713 19.1714C136.523 21.4879 136.236 26.3011 137.985 29.5835C139.634 32.7676 144.723 33.0232 146.714 30.0718C148.558 27.3289 148.558 23.4936 146.869 20.674C145.469 18.2957 141.969 17.7145 139.713 19.1714Z" fill="#B20932"/>
<path d="M156.787 14.6931L168.121 14.5586C169.257 14.8922 170.019 15.9038 170 16.9423C169.977 18.227 168.784 19.3826 167.276 19.3315L159.79 19.3449L159.697 34.4115C159.63 35.0016 159.348 35.5467 158.904 35.943C158.46 36.3394 157.885 36.5594 157.288 36.5612C156.692 36.5631 156.116 36.3466 155.669 35.9529C155.223 35.5593 154.937 35.016 154.866 34.4263C154.825 29.2588 154.784 24.0918 154.742 18.9252C154.707 18.7355 154.321 16.3975 155.802 15.207C156.093 14.9718 156.428 14.7971 156.787 14.6931Z" fill="#B20932"/>
<path d="M25.977 14.9796C29.8534 14.9796 32.9959 11.8502 32.9959 7.98981C32.9959 4.12944 29.8534 1 25.977 1C22.1005 1 18.958 4.12944 18.958 7.98981C18.958 11.8502 22.1005 14.9796 25.977 14.9796Z" stroke="#23283B" stroke-width="0.83" stroke-miterlimit="10"/>
<path d="M29.4433 10.1179C28.5092 10.9211 27.3221 11.373 26.0882 11.3951C24.8543 11.4173 23.6516 11.0082 22.6891 10.239" stroke="#23283B" stroke-width="0.83" stroke-miterlimit="10" stroke-linecap="round"/>
<path d="M23.671 6.40926C23.671 6.56281 23.5454 6.69084 23.3862 6.69084C23.2269 6.69084 23.1013 6.56281 23.1013 6.40926C23.1013 6.25571 23.2269 6.12769 23.3862 6.12769C23.5454 6.12769 23.671 6.25571 23.671 6.40926Z" fill="#23283B" stroke="#23283B"/>
<path d="M29.1852 6.40926C29.1852 6.56282 29.0596 6.69084 28.9003 6.69084C28.741 6.69084 28.6155 6.56281 28.6155 6.40926C28.6155 6.25571 28.741 6.12769 28.9003 6.12769C29.0596 6.12769 29.1852 6.25571 29.1852 6.40926Z" fill="#23283B" stroke="#23283B"/>
<path d="M10.6923 18.3131C14.5688 18.3131 17.7113 15.1837 17.7113 11.3233C17.7113 7.46294 14.5688 4.3335 10.6923 4.3335C6.81584 4.3335 3.67334 7.46294 3.67334 11.3233C3.67334 15.1837 6.81584 18.3131 10.6923 18.3131Z" stroke="#23283B" stroke-width="0.83" stroke-miterlimit="10"/>
<path d="M14.16 13.4529C13.2254 14.2551 12.0383 14.7063 10.8046 14.7282C9.5709 14.7501 8.36843 14.3412 7.40576 13.5726" stroke="#23283B" stroke-width="0.83" stroke-miterlimit="10" stroke-linecap="round"/>
<path d="M8.38621 9.74252C8.38621 9.89607 8.26064 10.0241 8.10137 10.0241C7.94209 10.0241 7.81653 9.89607 7.81653 9.74252C7.81653 9.58897 7.94209 9.46094 8.10137 9.46094C8.26064 9.46094 8.38621 9.58896 8.38621 9.74252Z" fill="#23283B" stroke="#23283B"/>
<path d="M13.9004 9.74252C13.9004 9.89607 13.7748 10.0241 13.6155 10.0241C13.4563 10.0241 13.3307 9.89607 13.3307 9.74252C13.3307 9.58896 13.4563 9.46094 13.6155 9.46094C13.7748 9.46094 13.9004 9.58896 13.9004 9.74252Z" fill="#23283B" stroke="#23283B"/>
<path d="M35.6707 27.2306C35.6707 21.691 30.9212 16.9733 30.1079 15.9065C29.0273 17.2423 26.9321 17.5208 25.9771 17.5719C25.022 17.5167 22.9269 17.2423 21.8476 15.9065C21.037 16.9733 16.2848 21.691 16.2848 27.2306C16.2848 31.2569 18.6663 35.637 25.48 36.0244V36.0553C25.6502 36.0553 25.8136 36.0553 25.9771 36.0459C26.1405 36.0365 26.3053 36.0553 26.4742 36.0553V36.0244C33.2959 35.637 35.6707 31.2569 35.6707 27.2306Z" fill="white"/>
<path d="M35.6707 27.279C35.6707 25.4549 35.3532 24.3087 34.6332 22.7631C33.1662 19.6166 18.5582 19.9179 17.0912 22.8384C16.2591 24.493 16.2807 25.2746 16.2807 27.2777C16.2807 31.3039 18.6622 35.6827 25.4759 36.0714V36.1024C25.6461 36.1024 25.8095 36.1024 25.973 36.093C26.1364 36.0835 26.3012 36.1024 26.4701 36.1024V36.0714C33.2959 35.684 35.6707 31.3053 35.6707 27.279Z" fill="#0252FF"/>
<path d="M16.3362 28.3082C17.3399 31.573 19.2445 35.7177 25.48 36.0728V36.1038C25.6502 36.1038 25.8137 36.1038 25.9771 36.0943C26.1406 36.0849 26.3054 36.1038 26.4742 36.1038V36.0728C32.707 35.7177 35.5668 31.0175 35.6181 28.9028C33.5297 26.3199 21.0195 26.3199 16.3362 28.3082Z" fill="#B20932"/>
<path opacity="0.33" d="M26.0608 33.6865C21.9138 33.2721 18.8501 29.9763 19.2188 26.3267C18.4435 26.1922 18.1179 26.7989 17.7127 26.9307C17.3439 30.5803 20.4143 33.8761 24.5547 34.2905C26.1605 34.4607 27.7811 34.1541 29.2124 33.4093C28.1891 33.7005 27.1195 33.7945 26.0608 33.6865Z" fill="white"/>
<path d="M35.6707 27.2306C35.6707 21.691 30.9212 16.9733 30.1079 15.9065C29.0273 17.2423 26.9321 17.5208 25.9771 17.5719C25.022 17.5167 22.9269 17.2423 21.8476 15.9065C21.037 16.9733 16.2848 21.691 16.2848 27.2306C16.2848 31.2569 18.6663 35.637 25.48 36.0244V36.0553C25.6502 36.0553 25.8136 36.0553 25.9771 36.0459C26.1405 36.0365 26.3053 36.0553 26.4742 36.0553V36.0244C33.2959 35.637 35.6707 31.2569 35.6707 27.2306Z" stroke="#23283B" stroke-width="0.83" stroke-linejoin="round"/>
<path d="M20.3859 30.1767C20.3859 24.637 15.6364 19.9193 14.8232 18.8525C13.7425 20.1884 11.6473 20.4668 10.6923 20.5166C9.73724 20.4628 7.64209 20.1884 6.56276 18.8525C5.75226 19.9193 1 24.637 1 30.1767C1 34.2016 3.38153 38.5817 10.1965 38.9691V39C10.3654 39 10.5288 39 10.6923 38.9906C10.8557 38.9812 11.0205 39 11.1894 39V38.9691C18.0044 38.5817 20.3859 34.2016 20.3859 30.1767Z" fill="#B20932" stroke="#23283B" stroke-width="0.83" stroke-linejoin="round"/>
<path fill-rule="evenodd" clip-rule="evenodd" d="M10.9989 28.3135L11.6217 29.1394L12.6024 28.8058L12.0053 29.6506L12.628 30.4766L11.6365 30.1726L11.0395 31.0174L11.0246 29.9842L10.0331 29.6802L11.0151 29.3466L10.9989 28.3135Z" fill="white"/>
<path d="M10.1141 33.4778C9.11743 33.4778 8.16156 33.0835 7.45679 32.3817C6.75202 31.6798 6.35608 30.7279 6.35608 29.7354C6.35608 28.7428 6.75202 27.7909 7.45679 27.0891C8.16156 26.3872 9.11743 25.993 10.1141 25.993C10.5227 25.9932 10.9284 26.0605 11.315 26.192C10.6107 25.7438 9.79266 25.5047 8.95677 25.5027C8.12087 25.5007 7.30173 25.736 6.59529 26.181C5.88884 26.626 5.32435 27.2622 4.96795 28.0152C4.61154 28.7681 4.47797 29.6067 4.58288 30.4325C4.68779 31.2583 5.02685 32.0373 5.56032 32.6782C6.0938 33.319 6.79961 33.7952 7.59507 34.051C8.39054 34.3067 9.24271 34.3314 10.0518 34.1222C10.8609 33.913 11.5933 33.4786 12.1634 32.8698C11.554 33.2663 10.842 33.4775 10.1141 33.4778Z" fill="white"/>
</svg>
