<svg width="68" height="68" viewBox="0 0 68 68" fill="none" xmlns="http://www.w3.org/2000/svg">
<g clip-path="url(#clip0_17_205)">
<path d="M52.2001 54.3411C63.6835 42.557 63.6835 23.4513 52.2001 11.6672C40.7167 -0.116841 22.0984 -0.116841 10.615 11.6672C-0.868465 23.4513 -0.868465 42.557 10.615 54.3411C22.0984 66.1251 40.7167 66.1251 52.2001 54.3411Z" fill="#FFD6E6"/>
<g clip-path="url(#clip1_17_205)">
<path d="M21.8512 52.8791C21.8512 52.8791 20.2504 49.7038 16.2486 49.2069C12.2468 48.7101 9.37885 50.6326 7.35571 49.5958C7.35571 49.5958 9.51225 53.2031 12.8916 54.2184C16.2709 55.2336 17.5159 55.1256 20.1838 54.456C22.8961 53.7864 21.8512 52.8791 21.8512 52.8791Z" fill="white"/>
<path d="M21.8512 52.8792L22.1847 52.728C22.1624 52.7064 21.8512 52.0584 21.1175 51.3024C20.206 50.3303 18.6275 49.1638 16.2931 48.8614C14.2255 48.6022 12.4469 48.9694 10.9796 49.2503C10.2459 49.4015 9.57893 49.5095 9.00089 49.5311C8.42285 49.5527 7.93374 49.4879 7.51133 49.2719C7.3557 49.2071 7.17785 49.2287 7.06668 49.3367C6.95552 49.4447 6.93329 49.6391 7.02222 49.7687C7.02222 49.7903 7.60026 50.7191 8.60071 51.7992C9.57893 52.836 11.0018 54.0241 12.7804 54.5641C14.4923 55.0825 15.6928 55.3202 16.8044 55.3418C17.916 55.3634 18.9387 55.1473 20.2949 54.8233C21.1842 54.6073 21.6955 54.3481 22.029 54.0673C22.1847 53.9377 22.2958 53.7865 22.3403 53.6353C22.4292 53.3977 22.407 53.16 22.3403 53.0088C22.2736 52.836 22.1847 52.7496 22.1402 52.6848C22.118 52.6632 22.0957 52.6416 22.0957 52.6416L21.8512 52.8792L22.1847 52.728L21.8512 52.8792L21.6066 53.1384L21.74 53.0088L21.6066 53.1384L21.74 53.0088L21.6066 53.1384C21.6288 53.16 21.6733 53.2248 21.6733 53.2681V53.3545C21.6511 53.3977 21.6288 53.4409 21.5399 53.5057C21.3621 53.6569 20.9396 53.8945 20.117 54.0889C18.7831 54.4129 17.8494 54.6073 16.8267 54.5857C15.804 54.5641 14.6924 54.3481 13.0027 53.8513C11.4242 53.3761 10.0903 52.296 9.15652 51.3024C8.68964 50.8055 8.31169 50.3087 8.04491 49.9631C7.91151 49.7903 7.82258 49.6391 7.75589 49.5527C7.73365 49.5095 7.68919 49.4663 7.68919 49.4447L7.66696 49.4231L7.3557 49.5959L7.17785 49.9199C7.75589 50.2223 8.40062 50.2871 9.04536 50.2655C10.0236 50.2223 11.0907 49.9631 12.269 49.7471C13.4474 49.5311 14.7368 49.4015 16.1819 49.5743C18.3162 49.8335 19.7169 50.8919 20.5395 51.7776C20.8729 52.1232 21.0953 52.4472 21.2509 52.6848C21.3176 52.7928 21.3843 52.9008 21.4288 52.9656C21.451 52.9872 21.451 53.0304 21.4732 53.0304V53.052C21.4955 53.0952 21.5177 53.1384 21.5621 53.16L21.8512 52.8792Z" fill="#9B2C60"/>
<path d="M13.7141 52.0801C13.9142 52.0585 15.5594 51.9937 17.4714 52.2313C18.4274 52.3609 19.4278 52.5553 20.3394 52.9009C21.2509 53.2249 22.0735 53.7002 22.6515 54.305C22.7849 54.4562 23.0295 54.4562 23.1851 54.3266C23.3407 54.197 23.3407 53.9594 23.2073 53.8082C22.4959 53.0521 21.5399 52.5553 20.5172 52.1881C18.9832 51.6481 17.2713 51.4321 15.9596 51.3673C14.6479 51.3024 13.6919 51.3456 13.6919 51.3456C13.4918 51.3673 13.3362 51.5401 13.3362 51.7345C13.3362 51.9505 13.514 52.1017 13.7141 52.0801Z" fill="#9B2C60"/>
<path d="M29.01 55.3634C29.01 55.3634 33.2563 55.709 34.4346 59.446C35.6352 63.183 35.3906 65.6239 36.7913 67.3736C36.7913 67.3736 33.2563 68.756 30.6774 65.2351C28.632 62.4269 27.4759 59.878 27.676 57.1995C27.8761 54.521 29.01 55.3634 29.01 55.3634Z" fill="white"/>
<path d="M29.0099 55.3633L28.9877 55.7305C29.0322 55.7305 29.6547 55.7954 30.4328 56.0762C31.2109 56.3354 32.1892 56.8106 32.9451 57.6314C33.4119 58.1283 33.8121 58.7547 34.0789 59.5755C34.657 61.4116 34.9015 62.9453 35.1683 64.2413C35.3017 64.8894 35.4351 65.4942 35.6574 66.0558C35.8575 66.6174 36.1243 67.1359 36.5022 67.6111L36.7913 67.3951L36.6579 67.0495L36.6801 67.1359L36.6579 67.0495L36.6801 67.1359L36.6579 67.0495C36.6356 67.0495 35.9242 67.3303 34.9237 67.2871C33.9233 67.2439 32.6783 66.9199 31.5222 65.6886C31.3443 65.4942 31.1665 65.2782 30.9886 65.0406C29.9659 63.6581 29.1878 62.3405 28.6765 61.0444C28.1651 59.7699 27.9428 58.5171 28.054 57.2426C28.0984 56.7242 28.1651 56.357 28.254 56.0978C28.343 55.8386 28.4319 55.7305 28.4986 55.6657C28.5431 55.6225 28.5653 55.6225 28.5875 55.6225C28.6098 55.6225 28.6765 55.6225 28.7209 55.6441L28.7654 55.6657L28.8321 55.5577L28.7654 55.6657L28.8321 55.5577L28.7654 55.6657C28.8321 55.7089 28.8988 55.7305 28.9655 55.7305L29.0099 55.3633L29.2323 55.0825C29.21 55.0609 29.0766 54.9745 28.8543 54.9097C28.7432 54.8881 28.6098 54.8665 28.4541 54.9097C28.2985 54.9313 28.1429 55.0177 28.0095 55.1473C27.8316 55.3201 27.676 55.5577 27.5648 55.8818C27.4537 56.2058 27.3648 56.6378 27.3203 57.1994C27.2091 58.6035 27.4537 59.9643 28.0095 61.3252C28.5431 62.6861 29.3657 64.0469 30.4106 65.4726C30.6107 65.7318 30.8108 65.9694 31.0109 66.1854C32.3226 67.5895 33.8344 67.9783 34.9682 68.0215C36.1243 68.0647 36.9246 67.7407 36.9469 67.7407C37.058 67.6975 37.147 67.6111 37.1692 67.5031C37.1914 67.3951 37.1692 67.2871 37.1025 67.1791C36.7913 66.7687 36.5467 66.3366 36.3688 65.8182C35.813 64.3061 35.7019 62.1892 34.8126 59.3595C34.5236 58.4523 34.0567 57.7178 33.5231 57.1562C32.6116 56.1842 31.5 55.6657 30.6329 55.3849C29.7436 55.1041 29.0989 55.0393 29.0766 55.0393L29.0099 55.3633L29.2323 55.0825L29.0099 55.3633Z" fill="#9B2C60"/>
<path d="M33.0785 63.2694C33.0785 63.2694 32.7228 62.0813 32.0336 60.5476C31.3444 59.014 30.2995 57.1131 28.8988 55.6442C28.4764 55.2122 28.0318 54.8018 27.5649 54.4562C27.4093 54.3481 27.1647 54.3697 27.0535 54.5426C26.9424 54.6938 26.9646 54.9314 27.1425 55.0394C27.5649 55.3418 27.9873 55.709 28.3652 56.1194C29.677 57.5019 30.6774 59.338 31.3666 60.8285C31.7001 61.5845 31.9669 62.2325 32.1225 62.7077C32.2114 62.9454 32.2781 63.1398 32.3226 63.2694C32.3448 63.3342 32.3671 63.3774 32.3671 63.4206L32.3893 63.4638C32.456 63.6582 32.6561 63.7662 32.8562 63.7014C33.034 63.6582 33.1452 63.4638 33.0785 63.2694Z" fill="#9B2C60"/>
<path d="M35.2128 57.826C35.3684 58.1716 35.613 58.5388 35.9687 58.9708L36.0354 59.0572L36.0576 59.1652C36.1465 59.5324 36.2799 59.9213 36.4578 60.3317C37.147 61.8221 38.392 63.2262 39.3925 64.3279C39.8816 64.8463 40.2151 65.2351 40.4374 65.5591C41.3934 66.8552 43.7945 67.4168 45.7954 66.812C46.3956 66.6176 48.0186 65.5159 49.2191 64.6087L49.3303 64.5223L49.4637 64.5007C50.0417 64.4143 52.0649 63.9607 53.3099 61.995C54.6216 59.9429 53.8435 57.9988 53.6656 57.61L53.4655 57.2427L53.7101 56.9835C53.9991 56.7027 54.2214 56.3787 54.3548 56.0763C54.8439 54.9314 54.7772 53.2033 54.7327 52.0585V51.8857C54.7327 51.6913 54.7105 51.5185 54.7105 51.3673C54.7105 51.1297 54.7105 50.8056 54.7327 50.46C54.7772 49.3584 54.8439 47.9975 54.4215 47.0687C54.3548 46.8959 54.2659 46.7662 54.1547 46.6366C53.4655 45.7726 52.176 45.4486 51.6647 45.3622L51.3534 45.2974L51.2645 45.0166C51.1978 44.8222 51.1311 44.6277 51.0422 44.4333C50.5308 43.3317 49.4637 42.0788 48.3076 41.9708C47.7963 41.9276 47.0404 42.0788 46.1511 42.446L44.995 42.9213L45.4841 41.798C45.5063 41.7332 45.5508 41.6684 45.573 41.6036C44.0168 41.5172 41.0377 41.6252 39.7704 42.5324C38.2808 43.6125 36.1021 47.5439 36.191 49.5096V49.704L36.0576 49.8552C35.7019 50.244 35.3684 50.7192 34.9905 51.2809C34.7681 51.6265 34.7014 51.9721 34.8126 52.3393L34.8348 52.4257V52.5121C34.6792 53.873 34.6125 55.8171 35.1016 57.4155C35.1016 57.5667 35.1461 57.6964 35.2128 57.826Z" fill="white"/>
<path d="M34.9682 51.3022C34.9682 51.3022 40.7486 54.0024 41.7935 57.3505C42.8607 60.6987 41.4601 63.5068 41.4601 63.5068C41.4601 63.5068 35.8353 60.0507 35.0572 57.4585C34.2568 54.8232 34.9682 51.3022 34.9682 51.3022Z" fill="white"/>
<path d="M34.9682 51.3025L34.8126 51.6265L34.8571 51.6481C35.0349 51.7345 35.8575 52.1449 36.8802 52.7929C37.9029 53.441 39.1257 54.305 40.0594 55.2987C40.7042 55.9899 41.2155 56.7243 41.4601 57.4804C41.9714 59.0788 41.8825 60.5477 41.6824 61.6277C41.5712 62.1678 41.4378 62.5998 41.3267 62.9022C41.2822 63.0534 41.2155 63.1614 41.1933 63.2478C41.1711 63.291 41.1711 63.3126 41.1488 63.3342V63.3558L41.4823 63.507L41.6824 63.2046C41.6824 63.2046 41.6379 63.183 41.549 63.1182C40.9487 62.7294 38.392 61.0661 36.7691 59.338C36.1021 58.6468 35.613 57.934 35.4351 57.3507C35.0572 56.1195 35.0349 54.6074 35.1016 53.4194C35.1461 52.8361 35.2128 52.3177 35.2573 51.9505C35.2795 51.7777 35.3017 51.6265 35.324 51.5185C35.324 51.4753 35.3462 51.4321 35.3462 51.4105V51.3673L34.9682 51.3025L34.8126 51.6265L34.9682 51.3025L34.6125 51.2377C34.6125 51.2377 34.4347 52.1449 34.3457 53.3762C34.2568 54.6074 34.279 56.1843 34.7015 57.5452C34.946 58.3228 35.5018 59.0788 36.191 59.8133C37.1692 60.8717 38.4365 61.8438 39.4592 62.5782C40.4819 63.3126 41.26 63.7878 41.26 63.7878C41.3489 63.8527 41.4601 63.8527 41.5712 63.8311C41.6824 63.8095 41.7491 63.7231 41.7936 63.6366C41.7936 63.615 42.1715 62.8806 42.3938 61.7358C42.6162 60.5693 42.7051 58.9708 42.1493 57.2427C41.8603 56.3571 41.2822 55.5363 40.593 54.7802C39.5259 53.6354 38.1697 52.7065 37.0581 52.0369C35.9687 51.3673 35.1239 50.9784 35.1239 50.9784C35.0127 50.9352 34.9015 50.9352 34.7904 50.9784C34.6792 51.0216 34.6125 51.1297 34.5903 51.2377L34.9682 51.3025Z" fill="#9B2C60"/>
<path d="M50.2641 47.0686C49.3081 45.5997 45.1062 46.4853 41.6602 47.1118C38.2142 47.7382 36.7024 48.6454 34.9683 51.3024C33.2341 53.9377 41.7936 57.3506 41.7936 57.3506C41.7936 57.3506 46.8181 60.7204 47.7963 58.7547C48.7745 56.7674 48.152 54.2401 48.6411 52.4256C49.1302 50.6111 51.1978 48.5374 50.2641 47.0686Z" fill="white"/>
<path d="M41.5934 57.6531C41.5934 57.6531 42.7051 58.4092 44.0168 58.9924C44.6615 59.2948 45.3729 59.554 46.0177 59.662C46.3512 59.7268 46.6624 59.7268 46.9737 59.6836C47.2849 59.6404 47.5739 59.5324 47.8185 59.3164C47.9519 59.2084 48.063 59.0572 48.152 58.8844C48.6855 57.8043 48.7745 56.6379 48.7967 55.5146C48.8189 54.3914 48.7967 53.3329 49.019 52.4905C49.1302 52.08 49.3303 51.6264 49.5748 51.1728C49.9306 50.4816 50.3752 49.7471 50.642 49.0343C50.7754 48.6671 50.8643 48.2999 50.8643 47.9326C50.8643 47.5654 50.7754 47.1982 50.5531 46.8526C50.5086 46.7662 50.4419 46.7014 50.3752 46.6366C50.1973 46.4422 49.9528 46.291 49.686 46.183C49.2191 45.9886 48.6633 45.9238 48.063 45.9022C47.1293 45.8806 46.0621 45.9886 44.9505 46.1614C43.8389 46.3342 42.6606 46.5502 41.5712 46.7446C40.4151 46.9606 39.4814 47.1982 38.6588 47.5222C37.8362 47.8462 37.1247 48.2783 36.5022 48.8399C35.8353 49.4231 35.2572 50.1576 34.657 51.0864C34.5013 51.324 34.4124 51.5616 34.3902 51.7992C34.3457 52.1665 34.4124 52.5337 34.5903 52.8793C34.7459 53.2249 34.9904 53.5489 35.2795 53.8513C36.2577 54.8882 37.8584 55.8386 39.1923 56.5299C40.5485 57.2211 41.6601 57.6531 41.6601 57.6747C41.8602 57.7611 42.0603 57.6531 42.1492 57.4803C42.2382 57.2859 42.127 57.0915 41.9492 57.0051L41.9047 56.9835C41.6601 56.8971 40.5485 56.4219 39.3035 55.7738C38.0585 55.1258 36.6356 54.2402 35.8353 53.3761C35.5018 53.0089 35.2572 52.6633 35.1683 52.3393C35.1238 52.1881 35.1016 52.0368 35.1238 51.9072C35.1461 51.7776 35.1905 51.6264 35.2795 51.4752C35.8575 50.5896 36.4133 49.8983 37.0136 49.3799C37.5916 48.8831 38.1919 48.4943 38.9478 48.1919C39.7037 47.8894 40.593 47.6518 41.7268 47.4574C43.3943 47.155 45.1951 46.8094 46.7291 46.6798C47.485 46.615 48.1742 46.615 48.73 46.7014C48.9968 46.7446 49.2414 46.8094 49.4192 46.8742C49.6193 46.9606 49.7527 47.047 49.8416 47.155C49.8861 47.1982 49.9083 47.2198 49.9306 47.263C50.1084 47.5438 50.1529 47.8462 50.0862 48.2135C49.9972 48.7751 49.6638 49.4447 49.2636 50.1576C48.8856 50.8704 48.4632 51.5832 48.2631 52.3393C47.9963 53.3113 48.0408 54.413 48.0186 55.5146C47.9963 56.6163 47.9074 57.6747 47.4405 58.582C47.3961 58.6684 47.3516 58.7332 47.2849 58.798C47.1737 58.8844 47.0404 58.9492 46.8403 58.9924C46.5068 59.0356 45.9954 58.9708 45.4619 58.798C44.6615 58.5604 43.7722 58.1067 43.1052 57.7395C42.7717 57.5451 42.4827 57.3723 42.2826 57.2643C42.1937 57.1995 42.1048 57.1563 42.0603 57.1131C42.0159 57.0699 41.9714 57.0699 41.9714 57.0699C41.7935 56.9619 41.5712 57.0051 41.46 57.1563C41.3711 57.3075 41.4156 57.5451 41.5934 57.6531Z" fill="#9B2C60"/>
<path d="M39.0812 47.7814C39.0812 47.7814 44.6615 44.0444 45.5508 41.6251C45.5508 41.6251 41.3712 41.3875 39.7482 42.554C38.1252 43.7204 35.9242 47.9326 36.191 49.7039C36.4356 51.4752 39.0812 47.7814 39.0812 47.7814Z" fill="white"/>
<path d="M39.0812 47.7815L39.3035 48.0839C39.3035 48.0839 41.3267 46.723 43.1497 45.1029C43.75 44.5629 44.3503 44.0013 44.8171 43.4181C45.3063 42.8564 45.6842 42.2948 45.8843 41.7332C45.9288 41.6252 45.9065 41.4956 45.8398 41.4092C45.7731 41.3227 45.662 41.2579 45.5508 41.2579C45.5508 41.2579 44.4837 41.1931 43.2164 41.2795C42.5717 41.3228 41.8825 41.4092 41.2377 41.5604C40.593 41.7116 39.9927 41.9276 39.5036 42.2516C39.3925 42.3164 39.3035 42.4028 39.1924 42.5108C38.77 42.8996 38.3253 43.4181 37.9251 44.0229C37.3026 44.9301 36.7246 46.0102 36.3244 47.0254C36.1243 47.5438 35.9687 48.0407 35.8798 48.4943C35.7908 48.9479 35.7464 49.3799 35.8131 49.7688C35.8575 49.9848 35.902 50.1792 36.0576 50.352C36.1688 50.4816 36.3466 50.5464 36.5023 50.568C36.7468 50.5896 36.9469 50.5032 37.1248 50.3952C37.3026 50.2872 37.4805 50.1576 37.6583 49.9848C38.0808 49.6175 38.5032 49.1207 38.8366 48.7103C39.1701 48.2999 39.3925 47.9975 39.3925 47.9975L39.0812 47.7815L39.3035 48.0839L39.0812 47.7815L38.77 47.587C38.77 47.587 38.7477 47.6086 38.7255 47.6303C38.5476 47.8679 37.7917 48.8831 37.147 49.4663C36.9469 49.6391 36.7468 49.7904 36.6357 49.8336L36.569 49.8552H36.5467V49.8768V49.8552V49.8768V49.8552L36.5245 49.92L36.569 49.8768L36.5245 49.8552L36.5023 49.92L36.5467 49.8768C36.5245 49.8552 36.5023 49.7904 36.5023 49.6823C36.4578 49.3583 36.5023 48.8183 36.6801 48.2351C36.9247 47.3494 37.3916 46.291 37.9474 45.3405C38.5032 44.3901 39.1257 43.5477 39.6815 43.0508C39.7704 42.9644 39.8593 42.8996 39.926 42.8564C40.2595 42.6188 40.7931 42.4028 41.3934 42.2732C42.2827 42.0788 43.3053 41.9924 44.1279 41.9708C44.5281 41.9708 44.8838 41.9708 45.1284 41.9708C45.2396 41.9708 45.3507 41.9708 45.4174 41.9708H45.4841H45.5063L45.5286 41.6036L45.1729 41.474C45.0172 41.8844 44.6837 42.4028 44.2169 42.9428C43.7722 43.4829 43.1942 44.0229 42.6161 44.5413C41.7268 45.3405 40.7931 46.0534 40.0594 46.5934C39.7037 46.8526 39.3925 47.0686 39.1701 47.2198C39.059 47.2846 38.97 47.3494 38.9256 47.3926C38.8589 47.4358 38.8366 47.4574 38.8366 47.4574C38.7922 47.479 38.77 47.5222 38.7477 47.5438L39.0812 47.7815Z" fill="#9B2C60"/>
<path d="M48.7523 53.7865C48.7967 53.7865 49.7305 53.5273 50.7309 52.62C51.2645 52.1448 51.7981 51.5184 52.2205 50.6327C52.5318 50.0063 52.6874 49.4015 52.7096 48.8615C52.7541 48.0406 52.5095 47.371 52.265 46.7662C52.0204 46.1829 51.7536 45.6645 51.6647 45.2325C51.4868 44.39 50.9755 43.4612 50.2863 42.7268C50.0195 42.4244 49.7083 42.1651 49.3748 41.9707C49.0413 41.7763 48.6856 41.6251 48.3076 41.5819C47.8852 41.5387 47.4183 41.6251 46.9737 41.7331C46.2845 41.9275 45.5953 42.2299 45.0839 42.4892C44.5504 42.7484 44.1946 42.9644 44.1946 42.9644C44.0168 43.0724 43.9723 43.2884 44.0612 43.4612C44.1724 43.634 44.3947 43.6772 44.5726 43.5908L44.5948 43.5692C44.7282 43.4828 45.3507 43.1372 46.1066 42.8132C46.4846 42.662 46.8848 42.5108 47.2627 42.4028C47.6407 42.2948 47.9964 42.2516 48.2409 42.2948C48.4855 42.3164 48.73 42.4244 48.9968 42.5756C49.2636 42.7268 49.5082 42.9428 49.7527 43.202C50.353 43.8284 50.8199 44.7141 50.9533 45.3621C51.0422 45.7509 51.1978 46.1181 51.3534 46.4638C51.598 47.0038 51.8426 47.5654 51.9537 48.1702C52.0427 48.7751 51.9982 49.4447 51.5758 50.2871C51.1978 51.0648 50.7087 51.6264 50.2418 52.0368C49.7972 52.4256 49.3748 52.6848 49.0635 52.8361C48.9079 52.9225 48.7745 52.9657 48.6856 52.9873C48.6411 53.0089 48.6189 53.0089 48.5966 53.0305H48.5744L48.5966 53.1385L48.5744 53.0305L48.5966 53.1385L48.5744 53.0305C48.3743 53.0737 48.2632 53.2897 48.3076 53.4841C48.3521 53.7433 48.5522 53.8513 48.7523 53.7865Z" fill="#9B2C60"/>
<path d="M41.8825 61.174C41.9047 61.1956 42.5495 61.7789 43.5054 62.2325C43.9946 62.4701 44.5504 62.6645 45.1506 62.7293C45.7509 62.7941 46.4179 62.7293 47.0404 62.4053C47.6629 62.1029 48.1742 61.7356 48.5966 61.3684C49.0413 60.9796 49.397 60.5692 49.7083 60.202C50.0195 59.8348 50.2641 59.5323 50.5086 59.3163C50.642 59.1867 50.7754 59.1003 50.9088 59.0571C51.6647 58.7547 52.9097 58.2579 53.8212 57.437C54.1992 57.113 54.5104 56.7242 54.7105 56.2706C55.0218 55.5146 55.1107 54.6073 55.1329 53.7433C55.1552 52.8792 55.0885 52.0152 55.0885 51.432C55.0885 50.8487 55.1552 49.9415 55.1329 49.0126C55.1107 48.559 55.0885 48.0838 54.9773 47.6518C54.8661 47.2198 54.7105 46.8093 54.4437 46.4637C54.3993 46.3989 54.3548 46.3557 54.2881 46.2909C53.7323 45.7077 53.0209 45.4053 52.4206 45.2325C51.8426 45.0597 51.3757 45.0165 51.3534 45.0165C51.1533 44.9949 50.9755 45.1461 50.9533 45.3405C50.931 45.5349 51.0867 45.7077 51.2867 45.7293C51.3312 45.7293 51.7314 45.7725 52.2427 45.9453C52.7541 46.0965 53.3321 46.3773 53.7323 46.7877C53.7768 46.8309 53.799 46.8741 53.8435 46.9174C54.0213 47.1334 54.1547 47.4574 54.2436 47.8246C54.377 48.3862 54.3993 49.0343 54.377 49.6823C54.3548 50.3303 54.3103 50.9567 54.3326 51.432C54.3326 52.0584 54.3993 52.9008 54.377 53.7217C54.3548 54.5641 54.2659 55.385 53.9991 55.9898C53.8657 56.3138 53.6211 56.6162 53.3099 56.897C52.5318 57.5883 51.3534 58.0851 50.6198 58.3875C50.3752 58.4739 50.1751 58.6251 49.9973 58.7979C49.686 59.0787 49.4192 59.4027 49.1302 59.7484C48.8412 60.094 48.5077 60.4828 48.1075 60.8284C47.7296 61.174 47.2849 61.498 46.7291 61.7572C46.24 61.9949 45.7509 62.0597 45.2618 61.9949C44.5281 61.9085 43.7945 61.5844 43.2609 61.2604C42.9941 61.1092 42.7718 60.9364 42.6384 60.8284C42.5717 60.7636 42.505 60.7204 42.4605 60.6988L42.4161 60.6556H42.3938C42.2382 60.526 42.0159 60.526 41.8603 60.6772C41.7269 60.8068 41.7491 61.0228 41.8825 61.174Z" fill="#9B2C60"/>
<path d="M53.2876 57.761L53.3988 57.6962L53.2876 57.761L53.3988 57.6962L53.2876 57.761C53.2876 57.761 53.5544 58.2794 53.6433 59.0355C53.7323 59.7915 53.6433 60.7852 52.9986 61.822C52.7318 62.2324 52.4206 62.578 52.1093 62.8589C51.4646 63.4421 50.7531 63.7661 50.2196 63.9389C49.9528 64.0253 49.7082 64.0901 49.5526 64.1117C49.4637 64.1333 49.4192 64.1333 49.3747 64.1333H49.3303C49.2636 64.1333 49.1969 64.1549 49.1302 64.1981C49.1302 64.1981 48.9746 64.3277 48.7078 64.5221C48.3076 64.8029 47.7073 65.2566 47.107 65.6454C46.818 65.8398 46.529 66.0126 46.2844 66.1638C46.0399 66.315 45.8176 66.4014 45.7286 66.4446C44.8616 66.7038 43.9056 66.747 43.0608 66.5742C42.1937 66.4014 41.4378 66.0342 40.9709 65.5374C40.9042 65.4726 40.8375 65.3862 40.7931 65.3214C40.5485 64.9758 40.1706 64.5869 39.7704 64.1117C39.1479 63.4205 38.4142 62.5996 37.7695 61.714C37.147 60.8284 36.6134 59.8779 36.4355 58.9491C36.3911 58.7547 36.191 58.6251 35.9909 58.6683C35.7908 58.7115 35.6574 58.9059 35.7019 59.1003C36.0131 60.5259 36.9024 61.8652 37.8362 63.0317C38.303 63.6149 38.7699 64.1333 39.1923 64.6085C39.6148 65.0622 39.9705 65.4726 40.1706 65.7534C40.2373 65.8614 40.3262 65.9478 40.4151 66.0342C41.0154 66.6822 41.9269 67.0927 42.9051 67.2871C43.8834 67.4815 44.9505 67.4383 45.951 67.1359C46.0844 67.0927 46.24 67.0279 46.4178 66.9414C46.9959 66.639 47.774 66.1206 48.441 65.6454C49.0857 65.1918 49.6193 64.8029 49.6193 64.8029L49.397 64.5221L49.4414 64.8893C49.4859 64.8893 51.1755 64.7165 52.6651 63.3989C53.0208 63.0749 53.3765 62.686 53.6878 62.2108C54.4659 61.0012 54.5549 59.7915 54.4437 58.9059C54.3325 58.0202 54.0435 57.4586 54.0213 57.4154C53.9324 57.2426 53.71 57.1562 53.5099 57.2642C53.2654 57.3722 53.1765 57.5882 53.2876 57.761Z" fill="#9B2C60"/>
<path d="M39.6592 36.6569C39.6592 36.6569 42.505 34.2592 42.3938 31.4078C42.2826 28.5349 40.8153 26.85 41.3267 25.0787C41.3267 25.0787 38.681 27.1308 38.3253 29.831C37.9696 32.5095 37.4582 34.7128 38.2808 36.2249C39.1034 37.7369 39.6592 36.6569 39.6592 36.6569Z" fill="white"/>
<path d="M39.6592 36.6569L39.9038 36.9377C39.9038 36.9377 39.926 36.9161 39.9705 36.8729C40.1928 36.6785 40.9043 36.0088 41.549 35.0368C42.1937 34.0647 42.794 32.7903 42.7495 31.3862C42.6828 29.8958 42.2827 28.7077 41.9714 27.7141C41.8158 27.2172 41.6824 26.7636 41.6157 26.3532C41.549 25.9428 41.5712 25.5539 41.6824 25.1651C41.7269 25.0139 41.6602 24.8411 41.5268 24.7547C41.3934 24.6683 41.2155 24.6683 41.0821 24.7763C41.0821 24.7763 40.971 24.8627 40.7931 25.0139C40.4374 25.3379 39.8149 25.9428 39.2368 26.742C38.6588 27.5628 38.103 28.5781 37.9474 29.7445C37.7695 31.0838 37.5472 32.2935 37.4805 33.4167C37.4138 34.5184 37.4805 35.512 37.9251 36.3761C38.0585 36.6353 38.2141 36.8513 38.3475 37.0025C38.4587 37.1321 38.5699 37.2185 38.7033 37.2833C38.8811 37.3913 39.1034 37.4129 39.2813 37.3697C39.4592 37.3265 39.5925 37.2401 39.6815 37.1537C39.8593 37.0025 39.926 36.8513 39.9483 36.8297L39.6592 36.6569L39.9038 36.9377L39.6592 36.6569L39.3258 36.4841L39.4369 36.5489L39.3258 36.4841L39.4369 36.5489L39.3258 36.4841C39.3258 36.4841 39.2813 36.5705 39.2146 36.6137L39.1479 36.6569H39.1034C39.0812 36.6569 39.0145 36.6353 38.9033 36.5273C38.8144 36.4409 38.7033 36.2897 38.5921 36.052C38.2364 35.3824 38.1474 34.54 38.2141 33.4815C38.2808 32.4447 38.5032 31.2134 38.681 29.8526C38.8144 28.8589 39.2813 27.9301 39.8371 27.174C40.3707 26.418 40.971 25.8564 41.3044 25.554C41.3934 25.4891 41.4378 25.4243 41.4823 25.4027L41.5268 25.3595L41.549 25.3379L41.3267 25.0571L40.971 24.9491C40.8153 25.4459 40.8153 25.9428 40.882 26.4396C40.9932 27.174 41.26 27.8869 41.5045 28.6861C41.7491 29.4853 41.9714 30.3494 42.0159 31.3862C42.0603 32.5743 41.549 33.7191 40.9265 34.6264C40.3262 35.512 39.6592 36.1384 39.4592 36.3113L39.4147 36.3545H39.3925C39.348 36.3761 39.3258 36.4193 39.3035 36.4625L39.6592 36.6569Z" fill="#9B2C60"/>
<path d="M39.8816 30.0254C39.9038 30.1118 40.1928 30.9543 40.2595 32.1639C40.3262 33.3736 40.1706 34.9505 39.3258 36.4841C39.2368 36.6569 39.3035 36.8729 39.4814 36.981C39.6593 37.0674 39.8816 37.0026 39.9927 36.8297C40.9487 35.0801 41.0821 33.3304 40.9932 32.0127C40.9043 30.6951 40.593 29.8094 40.5708 29.7878C40.5041 29.5934 40.2818 29.507 40.1039 29.5718C39.9038 29.6366 39.8149 29.831 39.8816 30.0254Z" fill="#9B2C60"/>
<path d="M44.7726 42.7483C44.2835 42.4459 43.8834 42.0787 43.7277 41.9275L43.661 41.8627L43.5721 41.8411C43.2164 41.7331 42.9051 41.6035 42.6161 41.4307C42.4383 41.3226 42.3049 41.2146 42.1715 41.085C39.6814 38.7953 39.0145 36.1816 40.3929 33.9351C41.8602 31.5158 43.9945 29.9605 46.0844 29.7877C47.5517 29.6797 48.4187 30.1981 49.5304 30.8894L49.6415 30.9542C49.9528 31.1486 50.2863 31.343 50.642 31.5374L50.6642 31.559L50.7087 31.5806C51.3756 31.775 52.0426 32.0774 52.6429 32.4446C54.1769 33.3951 55.2885 34.7559 55.5108 36.0088C55.8888 38.0177 55.3775 42.2731 52.4428 42.9859C49.8194 43.6124 47.3071 43.3531 46.1066 43.2235L45.8398 43.2019C45.5285 43.1371 45.1728 43.0075 44.7726 42.7483Z" fill="#9B2C60"/>
<path d="M45.862 43.1803L46.0844 43.2019C47.2849 43.3316 49.8194 43.6124 52.4428 42.9643C55.2441 42.2731 55.911 38.1257 55.5109 35.9872C55.2218 34.4535 53.4433 32.3798 50.7087 31.559L50.6642 31.5374L50.6198 31.5158C50.2196 31.2998 49.8861 31.1054 49.5081 30.8678C48.6855 30.3709 47.9741 29.9389 47.0848 29.8093C46.7736 29.7661 46.4401 29.7445 46.0844 29.7877C43.9723 29.9605 41.8602 31.4942 40.3929 33.9351C39.0367 36.1816 39.6815 38.7953 42.1715 41.085C42.5272 41.4091 42.9718 41.6467 43.5276 41.8195L43.6388 41.8627L43.7277 41.9491C43.9945 42.2083 44.906 43.0507 45.7731 43.1803H45.862Z" fill="white"/>
<path d="M51.9982 36.8513L51.9315 36.4841C51.887 36.4841 51.4201 36.5705 50.8866 36.5273C50.6198 36.5057 50.3308 36.4625 50.0862 36.3761C49.8417 36.2897 49.6193 36.1817 49.4637 36.0089C49.3081 35.8361 49.1969 35.6201 49.1747 35.2744C49.1524 34.972 49.1969 34.7128 49.2414 34.54C49.3081 34.3672 49.3748 34.2376 49.4859 34.1512C49.5749 34.0648 49.7083 34 49.8416 33.9568C50.064 33.892 50.353 33.892 50.6642 33.9568C50.9755 34.0216 51.2868 34.1296 51.598 34.2592C51.9537 34.432 52.3094 34.6696 52.5318 34.9288C52.7319 35.1448 52.843 35.3608 52.8652 35.5337C52.8652 35.6201 52.8652 35.7065 52.8208 35.7929C52.7763 35.8793 52.7096 35.9657 52.5985 36.0737C52.4428 36.2033 52.1983 36.3545 51.8648 36.4841L51.9982 36.8513L51.9315 36.4841L51.9982 36.8513L52.1316 37.1969C52.5318 37.0457 52.8652 36.8513 53.0876 36.6353C53.2654 36.4841 53.3988 36.2897 53.4878 36.0953C53.6211 35.7929 53.6211 35.4904 53.51 35.2096C53.4211 34.9288 53.2432 34.6912 53.0431 34.4752C52.7319 34.1296 52.3094 33.8488 51.8648 33.6544C51.3979 33.4384 50.8866 33.2655 50.3752 33.2439C50.1084 33.2223 49.8639 33.2439 49.6193 33.3087C49.3748 33.3735 49.1302 33.4816 48.9301 33.6544C48.73 33.8272 48.5744 34.0648 48.4855 34.3456C48.3966 34.6264 48.3521 34.9504 48.3743 35.3392C48.3966 35.8361 48.5744 36.2249 48.8634 36.5273C49.1302 36.8081 49.4859 36.9809 49.8194 37.1105C50.3308 37.2833 50.8866 37.3049 51.2868 37.2833C51.7092 37.2833 51.9982 37.2185 51.9982 37.2185L52.0649 37.1969L51.9982 36.8513Z" fill="#9B2C60"/>
<path d="M52.9764 37.8882L52.9986 37.9314L52.9764 37.8882L52.9986 37.9314L52.9764 37.8882C52.9541 37.9098 52.176 38.3851 51.0644 38.4715C50.5086 38.5147 49.9083 38.4931 49.2414 38.2554C48.5966 38.0178 47.9074 37.6074 47.2182 36.873C46.9737 36.6138 46.7513 36.333 46.5068 35.9873C45.951 35.2097 45.7064 34.4537 45.7064 33.8056C45.7064 33.1576 45.9287 32.6392 46.3734 32.2504C46.8847 31.7967 47.6851 31.5159 48.8189 31.5807C50.8421 31.6671 52.7541 32.704 53.9546 33.9568C54.5993 34.6265 54.9995 35.3609 55.1329 36.0305C55.2885 36.8514 55.2885 37.9962 55.044 39.1195C54.7994 40.2211 54.3103 41.2796 53.5767 41.9492C53.2209 42.2516 52.8208 42.4892 52.3316 42.5972C50.9532 42.9213 49.5971 43.0077 48.4632 42.9861C47.3071 42.9645 46.3956 42.8565 45.862 42.7917C45.662 42.7701 45.4396 42.7053 45.2173 42.5756C44.8838 42.4028 44.5503 42.1652 44.3058 41.9492C44.1946 41.8412 44.0835 41.7548 44.0168 41.69C43.9723 41.6684 43.9501 41.6252 43.9501 41.6252L43.9278 41.6036C43.7944 41.4524 43.5499 41.4524 43.3943 41.582C43.2386 41.7116 43.2386 41.9492 43.372 42.1004C43.372 42.1004 43.6833 42.4244 44.1279 42.7485C44.3502 42.9213 44.617 43.0941 44.8838 43.2237C45.1728 43.3749 45.4619 43.4829 45.7953 43.5045C46.3067 43.5477 47.2627 43.6773 48.4632 43.6989C49.6638 43.7205 51.0866 43.6341 52.5317 43.2885C53.132 43.1373 53.6656 42.8565 54.088 42.4676C54.9995 41.6468 55.5109 40.4587 55.7776 39.2707C56.0444 38.061 56.0444 36.8298 55.8666 35.9009C55.711 35.0585 55.2218 34.2161 54.5104 33.46C53.1987 32.0776 51.1311 30.9543 48.8634 30.8463C47.5962 30.7815 46.5735 31.1055 45.8843 31.7103C45.284 32.2504 44.9728 32.9848 44.9728 33.8056C44.9728 34.6265 45.284 35.5121 45.9065 36.3762C46.1511 36.7434 46.4178 37.0458 46.6846 37.3266C47.4628 38.1474 48.2631 38.6443 49.0413 38.9035C50.2196 39.2923 51.309 39.1843 52.0871 38.9683C52.8652 38.7523 53.3543 38.4499 53.3766 38.4283C53.5544 38.3202 53.5989 38.1042 53.4877 37.9314C53.3988 37.8234 53.1542 37.7802 52.9764 37.8882Z" fill="#9B2C60"/>
<path d="M52.7096 35.2096C52.9764 35.6632 53.1098 36.1384 53.1098 36.6136C53.132 37.3265 52.8875 38.0609 52.5317 38.7089C52.176 39.357 51.6869 39.9186 51.2645 40.3074C51.0644 40.4802 50.8866 40.6314 50.7309 40.7178C50.4641 40.869 49.9083 41.085 49.2191 41.2795C48.1742 41.5603 46.818 41.7763 45.5508 41.7547C44.9061 41.7331 44.3058 41.6683 43.7722 41.5171C43.2386 41.3659 42.794 41.1498 42.4605 40.8258C42.2826 40.653 42.1048 40.4802 41.9269 40.3074C41.0821 39.4218 40.4596 38.4065 40.215 37.3481C39.9705 36.3112 40.0817 35.2312 40.7486 34.1079C41.3267 33.1575 41.9714 32.4014 42.6384 31.7966C43.7944 30.7814 45.0395 30.2413 46.1511 30.1549C47.0626 30.0901 47.6851 30.2845 48.3298 30.6085C48.9968 30.9326 49.6638 31.4294 50.5531 31.9046C50.7309 31.991 50.9532 31.9262 51.0644 31.7534C51.1533 31.5806 51.0866 31.3646 50.9088 31.2566C50.064 30.8246 49.397 30.3277 48.6633 29.9605C47.9297 29.5933 47.1293 29.3557 46.0621 29.4421C44.7282 29.5501 43.3498 30.1765 42.1048 31.2782C41.3711 31.9262 40.6819 32.7686 40.0817 33.7623C39.3258 35.0152 39.1701 36.3328 39.4591 37.5209C39.7482 38.7305 40.4596 39.8322 41.3489 40.8042C41.5268 40.9986 41.7268 41.193 41.9269 41.3659C42.5272 41.9059 43.3276 42.2083 44.1946 42.3595C45.4841 42.5755 46.9514 42.4675 48.2187 42.2515C48.8634 42.1435 49.4415 41.9923 49.9306 41.8411C50.4197 41.6899 50.8199 41.5171 51.1089 41.3443C51.309 41.2146 51.5313 41.0634 51.7758 40.8474C52.4428 40.2426 53.1542 39.3354 53.5544 38.2769C53.7545 37.7585 53.8879 37.1753 53.8657 36.592C53.8435 36.0088 53.7101 35.404 53.3766 34.8423C53.2654 34.6695 53.0431 34.6047 52.8652 34.7127C52.6874 34.8207 52.6207 35.0368 52.7096 35.2096Z" fill="#9B2C60"/>
<path d="M12.358 47.1333C10.3126 44.6708 11.1352 39.9186 11.4242 38.5361C11.8911 36.4192 14.6257 35.5336 15.4705 35.3176L15.6484 35.2744L15.7151 35.1016C16.1152 34.0863 16.6043 33.0927 17.0935 32.3366C18.6053 29.9821 24.319 26.5044 28.5209 27.7356C32.6116 28.9237 35.613 32.099 35.9465 32.4447L36.0354 32.5527L36.1688 32.5743C37.0358 32.6823 37.8584 32.9415 38.681 33.3951C39.6148 33.9135 40.4818 34.6264 41.2155 35.5336C42.8607 37.4993 43.9501 40.3074 44.2613 43.4396C44.417 44.9948 44.1502 46.4637 43.461 47.7814L43.372 47.9326L43.4387 48.0838C43.9278 51.4103 41.5712 53.9593 39.3925 55.1257C38.0808 55.817 37.1692 55.6873 36.3466 55.5577C35.9909 55.4929 35.613 55.4497 35.2795 55.4929C34.6792 55.5793 34.1012 55.9898 33.412 56.465C32.6561 56.9834 31.8112 57.545 30.8108 57.8258C29.2101 58.2579 23.9855 57.6962 22.0735 56.7458C21.3176 56.357 20.5172 55.6873 19.7169 54.7153C18.3385 53.052 17.338 51.0431 17.049 50.4815L17.0045 50.3735L16.8934 50.3087C15.1148 49.4231 13.5585 48.3862 12.6025 47.4574C12.5358 47.3494 12.4469 47.2413 12.358 47.1333Z" fill="white"/>
<path d="M24.9414 44.5195L24.7858 44.8435C24.808 44.8435 25.4083 45.1244 26.2087 45.254C26.6089 45.3188 27.0757 45.3188 27.5426 45.2324C28.0095 45.146 28.4986 44.9515 28.8988 44.5843C29.299 44.2171 29.6324 43.6987 29.8325 43.0075C30.0104 42.4242 30.0326 41.9058 29.9659 41.4738C29.877 41.0418 29.6769 40.6745 29.4324 40.3937C28.921 39.8537 28.1874 39.6161 27.6315 39.5081C27.0535 39.4001 26.6089 39.4217 26.5866 39.4217H26.5644C26.5422 39.4217 26.1642 39.4433 25.6751 39.5729C25.186 39.7025 24.5635 39.9185 24.0744 40.3721C23.8076 40.6097 23.5853 40.8906 23.4741 41.2578C23.2295 41.949 23.274 42.597 23.4741 43.1155C23.652 43.6339 23.9632 44.0443 24.23 44.3251C24.519 44.6275 24.7636 44.7787 24.7636 44.8003L24.808 44.8219L24.9414 44.5195L25.1638 44.2171L25.1193 44.2603L25.1638 44.2171L25.1193 44.2603L25.1638 44.2171C25.1638 44.2171 24.9637 44.0875 24.7413 43.8499C24.519 43.6123 24.2745 43.2883 24.1411 42.8995C24.0077 42.5106 23.9632 42.057 24.1411 41.4954C24.23 41.2578 24.3634 41.085 24.5413 40.9122C24.897 40.6097 25.4083 40.3937 25.8307 40.2857C26.053 40.2209 26.2309 40.1993 26.3865 40.1777C26.4532 40.1777 26.5199 40.1561 26.5422 40.1561H26.5866L26.5644 39.7889L26.5866 40.1561C26.6089 40.1561 27.0313 40.1561 27.4981 40.2425C27.9873 40.3289 28.5208 40.5449 28.8543 40.8906C29.0322 41.085 29.1656 41.301 29.21 41.6034C29.2767 41.9058 29.2545 42.2946 29.0989 42.7914C28.921 43.3747 28.6542 43.7635 28.3652 44.0227C28.0762 44.2819 27.7427 44.4331 27.3648 44.4979C26.8312 44.6059 26.2531 44.5195 25.7863 44.4115C25.5639 44.3467 25.3861 44.3035 25.2527 44.2387C25.186 44.2171 25.1415 44.1955 25.0971 44.1739L25.0526 44.1523L24.9414 44.5195L25.1638 44.2171L24.9414 44.5195Z" fill="#9B2C60"/>
<path d="M24.9414 44.5196L24.7191 44.8221C24.7414 44.8221 25.8752 45.5997 27.3425 46.0965C28.0762 46.3341 28.921 46.5285 29.7436 46.4853C30.5662 46.4637 31.411 46.2045 32.1225 45.5781C32.456 45.2973 32.745 44.9301 32.9895 44.4764C33.6343 43.2884 33.8344 42.1219 33.6787 41.0635C33.5231 40.005 33.034 39.0762 32.3448 38.3634C31.3221 37.2833 29.8548 36.6137 28.4097 36.6353C27.1647 36.6569 25.853 37.2185 24.8525 38.1257C23.9855 38.9034 23.3407 39.9186 23.2296 41.0851C23.0962 42.2515 23.5186 43.5476 24.6524 44.7572L24.6747 44.7789L24.7414 44.8221L24.9414 44.5196L25.2305 44.282L25.2082 44.2604C24.1855 43.1588 23.8743 42.1219 23.9632 41.1499C24.0744 40.1994 24.608 39.3138 25.3639 38.6442C26.2309 37.8665 27.4092 37.3697 28.4319 37.3481C29.6325 37.3265 30.9219 37.8881 31.8112 38.8386C32.4115 39.465 32.8339 40.2642 32.9673 41.1499C33.1007 42.0355 32.9451 43.0508 32.367 44.1092C32.1669 44.498 31.9224 44.7788 31.6556 45.0165C31.0998 45.5133 30.4551 45.7077 29.7659 45.7293C28.7209 45.7725 27.5649 45.4053 26.6756 44.9949C26.2309 44.8005 25.853 44.5844 25.6084 44.4332C25.475 44.3468 25.3639 44.3036 25.2972 44.2604C25.2527 44.2388 25.2305 44.2172 25.2082 44.2172L25.186 44.1956L24.9414 44.5196L25.2305 44.282L24.9414 44.5196Z" fill="#9B2C60"/>
<path d="M26.9869 45.9668C27.0091 45.9668 28.343 46.5717 30.0549 46.8525C30.922 47.0037 31.878 47.0685 32.8117 46.9173C33.7455 46.7877 34.6792 46.4421 35.4574 45.7508C35.9242 45.3404 36.3244 44.8004 36.6357 44.1092C37.436 42.3163 37.9696 40.6746 38.0585 39.2057C38.103 38.4713 38.0141 37.7585 37.814 37.1104C37.5917 36.4624 37.2359 35.836 36.7246 35.2959C36.0132 34.5399 34.9905 33.8919 33.6565 33.3735C31.3444 32.4662 28.8099 32.315 26.52 32.6822C24.23 33.0494 22.1624 33.9351 20.784 35.1663C20.4506 35.4688 20.1393 35.7928 19.8725 36.16C18.7831 37.5856 17.8049 39.8322 17.4492 42.1651C17.2713 43.3315 17.2491 44.498 17.4714 45.5996C17.6937 46.7013 18.1606 47.7381 18.9388 48.5806C19.1166 48.775 19.3389 48.9694 19.5613 49.1422C21.4732 50.6327 23.5408 51.7127 25.3194 52.4687C27.098 53.2248 28.6098 53.6784 29.4324 53.9592C29.8993 54.1104 30.4106 54.1536 30.922 54.132C32.4338 54.0672 33.8789 53.484 33.9011 53.4624C34.1012 53.376 34.1901 53.1816 34.1012 52.9872C34.0123 52.7928 33.8122 52.7064 33.6121 52.7928H33.5898C33.4565 52.836 32.8117 53.0736 32.0336 53.2464C31.2555 53.4192 30.3217 53.484 29.677 53.268C28.8544 52.9872 27.3648 52.5552 25.6307 51.7991C23.8966 51.0647 21.8957 50.0062 20.0504 48.5806C19.8503 48.4294 19.6724 48.2566 19.5168 48.0837C18.8276 47.3493 18.4274 46.4637 18.2273 45.4484C17.9383 43.9579 18.1162 42.2299 18.583 40.6314C19.0499 39.0329 19.7614 37.564 20.495 36.5488C20.7173 36.2464 20.9841 35.9656 21.2954 35.6848C22.5404 34.5831 24.4746 33.7191 26.6534 33.3735C28.8321 33.0278 31.2332 33.179 33.3898 34.0215C34.657 34.5183 35.5685 35.1015 36.191 35.7496C36.6357 36.2248 36.9469 36.7432 37.1248 37.3048C37.4138 38.1473 37.4138 39.0977 37.2137 40.1994C37.0136 41.2794 36.5912 42.4891 35.9909 43.8067C35.7241 44.39 35.3907 44.8436 34.9905 45.1892C34.368 45.7508 33.5898 46.0532 32.745 46.1613C31.5 46.3557 30.1216 46.1181 29.0989 45.8588C28.5876 45.7292 28.1429 45.578 27.8317 45.4484C27.6761 45.3836 27.5649 45.3404 27.476 45.3188C27.4315 45.2972 27.4093 45.2972 27.387 45.2756L27.3648 45.254C27.1869 45.1676 26.9646 45.254 26.8757 45.4268C26.7201 45.6644 26.809 45.8804 26.9869 45.9668Z" fill="#9B2C60"/>
<path d="M23.4741 41.2363C23.4741 41.2579 23.0295 42.1651 22.7627 43.3532C22.6293 43.958 22.5404 44.606 22.5626 45.2757C22.6071 45.9453 22.7627 46.5933 23.1406 47.1765C23.2963 47.3926 23.4964 47.6302 23.7409 47.8894C24.8748 49.099 27.0091 50.7623 29.3879 51.9936C30.5885 52.5984 31.8335 53.1168 33.0785 53.376C34.3013 53.6352 35.524 53.6784 36.6357 53.3112C38.5699 52.6848 40.3929 51.7344 41.838 50.4815C42.8162 49.6175 43.5944 48.6022 44.1057 47.4142C44.6171 46.2261 44.8394 44.8868 44.6838 43.418C44.3058 39.7242 42.9719 36.8081 41.1488 34.8424C40.4596 34.1295 39.726 33.5247 38.9256 33.0927C37.4583 32.2934 36.1243 32.1206 34.7904 32.1638C33.4564 32.2286 32.1225 32.5095 30.5218 32.5959C30.3217 32.6175 30.1661 32.7903 30.1661 32.9847C30.1883 33.1791 30.3662 33.3303 30.5662 33.3303C32.2337 33.2223 33.5676 32.9631 34.8126 32.8983C36.0576 32.8551 37.1915 32.9847 38.5476 33.7191C39.2591 34.1079 39.9705 34.648 40.593 35.3176C42.3049 37.1321 43.5944 39.9186 43.9501 43.4612C44.0835 44.8436 43.8834 46.0533 43.4387 47.1117C42.9719 48.1702 42.2604 49.1206 41.3711 49.9199C40.0372 51.1079 38.3031 51.9936 36.4356 52.5984C35.5018 52.9008 34.4347 52.8792 33.2786 52.6416C31.5667 52.2744 29.7214 51.3887 28.1207 50.3735C26.52 49.3582 25.1416 48.2134 24.3412 47.3926C24.1189 47.1549 23.941 46.9389 23.8076 46.7661C23.5186 46.3341 23.363 45.8157 23.3407 45.2324C23.2963 44.3684 23.4964 43.4396 23.7187 42.7267C23.8298 42.3811 23.941 42.0787 24.0299 41.8627C24.0744 41.7547 24.1189 41.6683 24.1411 41.6251L24.1633 41.5603V41.5387C24.2523 41.3659 24.1633 41.1499 23.9855 41.0635C23.7854 40.9771 23.5631 41.0635 23.4741 41.2363Z" fill="#9B2C60"/>
<path d="M36.2577 32.2503C36.2577 32.2503 36.2355 32.2287 36.191 32.1855C35.7464 31.7102 32.7005 28.5997 28.6098 27.39C26.7423 26.85 24.6969 27.174 22.8072 27.8869C20.9174 28.5997 19.2055 29.6797 18.0272 30.7382C17.4714 31.235 17.049 31.7102 16.76 32.1639C16.2709 32.9415 15.7373 33.9999 15.2927 35.1664C14.8702 36.268 14.5368 37.4561 14.4256 38.6226C14.2922 39.7674 14.3589 40.8907 14.7813 41.8411C15.9596 44.5196 17.716 46.4853 17.7382 46.5069C17.8716 46.6581 18.1162 46.6797 18.2718 46.5501C18.4274 46.4205 18.4496 46.1829 18.3163 46.0317L18.294 46.0101C18.1162 45.7941 16.5377 43.958 15.4705 41.5603C15.137 40.7827 15.0481 39.789 15.1815 38.709C15.2927 37.6289 15.6261 36.4841 16.0263 35.4256C16.4487 34.3024 16.9601 33.2871 17.427 32.5527C17.6715 32.1855 18.0495 31.7318 18.583 31.2782C19.6947 30.2846 21.3398 29.2477 23.1184 28.5781C24.897 27.9085 26.809 27.6276 28.4319 28.1029C32.2781 29.2261 35.2795 32.2719 35.6797 32.7039L35.7241 32.7471V32.7687C35.8575 32.9199 36.1021 32.9415 36.2577 32.8119C36.3689 32.6391 36.3911 32.4015 36.2577 32.2503Z" fill="#9B2C60"/>
<path d="M15.5594 34.9288C15.5372 34.9288 15.0481 35.0368 14.4034 35.296C13.7586 35.5552 12.936 35.944 12.2468 36.5489C11.691 37.0241 11.2464 37.6721 11.0685 38.4498C10.8017 39.681 10.5572 41.3659 10.6461 43.0508C10.6906 43.8932 10.824 44.7141 11.0685 45.4917C11.3131 46.2693 11.691 46.9822 12.2468 47.5654C12.2913 47.6086 12.3358 47.6518 12.358 47.695C13.4696 48.7966 15.2037 49.8551 16.8489 50.6759C17.6715 51.0864 18.4941 51.432 19.2055 51.6696C19.917 51.9072 20.5172 52.08 20.9841 52.08C22.5849 52.1232 24.3634 51.972 24.3634 51.972C24.5635 51.9504 24.7192 51.7776 24.6969 51.5832C24.6747 51.3888 24.4968 51.2376 24.2967 51.2592C24.2967 51.2592 24.2745 51.2592 24.23 51.2592C23.8743 51.2808 22.3625 51.4104 21.0286 51.3456C20.7173 51.3456 20.1393 51.1944 19.4723 50.9783C18.8054 50.7407 18.005 50.4167 17.2046 50.0063C15.6039 49.2071 13.9143 48.1702 12.8916 47.155C12.8471 47.1118 12.8249 47.0902 12.7804 47.047C12.3135 46.5717 12.0023 45.9453 11.7577 45.2541C11.4242 44.2172 11.3131 42.986 11.3575 41.7979C11.402 40.6099 11.5799 39.465 11.7577 38.5794C11.8911 37.9745 12.2468 37.4777 12.7137 37.0457C13.2917 36.5273 14.0476 36.16 14.6479 35.9224C14.9592 35.8144 15.2037 35.728 15.4038 35.6632C15.4927 35.6416 15.5817 35.62 15.6261 35.5984L15.6928 35.5768H15.7151C15.9152 35.5336 16.0486 35.3392 16.0041 35.1448C15.9596 34.9936 15.7595 34.8856 15.5594 34.9288Z" fill="#9B2C60"/>
<path d="M16.6933 50.5032C16.6933 50.5032 17.0267 51.2592 17.6048 52.2529C18.1828 53.2465 19.0054 54.4994 19.9614 55.5362C20.5617 56.1627 21.2064 56.7027 21.9179 57.0699C22.4514 57.3291 23.1629 57.5451 23.9632 57.7395C25.1638 58.0203 26.5644 58.2148 27.8539 58.3012C28.4986 58.3444 29.0989 58.366 29.6102 58.3444C30.1438 58.3228 30.5884 58.2796 30.9442 58.1932C31.9891 57.9123 32.8339 57.3507 33.5453 56.8539C33.9011 56.6163 34.2345 56.3787 34.5458 56.2059C34.8571 56.0331 35.1238 55.9251 35.3684 55.8819C35.5685 55.8603 35.7908 55.8602 36.0576 55.9034C36.4578 55.9683 36.9469 56.0547 37.5472 56.0547C38.1474 56.0331 38.8366 55.9034 39.6148 55.4714C40.1928 55.169 40.7931 54.7586 41.3934 54.2186C42.1493 53.5489 42.8607 52.6849 43.3498 51.648C43.8167 50.6112 44.0612 49.4015 43.8611 48.0623C43.8389 47.8679 43.6388 47.7167 43.4387 47.7599C43.2386 47.7815 43.083 47.9759 43.1275 48.1703C43.3053 49.3799 43.1052 50.4384 42.6828 51.3672C42.2604 52.2961 41.6157 53.0737 40.9042 53.7001C40.3707 54.1754 39.7926 54.5642 39.2813 54.845C38.3698 55.3202 37.7028 55.3634 37.0803 55.3202C36.769 55.2986 36.48 55.2338 36.191 55.1906C35.902 55.1474 35.5907 55.1258 35.2795 55.169C34.9015 55.2338 34.5458 55.385 34.1901 55.5794C33.6787 55.8818 33.1452 56.2707 32.5894 56.6379C32.0336 57.0051 31.4333 57.3291 30.7663 57.5019C30.4328 57.5883 29.8326 57.6315 29.0989 57.6315C28.0095 57.6315 26.6533 57.5019 25.3861 57.2859C24.1188 57.0699 22.9628 56.7675 22.2958 56.4435C21.6955 56.1411 21.0953 55.6442 20.5617 55.061C19.6502 54.089 18.8498 52.8793 18.294 51.9073C18.005 51.432 17.7826 51 17.6492 50.6976C17.5826 50.5464 17.5159 50.4168 17.4714 50.352C17.4492 50.3088 17.4269 50.2872 17.4269 50.2656L17.4047 50.244C17.3158 50.0712 17.0934 49.9848 16.9156 50.0496C16.6933 50.0928 16.6043 50.3088 16.6933 50.5032Z" fill="#9B2C60"/>
<path d="M24.0966 42.7267C24.23 42.3595 24.4523 42.0138 24.6969 41.7978C24.9415 41.5818 25.186 41.4738 25.4306 41.4738C25.6751 41.4738 25.9419 41.5818 26.2532 41.9058C26.3643 42.0138 26.4755 42.165 26.5866 42.3379C26.72 42.5539 26.7645 42.7699 26.72 42.9643C26.6756 43.1587 26.5866 43.3531 26.4088 43.5043C26.2087 43.6771 25.9641 43.7851 25.6307 43.8067C25.3194 43.8283 24.9415 43.7635 24.5413 43.5259C24.3634 43.4179 24.1411 43.4827 24.0299 43.6555C23.9188 43.8283 23.9855 44.0443 24.1633 44.1523C24.6747 44.4548 25.2082 44.5844 25.6751 44.5412C26.1642 44.498 26.5866 44.3251 26.8979 44.0443C27.1869 43.7851 27.387 43.4611 27.4537 43.0939C27.5204 42.7267 27.4537 42.3163 27.2091 41.9706C27.0758 41.7546 26.9424 41.5818 26.7867 41.4306C26.3866 40.9986 25.8974 40.761 25.4083 40.761C24.9415 40.761 24.4968 40.977 24.1633 41.2794C23.8076 41.6034 23.5186 42.0354 23.363 42.5107C23.2963 42.7051 23.4074 42.8995 23.6075 42.9643C23.8298 43.0075 24.0299 42.8995 24.0966 42.7267Z" fill="#9B2C60"/>
<path d="M42.7051 15.5312C42.8829 15.2287 43.0386 14.8615 43.172 14.3863L43.1942 14.2783L43.2609 14.1919C43.5055 13.9327 43.7278 13.6303 43.9279 13.2846C44.706 11.9886 45.0839 10.3685 45.3952 9.05085C45.5508 8.42442 45.6398 7.9708 45.7731 7.64678C46.2623 6.26432 45.3952 4.25542 43.8834 3.13217C43.4165 2.80815 41.7269 2.24653 40.3929 1.85771L40.2818 1.81451L40.1928 1.7281C39.8149 1.36088 38.392 0.151228 36.2577 0.302435C33.99 0.453642 32.9451 2.05212 32.745 2.37613L32.5672 2.70015L32.2337 2.65695C31.8557 2.59214 31.5 2.61374 31.211 2.67855C30.0994 2.93776 28.8099 3.9098 27.9651 4.55784L27.8317 4.64424C27.6983 4.75224 27.5649 4.83865 27.4315 4.92505C27.2536 5.05466 27.0091 5.22747 26.7423 5.37867C25.8752 5.9187 24.8081 6.60993 24.3412 7.40917C24.2523 7.56038 24.1856 7.68998 24.1633 7.84119C23.8743 8.79163 24.319 9.87169 24.5191 10.3037L24.6302 10.5629L24.4524 10.7789C24.3412 10.9301 24.23 11.0813 24.1189 11.2541C23.5631 12.2046 23.1851 13.6519 23.6965 14.5375C23.941 14.9479 24.4524 15.3799 25.2083 15.8336L26.1865 16.4168L25.0749 16.6544C25.0082 16.676 24.9415 16.676 24.8748 16.6976C25.6307 17.8641 27.2981 19.9378 28.6765 20.3698C30.2995 20.8666 34.4347 20.3482 35.8798 19.2249L36.0132 19.1169L36.191 19.1385C36.6801 19.1817 37.2137 19.1817 37.8584 19.1385C38.2364 19.1169 38.5254 18.9657 38.77 18.7065L38.8144 18.6417L38.8811 18.5985C39.9927 17.9937 41.5045 17 42.4605 15.812C42.5495 15.7472 42.6384 15.6392 42.7051 15.5312Z" fill="white"/>
<path d="M37.8807 19.1816C37.8807 19.1816 36.858 13.6086 38.8367 11.0597C40.8153 8.51074 43.6833 8.03552 43.6833 8.03552C43.6833 8.03552 44.0613 13.8894 42.505 15.8551C40.9265 17.7992 37.8807 19.1816 37.8807 19.1816Z" fill="white"/>
<path d="M37.8807 19.1817L38.2142 19.1169V19.0737C38.192 18.9009 38.0586 18.0801 37.9919 17.0216C37.9252 15.9416 37.9474 14.6023 38.192 13.4143C38.3698 12.5934 38.6588 11.8158 39.1035 11.2542C40.0595 10.0445 41.2156 9.31006 42.1493 8.87804C42.6162 8.66203 43.0164 8.53242 43.3054 8.44602C43.4388 8.40282 43.5722 8.38122 43.6389 8.35962C43.6833 8.35962 43.7056 8.33802 43.7278 8.33802H43.75L43.6833 8.014L43.3499 8.0356C43.3499 8.0356 43.3499 8.0788 43.3499 8.16521C43.3721 8.79164 43.4833 11.5134 43.0386 13.6087C42.8608 14.4511 42.594 15.1855 42.2382 15.6176C41.5046 16.5464 40.3707 17.3672 39.437 17.9505C38.9701 18.2313 38.5477 18.4689 38.2364 18.6201C38.0808 18.7065 37.9696 18.7497 37.8807 18.7929C37.8362 18.8145 37.814 18.8361 37.7918 18.8361L37.7695 18.8577L37.8807 19.1817L38.2142 19.1169L37.8807 19.1817L38.0141 19.4841C38.0141 19.4841 38.7922 19.1385 39.7705 18.5337C40.7487 17.9289 41.927 17.0864 42.7496 16.0496C43.2165 15.4664 43.4833 14.6455 43.6833 13.7599C43.9501 12.4854 44.0391 11.0597 44.0391 9.93649C44.0613 8.81324 43.9946 8.014 43.9946 7.9924C43.9946 7.906 43.9501 7.81959 43.8612 7.75479C43.7945 7.68999 43.6833 7.66838 43.5944 7.68999C43.5722 7.68999 42.8385 7.81959 41.8381 8.27321C40.8376 8.72683 39.5704 9.52607 38.5477 10.8437C38.0141 11.5134 37.7029 12.3774 37.525 13.263C37.236 14.6455 37.236 16.1144 37.3249 17.2592C37.3916 18.4041 37.5472 19.2033 37.5472 19.2249C37.5695 19.3329 37.6362 19.4193 37.7251 19.4625C37.814 19.5057 37.9252 19.5057 38.0141 19.4625L37.8807 19.1817Z" fill="#9B2C60"/>
<path d="M38.8367 11.0597C38.8367 11.0597 38.7255 5.65943 36.7024 6.00504C34.6792 6.35066 33.0785 8.14354 31.4555 8.76997C29.8326 9.3964 27.1425 9.00759 26.5422 10.4549C25.9419 11.9021 28.8321 14.451 31.1443 16.5895C33.4564 18.728 34.946 19.3113 37.8807 19.1601C40.8153 19.0089 38.8367 11.0597 38.8367 11.0597Z" fill="white"/>
<path d="M39.1702 11.0597C39.1702 11.0597 39.1479 9.87169 38.9034 8.61883C38.7922 7.9924 38.6144 7.34437 38.3476 6.82594C38.2142 6.56673 38.0585 6.32912 37.8585 6.11311C37.6584 5.9187 37.4138 5.76749 37.1248 5.70269C36.9692 5.65949 36.7913 5.65949 36.6134 5.70269C35.5241 5.8971 34.5681 6.45873 33.701 7.04195C32.834 7.62518 32.0558 8.20841 31.2999 8.48922C30.9442 8.61883 30.4773 8.72683 30.0104 8.79164C29.299 8.89964 28.4987 8.96444 27.8095 9.15885C27.4537 9.24526 27.1425 9.37486 26.8535 9.56927C26.5644 9.76368 26.3421 10.0229 26.1865 10.3685C26.1643 10.4549 26.1198 10.5197 26.1198 10.6061C26.0753 10.8437 26.0753 11.1029 26.142 11.3406C26.2532 11.7726 26.4755 12.2046 26.7868 12.6582C27.2536 13.3278 27.9206 14.0407 28.632 14.7535C29.3657 15.4664 30.1438 16.1792 30.8775 16.8488C31.6556 17.5617 32.3226 18.1017 33.034 18.5337C33.7232 18.9441 34.4124 19.2249 35.1906 19.3761C35.9909 19.5273 36.858 19.5705 37.8807 19.5057C38.1252 19.4841 38.3698 19.4193 38.5699 19.3113C38.8811 19.1601 39.1035 18.9009 39.2813 18.5985C39.4592 18.2961 39.5703 17.9505 39.6593 17.5833C39.9261 16.3304 39.7927 14.6887 39.5926 13.3495C39.3925 12.0102 39.1479 10.9949 39.1479 10.9733C39.1035 10.8005 38.9256 10.6925 38.7477 10.7357C38.5699 10.7789 38.4587 10.9517 38.5032 11.1245V11.1677C38.5477 11.3838 38.7922 12.4206 38.9701 13.6735C39.1479 14.9263 39.2369 16.3952 39.0145 17.432C38.9256 17.8641 38.77 18.2313 38.5921 18.4473C38.5032 18.5553 38.392 18.6417 38.2809 18.7065C38.1697 18.7713 38.0363 18.8145 37.8807 18.8145C36.9025 18.8793 36.0799 18.8361 35.3684 18.6849C34.6792 18.5553 34.0567 18.2961 33.4342 17.9289C32.8117 17.54 32.1447 17.0216 31.3889 16.3304C30.2772 15.2935 29.0322 14.1919 28.1429 13.155C27.6983 12.6366 27.3203 12.1614 27.098 11.7294C26.9869 11.5134 26.8979 11.319 26.8535 11.1461C26.809 10.9733 26.809 10.8221 26.8312 10.6925C26.8312 10.6493 26.8535 10.6061 26.8757 10.5629C26.9869 10.2821 27.1869 10.0877 27.4982 9.93649C27.9651 9.69888 28.6543 9.59087 29.4102 9.48287C30.1438 9.37486 30.922 9.28846 31.5889 9.05085C32.4782 8.70523 33.2786 8.1004 34.1234 7.53878C34.9683 6.97715 35.8353 6.45873 36.7691 6.30752C36.858 6.28592 36.9469 6.28592 37.0136 6.30752C37.147 6.32912 37.2582 6.39392 37.3916 6.52353C37.6139 6.73954 37.814 7.12836 37.9696 7.60358C38.2142 8.31641 38.3476 9.18045 38.4143 9.85009C38.4587 10.1957 38.481 10.4765 38.481 10.6925C38.481 10.8005 38.481 10.8869 38.5032 10.9301C38.5032 10.9949 38.5032 11.0165 38.5032 11.0165C38.5032 11.1893 38.6588 11.3406 38.8589 11.3406C39.0368 11.3838 39.1702 11.2326 39.1702 11.0597Z" fill="#9B2C60"/>
<path d="M33.0118 18.1233C33.0118 18.1233 27.2092 16.1144 24.897 16.7624C24.897 16.7624 26.9424 19.873 28.6988 20.413C30.4551 20.953 34.8126 20.2834 36.0132 19.1601C37.236 18.0153 33.0118 18.1233 33.0118 18.1233Z" fill="white"/>
<path d="M33.0118 18.1232L33.123 17.8208C33.123 17.8208 31.0109 17.0864 28.8099 16.6543C28.0762 16.5031 27.3426 16.3951 26.6534 16.3519C25.9642 16.3087 25.3417 16.3303 24.8081 16.4815C24.6969 16.5031 24.6302 16.5895 24.5858 16.6759C24.5413 16.7624 24.5635 16.892 24.608 16.9784C24.608 16.9784 25.1416 17.7776 25.8752 18.6416C26.2532 19.0737 26.6756 19.5273 27.1425 19.9161C27.6094 20.3049 28.0762 20.6289 28.5876 20.7801C28.6987 20.8233 28.8099 20.8449 28.9433 20.8665C29.4546 20.9745 30.0994 20.9962 30.7663 20.9745C31.789 20.9313 32.9006 20.7801 33.9011 20.5209C34.3902 20.3913 34.8571 20.2401 35.2573 20.0673C35.6575 19.8945 35.9909 19.7001 36.2577 19.4409C36.4134 19.2897 36.5245 19.1385 36.569 18.9657C36.6134 18.8144 36.569 18.6632 36.5023 18.5336C36.3911 18.3608 36.2133 18.2528 36.0354 18.188C35.8575 18.1016 35.6575 18.0584 35.4351 18.0152C34.9238 17.9072 34.3235 17.864 33.8344 17.864C33.3453 17.8424 32.9896 17.864 32.9896 17.864L33.0118 18.1232L33.123 17.8208L33.0118 18.1232V18.4472C33.0118 18.4472 33.034 18.4472 33.0785 18.4472C33.3453 18.4472 34.5236 18.4472 35.3017 18.5984C35.5463 18.6416 35.7464 18.7064 35.8353 18.7712L35.8798 18.8144L35.902 18.836L35.9242 18.8144H35.902L35.9242 18.7928H35.902L35.9687 18.7712L35.902 18.7496V18.7928L35.9687 18.7712L35.902 18.7496C35.902 18.7712 35.8575 18.8144 35.7908 18.8793C35.5685 19.0953 35.1461 19.3329 34.6125 19.5273C33.8122 19.8297 32.7673 20.0457 31.7446 20.1537C30.7441 20.2617 29.7437 20.2617 29.0989 20.1321C28.9878 20.1105 28.8988 20.0889 28.8099 20.0673C28.432 19.9593 28.0095 19.6785 27.5871 19.3329C26.9646 18.836 26.3421 18.1448 25.8975 17.5832C25.6751 17.3024 25.4973 17.0432 25.3639 16.8704C25.2972 16.784 25.2527 16.7191 25.2083 16.6543L25.1638 16.5895L25.1416 16.5679L24.8525 16.7407L24.9415 17.0648C25.3417 16.9568 25.9197 16.9136 26.5644 16.9568C27.2092 17 27.9206 17.108 28.632 17.2592C29.6992 17.4752 30.7663 17.756 31.5445 17.9936C31.9447 18.1016 32.2559 18.2096 32.5005 18.296C32.6116 18.3392 32.7006 18.3608 32.7673 18.3824C32.8339 18.404 32.8562 18.404 32.8562 18.404C32.9006 18.4256 32.9451 18.4256 32.9673 18.4256L33.0118 18.1232Z" fill="#9B2C60"/>
<path d="M32.4338 7.9708C32.4115 7.9492 31.7001 7.40918 30.4996 7.17156C29.8548 7.04196 29.0767 6.99876 28.2096 7.14996C27.5649 7.25797 27.0313 7.47398 26.6089 7.73319C25.9642 8.14361 25.564 8.66203 25.2527 9.15886C24.9415 9.65568 24.6969 10.1093 24.4079 10.3901C23.8743 10.9517 23.4297 11.8374 23.2296 12.723C23.1629 13.0686 23.1184 13.4359 23.1407 13.7815C23.1629 14.1271 23.2518 14.4511 23.4297 14.7535C23.6298 15.0775 23.9188 15.3583 24.2523 15.6176C24.7636 16.0064 25.3639 16.3304 25.8308 16.568C26.2977 16.8056 26.6534 16.9568 26.6534 16.9568C26.8312 17.0216 27.0313 16.9568 27.098 16.784C27.1647 16.6112 27.098 16.4168 26.9202 16.352H26.8979C26.7645 16.3088 26.1643 16.0496 25.5195 15.6824C25.2083 15.5096 24.8748 15.2935 24.608 15.0775C24.3412 14.8615 24.1189 14.6239 24.0077 14.4295C23.8966 14.2351 23.8299 14.0191 23.8076 13.7383C23.7854 13.4791 23.8076 13.1766 23.8743 12.8526C24.03 12.0966 24.4524 11.2974 24.8748 10.8437C25.1193 10.5845 25.3194 10.2821 25.4973 9.95809C25.7863 9.50447 26.0531 9.02925 26.4755 8.64043C26.8979 8.25162 27.4315 7.9276 28.2763 7.77639C29.0767 7.64679 29.7659 7.68999 30.3217 7.79799C30.8553 7.906 31.2777 8.07881 31.5667 8.23001C31.7001 8.29482 31.8113 8.35962 31.878 8.40282C31.9224 8.42442 31.9447 8.44602 31.9447 8.44602L31.9669 8.46763L32.0336 8.40282L31.9669 8.46763L32.0336 8.40282L31.9669 8.46763C32.1225 8.57563 32.3226 8.55403 32.4338 8.42442C32.6116 8.29482 32.5672 8.07881 32.4338 7.9708Z" fill="#9B2C60"/>
<path d="M41.6824 8.96442C41.6824 8.94281 41.7936 8.16518 41.6157 7.23633C41.5268 6.76111 41.3934 6.26429 41.1044 5.78907C40.8376 5.31384 40.4374 4.88182 39.8594 4.60101C39.3036 4.3202 38.7478 4.14739 38.2364 4.03938C37.7028 3.93138 37.1915 3.88818 36.7691 3.86658C36.3244 3.84497 35.9687 3.82337 35.6797 3.75857C35.5019 3.71537 35.3685 3.67217 35.2573 3.60736C34.6348 3.24015 33.5899 2.61372 32.4783 2.37611C32.0336 2.2897 31.5667 2.2681 31.1221 2.37611C30.3884 2.54891 29.6548 2.95933 28.9656 3.41295C28.2986 3.86658 27.6761 4.3634 27.2314 4.68741C26.7868 5.01143 26.0531 5.42185 25.3862 5.94027C25.0527 6.19949 24.7192 6.4803 24.4302 6.78271C24.1634 7.08513 23.9188 7.43074 23.8077 7.79796C23.7854 7.86276 23.7632 7.92757 23.7632 7.99237C23.6076 8.6836 23.7632 9.37483 23.9411 9.89326C24.1189 10.4117 24.319 10.7573 24.3412 10.7789C24.4302 10.9301 24.6525 10.9949 24.8081 10.8869C24.9637 10.8005 25.0304 10.5845 24.9193 10.4333C24.897 10.4117 24.7192 10.0877 24.5636 9.63405C24.4079 9.18043 24.2968 8.6188 24.4079 8.12198C24.4079 8.07877 24.4302 8.01397 24.4524 7.97077C24.5191 7.71156 24.697 7.45234 24.9193 7.19313C25.275 6.80431 25.7641 6.4371 26.2532 6.09148C26.7423 5.74586 27.2537 5.46505 27.6094 5.20584C28.0763 4.86022 28.6765 4.385 29.3213 3.95298C29.966 3.52096 30.6552 3.15374 31.2555 3.00253C31.5667 2.91613 31.9447 2.93773 32.3226 3.02414C33.2564 3.21855 34.2568 3.80177 34.8793 4.16899C35.0794 4.27699 35.3018 4.3634 35.5241 4.4066C35.8798 4.4714 36.28 4.49301 36.7024 4.51461C37.1248 4.53621 37.5917 4.57941 38.0808 4.66581C38.5477 4.75222 39.0146 4.90342 39.5259 5.16264C39.9705 5.37865 40.2596 5.70266 40.4819 6.09148C40.8154 6.65311 40.9488 7.36594 40.971 7.90597C40.9932 8.18678 40.9932 8.42439 40.971 8.5972C40.971 8.6836 40.971 8.74841 40.9488 8.79161V8.83481V8.85641C40.9265 9.02922 41.0599 9.20203 41.2378 9.22363C41.4823 9.28843 41.6602 9.15882 41.6824 8.96442Z" fill="#9B2C60"/>
<path d="M33.034 2.6137L32.9229 2.5705L33.034 2.6137L32.9229 2.5705L33.034 2.6137C33.034 2.6137 33.2786 2.16008 33.8122 1.68486C34.3457 1.20964 35.1461 0.734415 36.28 0.669612C36.7468 0.648011 37.1692 0.669612 37.5472 0.756016C38.3253 0.907223 38.9478 1.25284 39.3702 1.53365C39.5926 1.68486 39.7482 1.81447 39.8594 1.92247C39.9038 1.96567 39.9483 2.00887 39.9705 2.03048L39.9928 2.05208C40.0372 2.09528 40.0817 2.13848 40.1484 2.16008C40.1484 2.16008 40.3262 2.20328 40.6153 2.28969C41.0377 2.41929 41.7046 2.6137 42.3049 2.82971C42.6162 2.93772 42.9052 3.04572 43.1275 3.15373C43.3721 3.26173 43.5499 3.34814 43.6389 3.41294C44.3058 3.88816 44.8394 4.55779 45.1506 5.27063C45.4841 5.98346 45.5953 6.7179 45.4619 7.32272C45.4397 7.40913 45.4174 7.49553 45.3952 7.56034C45.2618 7.92755 45.1506 8.40277 45.0395 8.9428C44.8394 9.76364 44.6171 10.7357 44.2836 11.6429C43.9501 12.5718 43.5055 13.4358 42.9052 14.0622C42.7718 14.1918 42.794 14.4079 42.9274 14.5375C43.0608 14.6671 43.2831 14.6455 43.4165 14.5159C44.3503 13.5438 44.8839 12.183 45.2618 10.8869C45.4397 10.2389 45.5953 9.61243 45.7287 9.07241C45.8621 8.53238 45.9732 8.05716 46.0844 7.75475C46.1289 7.64674 46.1511 7.53873 46.1733 7.43073C46.329 6.65309 46.1733 5.78905 45.8176 4.98981C45.4397 4.19058 44.8394 3.43454 44.0835 2.87292C43.9723 2.78651 43.8389 2.72171 43.6833 2.65691C43.1497 2.39769 42.3271 2.11688 41.6379 1.90087C40.9487 1.68486 40.3707 1.51205 40.3707 1.51205L40.2818 1.83607L40.5263 1.62006C40.5041 1.59846 39.4814 0.453602 37.6806 0.0863846C37.2359 -1.94106e-05 36.7468 -0.0432214 36.2355 -1.94088e-05C34.9016 0.0863846 33.9456 0.669612 33.3231 1.20964C32.7006 1.74966 32.4338 2.26809 32.4115 2.28969C32.3226 2.4409 32.3893 2.65691 32.5672 2.74331C32.745 2.85131 32.9451 2.78651 33.034 2.6137Z" fill="#9B2C60"/>
</g>
</g>
<defs>
<clipPath id="clip0_17_205">
<rect width="64" height="68" fill="white" transform="translate(2)"/>
</clipPath>
<clipPath id="clip1_17_205">
<rect width="49" height="68" fill="white" transform="translate(7)"/>
</clipPath>
</defs>
</svg>
