<svg width="68" height="68" viewBox="0 0 68 68" fill="none" xmlns="http://www.w3.org/2000/svg">
<g clip-path="url(#clip0_8_6990)">
<path d="M52.2001 54.3411C63.6836 42.557 63.6836 23.4513 52.2001 11.6672C40.7167 -0.116841 22.0984 -0.116841 10.615 11.6672C-0.868404 23.4513 -0.868404 42.557 10.615 54.3411C22.0984 66.1251 40.7167 66.1251 52.2001 54.3411Z" fill="#FFD6E6"/>
<path d="M46.5818 24.3219C45.3874 22.7582 45.9022 19.7787 46.1082 18.9123C46.3965 17.5811 48.0438 17.0528 48.538 16.926L48.641 16.9049L48.6822 16.7992C48.9293 16.1653 49.2176 15.5525 49.5264 15.0876C50.4325 13.6295 53.8714 11.4742 56.363 12.2771C58.7723 13.059 60.5638 15.0665 60.7491 15.2989L60.8109 15.3623L60.8932 15.3834C61.408 15.4468 61.9022 15.637 62.3759 15.9328C62.9318 16.2709 63.426 16.7147 63.8791 17.3064C64.8469 18.5531 65.4647 20.3281 65.6294 22.2933C65.7118 23.2865 65.547 24.1951 65.1146 25.0192L65.0734 25.1037L65.1146 25.2094C65.3823 27.3014 63.9614 28.8862 62.6436 29.6047C61.8611 30.0273 61.3051 29.9428 60.8315 29.8582C60.6255 29.816 60.399 29.7737 60.1931 29.816C59.843 29.8794 59.493 30.1118 59.0811 30.4077C58.6281 30.7246 58.1339 31.0839 57.5161 31.2318C56.5689 31.4853 53.4595 31.105 52.327 30.471C51.8739 30.2175 51.4003 29.7949 50.9473 29.1821C50.1236 28.1255 49.547 26.8576 49.4029 26.4984L49.3617 26.435L49.2999 26.3927C48.2497 25.8222 47.3231 25.146 46.7671 24.5543C46.6847 24.4698 46.6436 24.4064 46.5818 24.3219Z" fill="white"/>
<path d="M54.0979 22.7793L53.9331 23.0963C53.9537 23.0963 54.3038 23.2865 54.7774 23.371C55.0245 23.4132 55.2922 23.4344 55.5805 23.3921C55.8688 23.3498 56.1776 23.2442 56.4453 23.0118C56.7542 22.7793 56.9807 22.3989 57.1455 21.8918C57.2484 21.5326 57.2896 21.2156 57.2484 20.9198C57.2072 20.6239 57.1043 20.3915 56.9601 20.1802C56.7954 19.9689 56.5895 19.8209 56.3836 19.7153C56.0747 19.5674 55.7658 19.4828 55.5187 19.4617C55.2716 19.4195 55.1069 19.4406 55.1069 19.4406H55.0863C55.0657 19.4406 54.8598 19.4617 54.5715 19.5251C54.2832 19.5885 53.9125 19.7153 53.6036 19.9689C53.3977 20.1379 53.2124 20.3492 53.1094 20.6451C52.9653 21.0677 52.9653 21.4692 53.0477 21.7861C53.13 22.1242 53.2948 22.3778 53.4389 22.5891C53.6448 22.8638 53.8507 23.0118 53.8713 23.0329L53.9125 23.054L54.0979 22.7793L54.3038 22.4835L54.2214 22.6103L54.3038 22.4835L54.2214 22.6103L54.3038 22.4835C54.3038 22.4835 54.1596 22.3778 54.0155 22.1876C53.9125 22.0397 53.8096 21.8707 53.7478 21.6594C53.686 21.448 53.686 21.2156 53.789 20.9409C53.8302 20.793 53.9125 20.6873 54.0361 20.5817C54.2214 20.4338 54.5097 20.3281 54.7362 20.2647C54.8598 20.2436 54.9627 20.2224 55.0245 20.2013H55.1069H55.1275V20.159V20.2013V20.159V20.2013L55.1069 19.8421V20.2013V20.1802V20.2013V20.1802V20.2013C55.1275 20.2013 55.3746 20.2013 55.6423 20.2647C55.7864 20.307 55.9305 20.3492 56.0541 20.4126C56.1776 20.476 56.3012 20.5605 56.363 20.6662C56.4453 20.7718 56.4865 20.8775 56.5071 21.0466C56.5277 21.2156 56.5071 21.4269 56.4247 21.7016C56.3012 22.082 56.1365 22.3144 55.9717 22.4623C55.807 22.5891 55.6423 22.6525 55.4363 22.6948C55.148 22.737 54.8392 22.6948 54.5921 22.6103C54.4685 22.568 54.3655 22.5469 54.3038 22.5046C54.2626 22.4835 54.242 22.4835 54.2214 22.4623H54.2008L54.1802 22.5257L54.2008 22.4623L54.1802 22.5257L54.2008 22.4623L54.0979 22.7793L54.3038 22.4835L54.0979 22.7793Z" fill="#9B2C60"/>
<path d="M54.0978 22.7793L53.8919 23.0752C53.9125 23.0752 54.5509 23.5612 55.4157 23.8993C55.8481 24.0683 56.3424 24.1951 56.8572 24.1951C57.372 24.1951 57.8868 24.0683 58.3398 23.7091C58.5869 23.4978 58.8134 23.2442 58.9987 22.9061C59.39 22.1877 59.5341 21.4692 59.4723 20.793C59.4106 20.138 59.1635 19.5463 58.7928 19.0603C58.1545 18.2362 57.2072 17.729 56.2188 17.729C55.4981 17.729 54.7774 18.0248 54.1802 18.5109C53.6036 18.9757 53.1506 19.6097 53.0065 20.3704C52.8417 21.1311 53.027 21.9975 53.6448 22.8005C53.7066 22.885 53.7684 22.9484 53.8301 23.0329L53.8919 23.0752L54.0978 22.7793L54.3655 22.5469C54.3038 22.4835 54.2626 22.4201 54.2008 22.3567C53.686 21.6805 53.583 21.0677 53.686 20.5183C53.7889 19.9689 54.139 19.4618 54.6126 19.0814C55.1068 18.6799 55.704 18.4475 56.2188 18.4475C56.9395 18.4475 57.722 18.849 58.2162 19.504C58.5045 19.8844 58.7104 20.3493 58.7516 20.8564C58.7928 21.3636 58.6899 21.9341 58.3604 22.5469C58.2162 22.8216 58.0515 22.9907 57.8868 23.1386C57.5779 23.3921 57.2278 23.4767 56.8366 23.4767C56.26 23.4767 55.601 23.2442 55.1068 22.9907C54.8597 22.8639 54.6538 22.7371 54.5097 22.6526C54.4273 22.6103 54.3861 22.568 54.3449 22.5469L54.3037 22.5258H54.2832L54.0978 22.7793L54.3655 22.5469L54.0978 22.7793Z" fill="#9B2C60"/>
<path d="M55.251 23.8359C55.2716 23.8359 56.0335 24.2162 57.0425 24.4275C57.5367 24.5332 58.1133 24.5755 58.6692 24.5121C59.2458 24.4487 59.8018 24.2585 60.296 23.857C60.6461 23.5823 60.955 23.1808 61.1609 22.6737C61.6345 21.596 61.964 20.5817 62.0463 19.6519C62.1287 18.7221 61.9434 17.8558 61.3874 17.1373C60.955 16.5668 60.296 16.0807 59.39 15.7004C58.0515 15.1298 56.5894 15.0031 55.251 15.1721C53.9125 15.3623 52.677 15.8483 51.7915 16.5456C51.4826 16.7992 51.2149 17.0739 51.009 17.3697C50.3707 18.2784 49.7735 19.6308 49.5264 21.0888C49.4028 21.8073 49.3616 22.5469 49.4646 23.2442C49.5676 23.9415 49.8147 24.6177 50.2471 25.1883C50.3912 25.3784 50.5766 25.5686 50.7619 25.7165C51.8945 26.6886 53.13 27.3648 54.1802 27.8719C55.251 28.3579 56.157 28.6749 56.6306 28.844C56.9395 28.9496 57.2484 28.9707 57.5573 28.9707C58.4839 28.9285 59.3694 28.5692 59.39 28.5692C59.5753 28.5059 59.6577 28.2945 59.5959 28.1044C59.5341 27.9142 59.3282 27.8297 59.1429 27.8931H59.1223C59.0399 27.9142 58.6692 28.0621 58.2162 28.1678C57.7632 28.2734 57.2278 28.2945 56.8777 28.1678C56.3835 27.9987 55.5187 27.7029 54.4891 27.2169C53.4595 26.7308 52.2857 26.0758 51.2149 25.1671C51.0502 25.0403 50.9266 24.8924 50.8031 24.7445C50.453 24.3008 50.2677 23.7513 50.1647 23.1385C50.0412 22.2299 50.1647 21.1945 50.453 20.2436C50.7413 19.2927 51.1737 18.4052 51.5856 17.8135C51.7503 17.5811 51.9768 17.3486 52.2445 17.1373C53.0064 16.5245 54.1184 16.0596 55.3539 15.9117C56.5894 15.7426 57.9279 15.8694 59.1429 16.3977C59.9665 16.7569 60.5019 17.1584 60.852 17.6022C61.2844 18.1727 61.4286 18.8067 61.3668 19.6096C61.305 20.4126 60.9961 21.3424 60.5431 22.3778C60.3578 22.7793 60.1313 23.0752 59.8842 23.2865C59.5135 23.5823 59.0811 23.7302 58.6075 23.7725C57.9073 23.857 57.1248 23.7091 56.5483 23.5189C56.26 23.4344 56.0129 23.3287 55.8275 23.2653C55.7452 23.2231 55.6834 23.2019 55.6216 23.1808L55.5804 23.1597H55.5598C55.3745 23.0752 55.1686 23.1597 55.0862 23.3287C55.0039 23.5189 55.0656 23.7513 55.251 23.8359Z" fill="#9B2C60"/>
<path d="M53.13 20.6451C53.13 20.6662 52.8417 21.2367 52.677 21.9975C52.5946 22.3778 52.5328 22.8004 52.5534 23.2442C52.574 23.6668 52.6564 24.1106 52.9035 24.5121C52.9447 24.5755 53.0065 24.66 53.0682 24.7445C53.3565 25.1249 53.8301 25.5898 54.4067 26.0758C55.2716 26.8154 56.3835 27.5761 57.5573 28.0832C58.1339 28.3368 58.731 28.527 59.3282 28.6326C59.9254 28.7172 60.502 28.696 61.0374 28.527C62.067 28.1889 63.0554 27.7029 63.8791 27.0267C64.5586 26.4773 65.1352 25.8011 65.5058 24.9981C65.8765 24.1951 66.0618 23.2653 65.9794 22.2299C65.7941 20.0745 65.1352 18.3206 64.1673 17.0528C63.6937 16.44 63.1583 15.9328 62.5612 15.5947C61.6757 15.0665 60.852 14.9397 60.0489 14.9608C59.2458 14.9819 58.4428 15.151 57.4955 15.1932C57.3102 15.1932 57.1455 15.3834 57.166 15.5736C57.166 15.7638 57.3514 15.9328 57.5367 15.9117C58.5251 15.8694 59.3488 15.7004 60.0695 15.6793C60.7902 15.6581 61.4286 15.7426 62.2111 16.2075C62.7053 16.5034 63.1995 16.9471 63.6114 17.4965C64.4762 18.6165 65.1146 20.2436 65.2793 22.2933C65.3617 23.2019 65.1969 24.0049 64.8675 24.6811C64.538 25.3784 64.0438 25.9701 63.426 26.4561C62.6847 27.0478 61.7787 27.5127 60.8108 27.8297C60.2549 28.0198 59.5959 27.9776 58.8958 27.8085C57.8456 27.5338 56.6924 26.8999 55.7452 26.2237C54.7774 25.5264 53.9949 24.7868 53.6242 24.3008C53.583 24.2374 53.5418 24.174 53.5007 24.1317C53.3359 23.8781 53.2741 23.5823 53.2536 23.2442C53.233 22.7371 53.3565 22.1665 53.5007 21.7228C53.5624 21.5114 53.6448 21.3213 53.686 21.1945C53.7066 21.1311 53.7272 21.0888 53.7478 21.0466L53.7684 21.0043C53.8507 20.8141 53.789 20.6028 53.6036 20.5183C53.4389 20.3915 53.2124 20.476 53.13 20.6451Z" fill="#9B2C60"/>
<path d="M61.0374 15.0876C61.0374 15.0664 60.5432 14.4959 59.7401 13.8197C58.937 13.1435 57.8044 12.3616 56.4659 11.9179C55.4157 11.5798 54.2626 11.7277 53.1918 12.0869C52.121 12.4462 51.1326 13.0378 50.3707 13.6506C49.8559 14.0733 49.4646 14.4748 49.2175 14.8762C48.9087 15.3623 48.5792 16.0385 48.3115 16.778C48.0438 17.4754 47.8379 18.2361 47.7555 18.9757C47.6731 19.7153 47.6937 20.4337 47.9408 21.0677C48.4968 22.4623 49.2999 23.5611 49.5676 23.9204C49.6294 24.0049 49.6706 24.0472 49.6706 24.0472C49.7941 24.1951 50.0206 24.2162 50.1648 24.0894C50.3089 23.9626 50.3295 23.7302 50.206 23.5823L50.1854 23.5611C50.1648 23.54 50.1442 23.5189 50.1236 23.4766C49.8559 23.1385 49.1146 22.082 48.5792 20.793C48.3939 20.3492 48.3527 19.7364 48.435 19.0602C48.5174 18.4051 48.7027 17.6867 48.9498 17.0316C49.197 16.3343 49.5264 15.7004 49.7941 15.2566C49.9794 14.9608 50.3295 14.5804 50.8031 14.2212C51.5033 13.6718 52.4299 13.1012 53.3977 12.7843C54.3656 12.4462 55.3746 12.3405 56.2394 12.6152C57.4544 12.9956 58.5251 13.7352 59.287 14.3902C59.6577 14.7072 59.9666 15.003 60.1725 15.2143C60.2755 15.32 60.3578 15.4045 60.399 15.4679C60.4196 15.489 60.4402 15.5102 60.4608 15.5313L60.4814 15.5524C60.6049 15.7004 60.8314 15.7215 60.9756 15.5947C61.1403 15.4679 61.1609 15.2355 61.0374 15.0876Z" fill="#9B2C60"/>
<path d="M48.5792 16.5457C48.5586 16.5457 48.3115 16.609 47.9408 16.7358C47.5702 16.8837 47.1171 17.0951 46.6847 17.4332C46.2729 17.7713 45.9022 18.215 45.7787 18.8278C45.6139 19.5885 45.4698 20.624 45.4904 21.6594C45.511 22.6948 45.7169 23.7514 46.3346 24.5544C46.3964 24.6389 46.4582 24.7023 46.52 24.7657C47.1995 25.4841 48.2085 26.1603 49.1969 26.7097C49.6911 26.9844 50.1648 27.1957 50.5972 27.3648C51.0296 27.5338 51.4003 27.6395 51.6886 27.6606C52.6564 27.7029 53.7066 27.6184 53.7272 27.6184C53.9125 27.5972 54.0772 27.4282 54.0567 27.238C54.0361 27.0478 53.8713 26.8788 53.686 26.8999H53.6448C53.4389 26.921 52.5328 26.9844 51.7503 26.9422C51.5856 26.9422 51.2561 26.8576 50.8649 26.7097C50.4736 26.5618 50.0206 26.3505 49.547 26.0969C48.5998 25.5898 47.6319 24.9136 47.0348 24.3008C46.9936 24.2585 46.9318 24.1951 46.8906 24.1317C46.4376 23.5401 46.2317 22.6314 46.2111 21.6594C46.1905 20.7085 46.3346 19.7153 46.4788 19.018C46.5612 18.6165 46.8083 18.2995 47.1377 18.0248C47.4672 17.7501 47.879 17.5599 48.2085 17.4332C48.3733 17.3698 48.5174 17.3275 48.5998 17.3064C48.641 17.2852 48.6821 17.2852 48.7027 17.2852H48.7233C48.9086 17.243 49.0322 17.0528 48.991 16.8626C48.9498 16.6302 48.7645 16.5034 48.5792 16.5457Z" fill="#9B2C60"/>
<path d="M49.0116 26.5407C49.0116 26.5618 49.6499 28.1044 50.6383 29.3934C51.0708 29.9428 51.565 30.4711 52.1416 30.788C52.471 30.9571 52.9035 31.105 53.3771 31.2318C54.0978 31.422 54.9421 31.5487 55.704 31.6121C56.0952 31.6544 56.4453 31.6544 56.7748 31.6544C57.1042 31.6544 57.3719 31.6333 57.5985 31.5699C58.2574 31.4008 58.7722 31.0416 59.2046 30.7246C59.4311 30.5767 59.6165 30.4288 59.8018 30.3231C59.9871 30.2175 60.1313 30.1541 60.2548 30.133C60.3578 30.1118 60.4607 30.133 60.6255 30.1541C60.852 30.1963 61.1609 30.2597 61.5315 30.2597C61.9022 30.2597 62.3346 30.1541 62.8288 29.9005C63.0965 29.7526 63.3642 29.5624 63.6525 29.3511C64.1673 28.9285 64.6821 28.3579 65.0528 27.6606C65.4028 26.9633 65.6087 26.0969 65.4852 25.146C65.4646 24.9558 65.2793 24.8079 65.0939 24.829C64.9086 24.8502 64.7645 25.0404 64.7851 25.2305C64.888 26.0335 64.7233 26.7308 64.435 27.3225C64.1261 27.9142 63.6937 28.4213 63.2201 28.7806C62.973 28.9707 62.7259 29.1398 62.4993 29.2666C61.964 29.5413 61.6139 29.5624 61.2638 29.5413C61.0991 29.5202 60.9138 29.4779 60.749 29.4568C60.5637 29.4356 60.3784 29.4145 60.1725 29.4356C59.9253 29.4779 59.6988 29.5835 59.4723 29.7103C59.1429 29.9005 58.834 30.133 58.5045 30.3654C58.175 30.5767 57.825 30.7669 57.4543 30.8725C57.269 30.9148 56.9189 30.9571 56.4865 30.9359C55.8481 30.9148 55.045 30.8303 54.3037 30.6824C53.5624 30.5344 52.8829 30.3443 52.5122 30.133C52.0798 29.9005 51.6268 29.4568 51.2355 28.9285C50.7825 28.3368 50.3912 27.6606 50.1235 27.1323C49.9794 26.8788 49.8764 26.6463 49.8147 26.4984C49.7735 26.4139 49.7529 26.3505 49.7323 26.3082C49.7117 26.266 49.7117 26.2448 49.7117 26.2448C49.6293 26.0546 49.4234 25.9701 49.2381 26.0546C49.0322 26.1392 48.9498 26.3505 49.0116 26.5407Z" fill="#9B2C60"/>
<path d="M53.7478 21.7016C53.8302 21.4692 53.9743 21.2579 54.1185 21.1522C54.242 21.0466 54.3656 21.0254 54.4685 21.0254C54.5715 21.0466 54.7156 21.0888 54.8804 21.3213C54.9215 21.3847 54.9627 21.4481 55.0039 21.5115C55.0657 21.6382 55.0863 21.7228 55.0657 21.8284C55.0451 21.9341 54.9833 22.0186 54.901 22.1031C54.798 22.1877 54.6744 22.2299 54.5303 22.2299C54.3862 22.2299 54.2008 22.1877 53.9949 22.0609C53.8302 21.9552 53.6037 21.9975 53.5007 22.1665C53.3977 22.3356 53.4389 22.568 53.6037 22.6737C53.9125 22.8639 54.242 22.9695 54.5509 22.9484C54.8598 22.9484 55.1275 22.8427 55.3334 22.6525C55.5393 22.4835 55.704 22.251 55.7658 21.9763C55.8276 21.7016 55.7864 21.4058 55.6217 21.1311C55.5599 21.0254 55.4981 20.9409 55.4364 20.8564C55.1892 20.5394 54.8804 20.3281 54.5509 20.2859C54.2214 20.2436 53.9125 20.3704 53.686 20.5606C53.4183 20.793 53.2124 21.0888 53.0889 21.4481C53.0271 21.6382 53.13 21.8496 53.2948 21.913C53.4801 21.9763 53.686 21.8707 53.7478 21.7016Z" fill="#9B2C60"/>
<path d="M18.0618 25.2095C17.5676 24.7023 16.888 24.1106 16.2085 23.8571C15.7555 23.6669 15.323 23.6246 14.9112 23.7725C14.52 23.8993 14.1905 24.0684 13.8816 24.2586C13.3874 24.5544 12.9961 24.9136 12.6461 25.2517C12.296 25.5898 11.9665 25.9068 11.6165 26.1181C11.4723 26.2026 11.3076 26.2871 11.1429 26.3294C10.5251 26.4985 9.55727 26.752 8.83655 27.2169C8.4659 27.4494 8.15702 27.7241 7.97169 28.0622C7.6834 28.5693 7.49807 29.3089 7.37452 30.0696C7.25097 30.8303 7.18919 31.5911 7.12742 32.1616C7.06564 32.6054 6.94209 33.1548 6.85972 33.7464C6.75676 34.317 6.69498 34.9298 6.73617 35.4369C6.75676 35.775 6.83913 36.0709 6.96268 36.2822L6.98327 36.3244C7.25097 36.7682 7.70399 37.1063 8.13642 37.3176C8.23938 37.3599 8.32175 37.4021 8.42471 37.4444C8.36294 37.1908 8.28057 36.895 8.1982 36.578C8.05406 36.0075 7.9511 35.3524 8.09524 34.6128C8.17761 34.1268 8.38353 33.5985 8.75419 33.0491C9.31017 32.1827 9.96912 31.6333 10.5457 31.2741C11.4106 30.7247 12.1313 30.6402 12.1725 30.619C12.1931 30.619 12.1931 30.619 12.2136 30.619C12.3166 29.8372 12.5843 29.0342 12.955 28.2523C13.408 27.3014 14.0257 26.3928 14.7465 25.6321C14.8288 25.5476 14.9112 25.4842 15.0142 25.4208C15.2613 25.2517 15.5701 25.2095 15.8378 25.2517C16.1261 25.2729 16.3938 25.3785 16.6615 25.5264C17.1969 25.8011 17.7117 26.2449 18.1647 26.6886C18.2471 26.7732 18.3501 26.8577 18.4324 26.9633C18.4736 26.8366 18.5148 26.7098 18.556 26.583C18.6384 26.3717 18.7001 26.1604 18.7825 25.9913C18.7619 25.949 18.7207 25.9279 18.7001 25.8857C18.5148 25.6955 18.3089 25.463 18.0618 25.2095Z" fill="white"/>
<path d="M16.3526 38.0783C15.7143 37.9304 15.1377 37.6557 14.6435 37.2542C14.0669 36.8105 13.6139 36.2399 13.2432 35.6271C12.4607 34.2958 12.0901 32.711 12.1107 31.4009C12.0489 31.422 11.9665 31.4431 11.8636 31.4643C11.6165 31.5488 11.287 31.6756 10.8957 31.908C10.4015 32.225 9.82496 32.711 9.33075 33.4717C8.87773 34.1691 8.73358 34.7607 8.73358 35.3101C8.73358 35.8595 8.87773 36.3878 9.02187 36.9161C9.10424 37.2753 9.2072 37.6134 9.22779 37.9727C9.24838 38.5221 9.47489 39.2617 9.84555 39.8745C10.0309 40.1703 10.2368 40.445 10.4633 40.6563C10.6898 40.8676 10.9163 40.9944 11.1428 41.0578C11.3488 41.1212 11.6576 41.1212 12.0077 41.0789C12.3578 41.0367 12.749 40.9522 13.1197 40.8676C13.7374 40.6986 14.2934 40.5084 14.5405 40.4027C14.8082 39.959 15.1171 39.5364 15.4466 39.1137C15.7143 38.7545 16.0232 38.3953 16.3526 38.0783Z" fill="white"/>
<path d="M15.7349 26.0124C15.5702 25.9913 15.4672 26.0124 15.3642 26.0969C15.3231 26.118 15.2819 26.1603 15.2407 26.2026C14.5818 26.8788 14.0052 27.7451 13.5727 28.6326C13.1403 29.5202 12.8932 30.4288 12.852 31.2106C12.7902 32.394 13.1197 33.9999 13.8816 35.2678C14.2111 35.8172 14.6229 36.3244 15.0966 36.6836C15.5702 37.064 16.1262 37.3175 16.7645 37.4021C16.8675 37.4232 16.9498 37.4232 17.0528 37.4443C17.444 37.1062 17.8147 36.8104 18.1854 36.5991C18.2677 36.5357 18.3707 36.4934 18.4531 36.4512C18.8443 36.2399 19.4621 36.0074 20.1416 35.8172C20.4917 35.7116 20.8623 35.627 21.233 35.5637C20.4299 34.8029 19.5444 33.8309 18.9267 32.7743C18.556 32.1193 18.2677 31.4431 18.1442 30.7458C17.9794 29.6681 18.0412 28.696 18.2059 27.8508C17.7941 27.3859 17.2793 26.8999 16.8057 26.5407C16.3939 26.2026 16.0026 26.0335 15.7349 26.0124Z" fill="white"/>
<path d="M16.6203 25.5264C16.3527 25.3996 16.085 25.2939 15.7967 25.2517C15.5084 25.2306 15.2201 25.2728 14.973 25.4207C14.87 25.4841 14.7877 25.5475 14.7053 25.632C13.9846 26.3716 13.3668 27.3014 12.9138 28.2523C12.5431 29.0342 12.2754 29.8371 12.1725 30.619C12.3578 30.619 12.5225 30.7458 12.5431 30.936C12.5637 31.1473 12.4196 31.3375 12.2342 31.3586H12.2137L12.1519 31.3797H12.1313C12.1313 32.6898 12.4814 34.2747 13.2638 35.6059C13.6345 36.2399 14.0875 36.7893 14.6641 37.233C15.1583 37.6134 15.7349 37.9092 16.3732 38.0572C16.5998 37.8247 16.8263 37.6134 17.0528 37.4021C16.9498 37.381 16.8675 37.381 16.7645 37.3598C16.1261 37.2753 15.5702 37.0006 15.0965 36.6414C14.6229 36.261 14.2111 35.775 13.8816 35.2256C13.1403 33.9577 12.7902 32.3517 12.852 31.1684C12.8932 30.3866 13.1609 29.4779 13.5727 28.5904C14.0052 27.7029 14.5817 26.8577 15.2407 26.1603C15.2819 26.1181 15.3231 26.0758 15.3642 26.0547C15.4672 25.9913 15.5907 25.9701 15.7349 25.9701C16.0026 25.9913 16.3938 26.1815 16.7851 26.4773C17.2793 26.8365 17.7735 27.3225 18.1853 27.7874C18.2471 27.4705 18.3089 27.1957 18.3913 26.921C18.3089 26.8365 18.2265 26.752 18.1236 26.6463C17.6705 26.2237 17.1557 25.8011 16.6203 25.5264Z" fill="#9B2C60"/>
<path d="M18.7825 37.0851L18.6178 36.747L18.7825 37.0851C18.7001 37.1274 18.6383 37.1697 18.556 37.2119C17.7941 37.6979 16.8057 38.5854 15.982 39.5997C15.6525 40.0223 15.3436 40.445 15.0759 40.8887C15.0759 40.9099 15.0553 40.931 15.0347 40.9521C14.8082 41.3536 14.6023 41.7551 14.4788 42.1355H14.4994C14.8494 42.0721 15.3436 41.9875 15.879 41.903C16.9704 41.7128 18.2677 41.4381 19.0708 41.2057C19.5032 41.0789 19.9562 40.8676 20.3887 40.5929C21.6242 39.8322 22.7568 38.6066 23.2098 37.5711C23.251 37.4866 23.2716 37.4021 23.3127 37.3176C23.1686 37.2119 22.6126 36.8104 21.9331 36.2188C21.2741 36.2821 20.4916 36.4723 19.8533 36.6836C19.4208 36.7893 19.009 36.9583 18.7825 37.0851Z" fill="white"/>
<path d="M23.704 37.3599C23.601 37.4021 23.4775 37.381 23.3745 37.3176C23.3745 37.3176 23.3539 37.2965 23.3333 37.2965C23.3127 37.381 23.2716 37.4655 23.2304 37.5501C22.7774 38.5855 21.6448 39.8111 20.4093 40.5718C19.9768 40.8465 19.5238 41.0578 19.0914 41.1846C18.2883 41.4382 16.991 41.6918 15.8996 41.8819C15.3642 41.9876 14.87 42.0721 14.52 42.1144H14.4994C14.6229 41.734 14.8082 41.3325 15.0553 40.931C15.0142 40.9944 14.9524 41.0367 14.8906 41.0578C14.8906 41.0578 14.52 41.2057 14.0052 41.3748C13.8404 41.7552 13.7169 42.1355 13.6551 42.5159C13.6345 42.6427 13.6757 42.7483 13.758 42.854C13.8404 42.9385 13.964 42.9808 14.0669 42.9596C14.0669 42.9596 14.9524 42.8328 16.0438 42.6215C17.1351 42.4313 18.4324 42.1566 19.3179 41.9031C19.8327 41.7552 20.3269 41.5016 20.8211 41.2057C21.7272 40.6563 22.5508 39.8745 23.1686 39.0715C23.4775 38.67 23.7246 38.2474 23.9099 37.8459C24.0952 37.4444 24.1982 37.0218 24.1982 36.6203C24.1982 36.5146 24.1776 36.4301 24.157 36.3456C24.0335 36.8316 23.9305 37.1063 23.9305 37.1274C23.8893 37.2331 23.807 37.3176 23.704 37.3599Z" fill="#9B2C60"/>
<path d="M18.4325 36.4089C18.3501 36.4511 18.2471 36.5145 18.1648 36.5568C17.8147 36.7892 17.4235 37.0639 17.0322 37.402C16.8057 37.6133 16.5792 37.8247 16.3527 38.0571C16.0232 38.3741 15.7143 38.7333 15.4054 39.1137C15.076 39.5363 14.7671 39.9589 14.4994 40.4027C14.5406 40.3815 14.5818 40.3815 14.5818 40.3604H14.6023C14.7877 40.2759 14.9936 40.3815 15.076 40.5717C15.1172 40.6774 15.0966 40.783 15.0554 40.8887C15.3025 40.4661 15.6114 40.0223 15.9614 39.5997C16.7645 38.5854 17.7529 37.6979 18.5354 37.2119C18.6178 37.1696 18.7002 37.1062 18.7619 37.0851L18.5972 36.747L18.7619 37.0851C18.9884 36.9583 19.4003 36.7892 19.8533 36.6413C20.4917 36.43 21.2536 36.261 21.9331 36.1764C21.8507 36.113 21.7684 36.0285 21.686 35.9651C21.5213 35.8172 21.3771 35.6693 21.2124 35.5214C20.8417 35.5848 20.4711 35.6693 20.121 35.7749C19.4415 35.9651 18.8237 36.2187 18.4325 36.4089Z" fill="#9B2C60"/>
<path d="M14.8906 41.0577C14.9524 41.0366 15.0142 40.9943 15.0554 40.931C15.076 40.9098 15.076 40.8887 15.0965 40.8676C15.1377 40.783 15.1583 40.6562 15.1171 40.5506C15.0348 40.3604 14.8288 40.2548 14.6435 40.3393H14.6229C14.6023 40.3393 14.5612 40.3604 14.5406 40.3815C14.314 40.4661 13.7581 40.6774 13.1197 40.8464C12.7491 40.9521 12.3578 41.0155 12.0077 41.0577C11.6577 41.1 11.3488 41.1 11.1429 41.0366C10.9164 40.9732 10.6899 40.8464 10.4633 40.6351C10.2368 40.4238 10.0309 40.1491 9.84558 39.8533C9.47492 39.2405 9.24841 38.5009 9.22782 37.9515C9.20723 37.5922 9.12486 37.233 9.0219 36.8949C8.87775 36.3666 8.73361 35.8384 8.73361 35.2889C8.73361 34.7395 8.85716 34.1479 9.33078 33.4505C9.82499 32.6898 10.4016 32.2038 10.8958 31.8868C11.2664 31.6544 11.6165 31.5065 11.8636 31.4431C11.9666 31.4008 12.0489 31.3797 12.1107 31.3797H12.1313L12.1931 31.3585H12.2137C12.4196 31.3374 12.5637 31.1472 12.5225 30.9359C12.502 30.7457 12.3372 30.5978 12.1519 30.619C12.1313 30.619 12.1313 30.619 12.1107 30.619C12.0695 30.619 11.3694 30.7246 10.4839 31.274C9.90736 31.6333 9.24841 32.2038 8.69243 33.049C8.34236 33.5984 8.13644 34.1056 8.03348 34.6127C7.88934 35.3523 8.01289 36.0074 8.13644 36.5779C8.21881 36.8949 8.30118 37.1907 8.36295 37.4443C8.65124 37.5711 8.87775 37.6345 8.89835 37.6345C9.10427 37.6768 9.20723 37.8881 9.16604 38.0994C9.12486 38.3107 8.91894 38.4164 8.71302 38.3741C8.71302 38.3741 8.61006 38.353 8.46591 38.2896C8.54828 38.9235 8.79539 39.642 9.16604 40.2759C9.37196 40.6351 9.61907 40.9521 9.90736 41.2268C10.1956 41.5015 10.5251 41.7128 10.8958 41.7973C11.2664 41.903 11.6783 41.8819 12.1107 41.8185C12.7491 41.7339 13.4286 41.5438 13.964 41.3747C14.52 41.2057 14.8906 41.0577 14.8906 41.0577Z" fill="#9B2C60"/>
<path d="M9.20721 38.0994C9.2484 37.8881 9.12484 37.6979 8.93952 37.6345C8.91892 37.6345 8.69241 37.5711 8.40412 37.4443C8.32175 37.4021 8.21879 37.3598 8.11583 37.3176C7.6834 37.1062 7.20979 36.7681 6.96268 36.3244L6.94209 36.2821C6.81854 36.0708 6.73617 35.775 6.71558 35.4369C6.67439 34.9297 6.73617 34.3169 6.83913 33.7464C6.94209 33.1547 7.04505 32.6053 7.10683 32.1616C7.18919 31.591 7.23038 30.8303 7.35393 30.0696C7.47748 29.3089 7.66281 28.5693 7.9511 28.0621C8.13643 27.7451 8.44531 27.4704 8.81596 27.2169C9.53668 26.752 10.5045 26.4984 11.1223 26.3294C11.287 26.2871 11.4517 26.2026 11.5959 26.118C11.9459 25.8856 12.2754 25.5686 12.6255 25.2517C12.9756 24.9136 13.3668 24.5755 13.861 24.2585C14.1699 24.0683 14.4994 23.8993 14.8906 23.7725C15.3024 23.6246 15.7349 23.688 16.1879 23.857C16.8674 24.1317 17.547 24.7023 18.0412 25.2094C18.2883 25.463 18.4942 25.6954 18.6384 25.8856C18.6795 25.9279 18.7001 25.9701 18.7207 25.9913C18.8443 25.6743 18.9678 25.4207 19.0708 25.2517C18.8031 24.9347 18.4324 24.5332 17.9794 24.1317C17.547 23.7514 17.0322 23.3921 16.4762 23.1597C15.9202 22.9272 15.3024 22.8427 14.6847 23.054C14.2317 23.2019 13.861 23.4133 13.5109 23.6246C12.955 23.9627 12.5225 24.3642 12.1519 24.7023C11.7812 25.0404 11.4929 25.3362 11.2458 25.4841C11.1429 25.5475 11.0399 25.5898 10.9575 25.6109C10.3192 25.7799 9.31017 26.0547 8.44531 26.5829C7.99228 26.8576 7.60103 27.2169 7.33334 27.6818C6.96268 28.3368 6.77735 29.1398 6.63321 29.9428C6.50966 30.7246 6.44788 31.5065 6.36551 32.0559C6.30374 32.5842 6.11841 33.3872 6.01545 34.2324C5.97426 34.655 5.95367 35.0777 5.97426 35.5003C6.01545 35.9018 6.09782 36.3033 6.28315 36.6625L6.32433 36.7259C6.71558 37.3809 7.33334 37.7824 7.82755 38.036C8.09524 38.1628 8.34235 38.2685 8.50708 38.3107C8.65123 38.353 8.75419 38.3952 8.75419 38.3952C8.96011 38.4164 9.16603 38.2896 9.20721 38.0994Z" fill="#9B2C60"/>
<path d="M23.3951 36.3878V36.3667C23.4775 36.0497 23.601 35.5848 23.704 35.0565C23.9305 34 24.0952 32.6264 23.9305 31.4642C23.8687 31.0416 23.6422 30.4922 23.3128 29.9428C22.7568 29.013 21.9331 28.0199 21.1712 27.1957C20.5534 26.5407 19.9974 26.0124 19.668 25.6954C19.5444 25.949 19.3591 26.3294 19.2149 26.7943C18.9061 27.7452 18.6384 29.0553 18.8649 30.5767C18.9472 31.1473 19.1943 31.7601 19.5444 32.3306C20.1828 33.4083 21.1506 34.4437 22.0155 35.2256C22.5714 35.7539 23.0656 36.1553 23.3951 36.3878Z" fill="white"/>
<path d="M24.0541 35.0988C24.0747 34.8875 24.26 34.7395 24.4659 34.7607C24.4659 34.7607 24.4865 34.7607 24.5277 34.7607C24.713 33.7252 24.8366 32.4996 24.6718 31.3586C24.5895 30.7669 24.3218 30.1541 23.9717 29.5624C23.2922 28.4002 22.2626 27.238 21.3977 26.3293C20.5328 25.4418 19.8327 24.829 19.8327 24.829C19.7503 24.7656 19.6474 24.7234 19.5444 24.7445C19.4415 24.7656 19.3385 24.8079 19.2973 24.9136C19.2973 24.9136 19.2149 25.0403 19.112 25.2517C19.009 25.4418 18.8855 25.6743 18.7619 25.9912C18.6795 26.1603 18.6178 26.3716 18.5354 26.5829C18.4942 26.7097 18.453 26.8154 18.4119 26.9633C18.3295 27.238 18.2677 27.5127 18.2059 27.8297C18.0412 28.6749 18 29.6469 18.1442 30.7246C18.2471 31.422 18.5354 32.1193 18.9267 32.7532C19.5444 33.8098 20.4299 34.7607 21.233 35.5425C21.3977 35.6904 21.5624 35.8384 21.7066 35.9863C21.7889 36.0708 21.8713 36.1342 21.9537 36.1976C22.6332 36.7893 23.1892 37.1908 23.3333 37.2964C23.3539 37.3175 23.3745 37.3175 23.3745 37.3175C23.4775 37.3809 23.5804 37.4021 23.704 37.3598C23.807 37.3175 23.8893 37.233 23.9305 37.1274C23.9305 37.1274 24.0335 36.8315 24.157 36.3455C24.2188 36.1131 24.3012 35.8172 24.3629 35.5003C24.1776 35.5003 24.0335 35.3101 24.0541 35.0988ZM22.0155 35.2467C21.1506 34.4648 20.1828 33.4294 19.5444 32.3517C19.1943 31.7601 18.9472 31.1684 18.8649 30.5978C18.6384 29.0975 18.8855 27.7663 19.2149 26.8154C19.3797 26.3505 19.5444 25.9701 19.668 25.7165C19.9974 26.0335 20.574 26.5618 21.1712 27.2169C21.9331 28.041 22.7774 29.0341 23.3128 29.9639C23.6422 30.5133 23.8687 31.0627 23.9305 31.4853C24.0952 32.6476 23.9305 34 23.704 35.0776C23.601 35.6059 23.4775 36.0708 23.3951 36.3878V36.4089C23.0656 36.1553 22.5714 35.7538 22.0155 35.2467Z" fill="#9B2C60"/>
<path d="M39.0862 18.4052C39.8893 17.729 40.5689 17.1162 41.1042 16.7358C41.7838 16.271 42.2986 15.4046 42.5457 14.3692C42.8134 13.3337 42.8134 12.1504 42.5045 11.0938C42.4839 11.0093 42.4221 10.8614 42.3398 10.6923C42.2574 10.5233 42.1338 10.312 42.0103 10.1007C41.4543 9.1709 40.6306 7.96642 40.2394 7.43815C40.1158 7.2691 40.0335 7.16344 40.0335 7.16344C39.9923 7.10005 39.9717 7.03665 39.9717 6.97326V6.931C39.9717 6.90987 39.9717 6.84647 39.9511 6.78308C39.9305 6.65629 39.8893 6.46611 39.8481 6.2548C39.7246 5.81105 39.5187 5.19825 39.1686 4.58544C38.7773 3.93038 38.2214 3.25418 37.3771 2.68364C36.2033 1.90179 35.0502 1.79613 34.1647 1.85953C33.3616 1.94405 32.7851 2.17649 32.7027 2.21875C32.8057 2.36667 32.9086 2.51459 32.991 2.68364C33.4852 3.52889 33.8353 4.41639 34.0618 5.0292C34.0824 5.09259 34.1235 5.15598 34.1441 5.21938C34.3707 5.62087 34.8855 6.04349 35.5238 6.5929C36.1416 7.14231 36.8623 7.83964 37.4595 8.85393C37.583 9.04411 37.686 9.25542 37.7889 9.48787C38.1184 10.2063 38.1802 10.9248 38.0978 11.6221C38.0154 12.2983 37.7683 12.9322 37.5006 13.4605C37.2329 13.9888 36.9447 14.4326 36.6976 14.7495C36.7799 14.7707 36.8829 14.7918 36.9652 14.7918C38.2831 15.0665 39.1068 15.4891 39.1274 15.5102C39.2304 15.5525 39.2921 15.637 39.3127 15.7427C39.3333 15.8483 39.3127 15.954 39.2716 16.0385C39.2716 16.0385 38.4685 17.2853 37.3153 18.7433C36.7387 19.4829 36.0592 20.2647 35.3385 21.0043C35.6885 20.8353 36.0386 20.6451 36.3887 20.4338C37.3771 19.821 38.3037 19.0814 39.0862 18.4052Z" fill="white"/>
<path d="M35.8945 14.6016C35.9151 14.5594 35.9563 14.5382 35.9974 14.4749C36.1416 14.3058 36.3269 14.0522 36.5122 13.7564C36.9035 13.1647 37.2947 12.3406 37.3977 11.4954C37.4595 10.9248 37.4183 10.3543 37.1506 9.80487C37.0476 9.59356 36.9447 9.40338 36.8417 9.23433C36.3063 8.32569 35.6474 7.69176 35.0502 7.16348C34.453 6.61407 33.8765 6.19145 33.5264 5.59977C33.4646 5.49412 33.4234 5.40959 33.3823 5.30394C33.1557 4.69114 32.8263 3.84589 32.3732 3.06404C31.9202 2.30332 31.3642 1.64825 30.7053 1.35241C30.0052 1.03545 29.0579 0.90866 28.0901 0.866398C27.1429 0.824136 26.175 0.866398 25.4749 0.866398C24.7748 0.866398 23.807 0.760742 22.8597 0.760742C21.9125 0.760742 20.9859 0.866398 20.4093 1.22563C20.3887 1.26789 20.3269 1.28902 20.2857 1.33128C19.7297 1.75391 19.3797 2.4301 19.1532 3.06404C19.0708 3.29648 19.009 3.50779 18.9678 3.67684C19.3385 3.55005 19.7503 3.35987 20.2034 3.19082C20.8829 2.91612 21.6654 2.68368 22.5714 2.74707C23.1892 2.78933 23.8481 2.95838 24.5483 3.33874C26.0721 4.14173 26.9781 5.24054 27.4723 6.06466C27.8224 6.67746 27.9871 7.14235 28.0283 7.29027C28.6667 7.33253 29.3462 7.35366 30.0669 7.37479C31.3436 7.43818 32.6821 7.56497 33.8765 8.17777C34.1442 8.32569 34.3707 8.51587 34.5148 8.76945C34.6795 9.06528 34.7619 9.38225 34.7619 9.72035C34.7825 10.0584 34.7207 10.4177 34.6384 10.7769C34.4736 11.4954 34.1442 12.2561 33.7941 12.9534C33.4646 13.6296 33.094 14.2635 32.8057 14.7073C33.9382 14.496 34.9884 14.496 35.8945 14.6016Z" fill="white"/>
<path d="M24.2394 3.99379C23.2922 3.50777 22.5097 3.42325 21.8095 3.50777C21.1094 3.5923 20.4711 3.88813 19.8533 4.14171C19.4415 4.31076 19.0296 4.47981 18.5766 4.56433C18.0824 4.64886 17.4646 4.90243 16.9086 5.26166C16.4144 5.57863 15.9408 5.95899 15.5908 6.38161C15.2407 6.80423 15.0142 7.22685 14.973 7.64948C14.9318 7.94531 14.973 8.3468 15.076 8.79056C15.1789 9.21318 15.3437 9.67807 15.5084 10.1007C15.8379 10.9037 16.2085 11.5799 16.3115 11.7912C16.4144 11.8757 16.4968 11.9602 16.5998 12.0659C17.3823 12.8266 18.1648 13.7564 18.8649 14.6228C19.3179 15.1933 19.7503 15.7638 20.1004 16.271C20.0386 15.9751 19.9769 15.6582 19.9357 15.3201C19.7298 14.0311 19.4826 12.6364 19.3179 11.3263C19.1532 9.99503 19.0502 8.72717 19.1326 7.67061C19.1944 6.97328 19.3179 6.33935 19.6062 5.85333C19.7709 5.57863 19.9769 5.32505 20.2446 5.156H20.2651C20.7799 4.83904 21.3359 4.79677 21.8713 4.90243C22.4273 5.00808 22.9627 5.24053 23.4981 5.51523C24.5689 6.08577 25.6603 6.80423 26.6075 7.07894C26.7928 7.14233 26.9987 7.18459 27.2047 7.20572C27.1223 7.01554 27.0193 6.76197 26.834 6.46613C26.4222 5.68428 25.6191 4.71225 24.2394 3.99379Z" fill="white"/>
<path d="M32.2497 15.6159C31.9408 16.3344 30.6641 19.1448 29.0785 21.2157C28.5843 21.8707 28.0489 22.4624 27.4929 22.885C28.8314 22.9907 30.4582 22.9695 31.8378 22.5892C32.1467 22.5047 32.4968 22.3356 32.8468 22.1243C34.0824 21.3636 35.462 19.8633 36.5534 18.5109C37.3977 17.4543 38.0772 16.4823 38.4273 15.9751C38.3861 15.954 38.3449 15.9329 38.3037 15.9329C37.9537 15.8061 37.4595 15.637 36.8417 15.5102C36.574 15.4469 36.3063 15.4046 35.9974 15.3623C35.9768 15.3623 35.9768 15.3623 35.9562 15.3623C34.906 15.2355 33.6293 15.2355 32.2497 15.6159Z" fill="white"/>
<path d="M28.9344 23.3288C29.1403 23.3076 29.305 23.4767 29.3256 23.688V23.7091C30.2317 23.688 31.1583 23.5823 32.0438 23.3288C32.435 23.2231 32.8468 23.0329 33.2381 22.7794C33.4852 22.6314 33.7323 22.4413 33.9794 22.2511C33.9588 22.2511 33.9176 22.2722 33.897 22.2722C33.6911 22.3145 33.5058 22.1666 33.4646 21.9764C33.4234 21.7651 33.5676 21.5749 33.7529 21.5326C34.2883 21.427 34.8443 21.2368 35.4003 20.9832C36.121 20.2648 36.7799 19.4618 37.3771 18.7222C38.5302 17.2641 39.3127 16.0385 39.3333 16.0174C39.3951 15.9329 39.4157 15.8272 39.3745 15.7216C39.3333 15.6159 39.2716 15.5314 39.1892 15.4891C39.1686 15.468 38.3449 15.0454 37.027 14.7707C36.9447 14.7495 36.8623 14.7284 36.7593 14.7284C36.5122 15.0665 36.3269 15.2567 36.3269 15.2567C36.2445 15.3412 36.1416 15.3835 36.0386 15.3623C36.3475 15.4046 36.6152 15.4469 36.8829 15.5102C37.5006 15.637 37.9949 15.8061 38.3449 15.9329C38.3861 15.954 38.4273 15.9751 38.4685 15.9751C38.1184 16.4823 37.4389 17.4543 36.5946 18.5109C35.5032 19.8633 34.1236 21.3636 32.888 22.1243C32.538 22.3356 32.1879 22.5047 31.879 22.5892C30.4994 22.9695 28.852 22.9907 27.5341 22.885C27.4106 22.9695 27.287 23.0541 27.1634 23.1386C26.8752 23.3076 26.5869 23.4344 26.2986 23.519C26.6075 23.5612 26.9369 23.6035 27.3076 23.6246C27.7194 23.6669 28.1519 23.688 28.6255 23.688C28.5843 23.4978 28.7284 23.3288 28.9344 23.3288Z" fill="#9B2C60"/>
<path d="M35.9768 15.3623C35.915 15.3411 35.8533 15.32 35.7915 15.2566C35.6474 15.1087 35.6474 14.8762 35.7915 14.7283L35.8121 14.7072L35.8533 14.6649C35.8739 14.6438 35.8945 14.6227 35.915 14.5804C35.009 14.4748 33.9588 14.4748 32.8262 14.7072C32.5791 15.1087 32.3938 15.3834 32.332 15.4679C32.3114 15.4891 32.2909 15.5313 32.2703 15.5947C33.6293 15.2355 34.906 15.2355 35.9768 15.3623Z" fill="#9B2C60"/>
<path d="M23.8481 20.4127C23.9305 20.5606 24.0129 20.7085 24.0541 20.8776C24.0952 21.0466 24.0952 21.2368 23.9923 21.427C23.9511 21.5115 23.8893 21.5749 23.8481 21.6172C24.2394 21.9341 24.6718 22.2722 25.1454 22.6103C25.4131 22.7794 25.6396 22.8428 25.9073 22.8217C26.175 22.8005 26.4633 22.6949 26.7722 22.5047C27.3076 22.1666 27.8842 21.596 28.4196 20.8987C28.955 20.2014 29.4903 19.3984 29.9434 18.5954C30.8494 17.0106 31.5084 15.5314 31.6525 15.1933C31.6731 15.151 31.6731 15.1299 31.6731 15.1299C31.6731 15.1088 31.6937 15.1088 31.6937 15.0877C31.6937 15.0665 31.7143 15.0665 31.7143 15.0454C31.7143 15.0454 31.7349 15.0243 31.7761 14.9609C31.8172 14.8975 31.879 14.813 31.9408 14.7073C32.0849 14.496 32.2703 14.2001 32.4762 13.8409C32.9086 13.1225 33.4028 12.1716 33.7323 11.2841C33.9382 10.6924 34.0824 10.1218 34.0618 9.69922C34.0618 9.44564 34 9.25546 33.9176 9.10754C33.8353 8.98076 33.7323 8.8751 33.5882 8.79058C32.5586 8.24117 31.323 8.11438 30.0669 8.07212C28.8108 8.00872 27.5547 8.02986 26.4633 7.73402C25.6191 7.50158 24.7954 6.99443 24.0129 6.55068C23.1686 6.12805 22.4067 5.70543 21.7683 5.59977C21.3359 5.51525 20.9858 5.55751 20.6564 5.76882C20.5122 5.85335 20.3887 6.00127 20.2651 6.19145C20.1622 6.38163 20.0592 6.6352 19.9974 6.93104C19.8739 7.54384 19.8327 8.32569 19.8945 9.2132C19.9768 10.9882 20.3681 13.1647 20.677 15.151C20.8417 16.2287 21.0476 17.1374 21.3153 17.9192C21.6036 18.1305 22.4685 18.8067 23.1686 19.5252C23.4363 19.821 23.6834 20.1169 23.8481 20.4127Z" fill="white"/>
<path d="M27.1428 23.1596C27.2664 23.0751 27.3899 22.9906 27.5135 22.9061C28.0695 22.4835 28.6049 21.8918 29.0991 21.2367C30.6847 19.1447 31.9614 16.3343 32.2702 15.637C32.2908 15.5736 32.3114 15.5313 32.332 15.5102C32.3938 15.4257 32.5791 15.1509 32.8262 14.7495C33.1145 14.2846 33.4852 13.6718 33.8147 12.9956C34.1647 12.2982 34.4736 11.5375 34.6589 10.8191C34.7413 10.4598 34.7825 10.1006 34.7825 9.76251C34.7619 9.42441 34.7001 9.08631 34.5354 8.81161C34.3912 8.55803 34.1853 8.36785 33.897 8.21993C32.7027 7.586 31.3642 7.48034 30.0875 7.41695C29.3874 7.39582 28.6872 7.37469 28.0489 7.33243C28.0489 7.35356 28.0695 7.37469 28.0695 7.37469C28.1107 7.586 28.0077 7.77618 27.8018 7.83957C27.5959 7.88184 27.4105 7.77618 27.3488 7.56487V7.54374L27.3282 7.48034C27.3076 7.43808 27.287 7.35356 27.2458 7.26903C27.2458 7.2479 27.2252 7.2479 27.2252 7.22677C27.0193 7.18451 26.8134 7.14225 26.628 7.09998C25.6808 6.82528 24.61 6.10682 23.5186 5.53628C22.9832 5.26157 22.4479 5.008 21.8919 4.92348C21.3565 4.81782 20.7799 4.88121 20.2857 5.17705H20.2651C19.9974 5.3461 19.7709 5.57854 19.6268 5.87438C19.3385 6.36039 19.2149 6.99433 19.1531 7.69166C19.0708 8.74821 19.1737 10.0161 19.3385 11.3473C19.5032 12.6786 19.7503 14.0521 19.9562 15.3411C20.018 15.6792 20.0592 15.9751 20.121 16.292C20.7387 17.1373 21.1506 17.7923 21.2741 17.9825C21.2741 17.9825 21.2947 18.0037 21.3153 18.0037C21.0476 17.2218 20.8417 16.3132 20.6769 15.2355C20.3681 13.2703 19.9768 11.0938 19.8944 9.29762C19.8533 8.41011 19.8739 7.60713 19.9974 7.01546C20.0592 6.71962 20.1621 6.46605 20.2651 6.27587C20.3681 6.08569 20.5122 5.93777 20.6564 5.85325C20.9858 5.64194 21.3359 5.59967 21.7683 5.6842C22.4067 5.78985 23.1686 6.21248 23.9717 6.65623C24.7748 7.09998 25.5984 7.60713 26.4221 7.83957C27.5341 8.15654 28.7902 8.13541 30.0257 8.17767C31.2818 8.24107 32.4968 8.36785 33.547 8.89613C33.7117 8.98065 33.8147 9.08631 33.8764 9.2131C33.9588 9.36102 34.0206 9.5512 34.0206 9.80477C34.0412 10.2274 33.9176 10.7979 33.6911 11.3896C33.3616 12.2771 32.8674 13.228 32.435 13.9465C32.2291 14.3057 32.0231 14.6015 31.8996 14.8128C31.8378 14.9185 31.776 15.003 31.7349 15.0664C31.6937 15.1298 31.6731 15.1509 31.6731 15.1509C31.6731 15.1509 31.6525 15.1721 31.6525 15.1932C31.6525 15.2143 31.6319 15.2143 31.6319 15.2355C31.6319 15.2355 31.6319 15.2566 31.6113 15.2989C31.4672 15.6158 30.8082 17.1161 29.9022 18.701C29.4491 19.4828 28.9343 20.3069 28.3784 21.0043C27.843 21.7016 27.2664 22.2721 26.731 22.6102C26.4221 22.8004 26.1338 22.9061 25.8661 22.9272C25.5984 22.9483 25.3719 22.8849 25.1042 22.7159C24.61 22.3778 24.1776 22.0608 23.8069 21.7227C23.7657 21.765 23.7246 21.7861 23.6834 21.8073C23.5392 21.8918 23.3539 21.9552 23.1686 21.9763C23.1068 21.9763 23.045 21.9974 22.9833 21.9974C23.4775 22.4412 24.0334 22.8849 24.6924 23.3287C25.063 23.5823 25.4955 23.7091 25.9073 23.6668C26.0103 23.6668 26.1132 23.6457 26.2368 23.6245C26.5663 23.4555 26.8545 23.3287 27.1428 23.1596Z" fill="#9B2C60"/>
<path d="M15.7555 12.256C15.3024 11.8334 14.8494 11.4953 14.4582 11.2628C14.4582 11.5164 14.4376 11.8334 14.4376 12.1926C14.4376 13.059 14.4993 14.2 14.6847 15.2143C14.8082 15.8905 14.9935 16.5033 15.2612 16.926C15.3024 16.9682 15.323 17.0316 15.3642 17.0739C15.5701 17.3908 15.9202 17.7501 16.3526 18.1093C16.785 18.4685 17.2999 18.8489 17.8558 19.2081C18.9678 19.9055 20.2445 20.5394 21.3153 20.8775C22.036 21.1099 22.6744 21.1945 23.1068 21.1522C23.2304 21.1311 23.3127 21.1099 23.3333 21.0888C23.3333 21.0465 23.3127 20.9409 23.2304 20.8141C23.1274 20.645 22.9421 20.4126 22.7361 20.1802C22.5302 19.9477 22.2831 19.7153 22.036 19.504C21.5418 19.0602 21.0682 18.701 20.8829 18.5531C20.8211 18.5108 20.8005 18.4897 20.8005 18.4897C20.7593 18.4685 20.7387 18.4263 20.7181 18.384C20.7181 18.384 20.6769 18.3206 20.6152 18.2361C20.5534 18.1304 20.4504 17.9825 20.3269 17.7923C20.0798 17.412 19.7091 16.9048 19.2767 16.3132C18.4118 15.1298 17.2587 13.6718 16.1261 12.5729C16.0437 12.4884 15.9614 12.4039 15.8584 12.3194C15.8172 12.2982 15.7966 12.2771 15.7555 12.256Z" fill="white"/>
<path d="M23.704 21.7228C23.7452 21.7017 23.7863 21.6594 23.8275 21.6383C23.8893 21.5749 23.9511 21.5115 23.9717 21.4481C24.0746 21.2579 24.0746 21.0678 24.0335 20.8987C23.9923 20.7297 23.9305 20.5817 23.8275 20.4338C23.6628 20.138 23.4157 19.8421 23.1274 19.5674C22.4273 18.849 21.5624 18.1728 21.2741 17.9615C21.2535 17.9615 21.2535 17.9403 21.2329 17.9403C21.1094 17.7502 20.677 17.0951 20.0798 16.2499C19.7297 15.7638 19.2973 15.1933 18.8443 14.6016C18.1441 13.7141 17.3616 12.8055 16.5791 12.0448C16.4762 11.9602 16.3938 11.8546 16.2908 11.77C16.2908 11.7912 16.3114 11.7912 16.3114 11.8123L16.332 11.8334C16.435 12.0025 16.3732 12.2349 16.2085 12.3406C16.0849 12.4251 15.9408 12.404 15.8172 12.3195C15.8996 12.404 15.982 12.4885 16.0849 12.573C17.2175 13.6719 18.3706 15.1299 19.2355 16.3132C19.6679 16.9049 20.0386 17.4121 20.2857 17.7924C20.4093 17.9826 20.5122 18.1305 20.574 18.2362C20.6358 18.3418 20.677 18.3841 20.677 18.3841C20.6975 18.4264 20.7387 18.4475 20.7593 18.4898C20.7593 18.4898 20.7799 18.5109 20.8417 18.5531C21.027 18.7011 21.5006 19.0603 21.9948 19.504C22.2419 19.7154 22.4891 19.9478 22.695 20.1802C22.9009 20.4127 23.0862 20.624 23.1892 20.8142C23.2715 20.941 23.2921 21.0466 23.2921 21.0889C23.2715 21.11 23.1892 21.1311 23.0656 21.1523C22.6538 21.2157 21.9948 21.11 21.2741 20.8776C20.1827 20.5395 18.906 19.9267 17.8147 19.2082C17.2587 18.849 16.7439 18.4898 16.3114 18.1094C15.879 17.7502 15.5289 17.3909 15.323 17.074C15.2818 17.0317 15.2612 16.9683 15.2201 16.926C14.973 16.4823 14.767 15.8695 14.6435 15.2144C14.4582 14.2001 14.3964 13.0802 14.3964 12.1927C14.3964 11.8334 14.3964 11.4953 14.417 11.2629C14.8288 11.4953 15.2612 11.8334 15.7143 12.2561C15.6937 12.2349 15.6937 12.2349 15.6731 12.2138C15.6731 12.2138 15.426 11.7912 15.1583 11.1995C15.0965 11.0516 15.0141 10.8825 14.9524 10.7346C14.7053 10.5867 14.4582 10.4388 14.2111 10.3543C14.1081 10.312 13.9845 10.3331 13.8816 10.3965C13.7786 10.4599 13.7168 10.5656 13.7168 10.6924C13.7168 10.6924 13.6345 11.8334 13.6963 13.2281C13.7374 13.9254 13.7992 14.6861 13.9434 15.4046C14.0875 16.1231 14.2934 16.8204 14.6023 17.3698C14.6435 17.4332 14.6847 17.4966 14.7259 17.56C15.0965 18.0883 15.6525 18.6165 16.332 19.1237C17.341 19.9055 18.6383 20.6451 19.8533 21.1734C20.471 21.4481 21.0682 21.6594 21.6242 21.7862C22.1184 21.913 22.5508 21.9553 22.9627 21.9341C23.0244 21.9341 23.0862 21.9341 23.148 21.913C23.3951 21.8496 23.5598 21.8073 23.704 21.7228Z" fill="#9B2C60"/>
<path d="M15.1995 11.1784C15.4878 11.77 15.7143 12.1927 15.7143 12.1927C15.7143 12.2138 15.7349 12.2349 15.7555 12.2349C15.7761 12.2561 15.8173 12.2983 15.8379 12.3195C15.9408 12.404 16.1056 12.404 16.2291 12.3406C16.3938 12.2349 16.4556 12.0025 16.3527 11.8334L16.3321 11.8123C16.3321 11.8123 16.3115 11.7912 16.3115 11.77C16.1879 11.5587 15.8379 10.8825 15.5084 10.0796C15.3436 9.65693 15.1789 9.19204 15.076 8.76942C14.973 8.3468 14.9318 7.92418 14.973 7.62834C15.0142 7.22685 15.2407 6.7831 15.5908 6.36047C15.9408 5.93785 16.3938 5.55749 16.9086 5.24052C17.4646 4.88129 18.0824 4.64885 18.5766 4.54319C19.009 4.45867 19.4209 4.28962 19.8533 4.12057C20.4711 3.867 21.1094 3.57116 21.8095 3.48664C22.5097 3.40211 23.2922 3.46551 24.2394 3.97265C25.6397 4.69111 26.4222 5.68428 26.8546 6.42387C27.0193 6.7197 27.1429 6.97328 27.2252 7.16346C27.2252 7.18459 27.2458 7.20572 27.2458 7.20572C27.287 7.31137 27.3076 7.37477 27.3282 7.41703L27.3488 7.48042V7.50155C27.39 7.71286 27.5959 7.81852 27.8018 7.77626C28.0077 7.734 28.1107 7.52268 28.0695 7.31137C28.0695 7.31137 28.0695 7.29024 28.0489 7.26911C28.0077 7.12119 27.8636 6.65631 27.4929 6.04351C26.9987 5.19826 26.1133 4.09944 24.5689 3.31759C23.8482 2.93723 23.1892 2.76818 22.592 2.72592C21.686 2.66252 20.9035 2.9161 20.224 3.16967C19.7709 3.33872 19.3591 3.5289 18.9884 3.65569C18.9061 3.97265 18.8855 4.18397 18.8855 4.22623C18.8649 4.43754 18.6796 4.58546 18.4736 4.56433C18.2677 4.54319 18.1236 4.35301 18.1442 4.1417C18.1442 4.1417 18.1648 4.03605 18.1853 3.867C17.6294 3.99378 17.0734 4.24736 16.5174 4.58546C15.9614 4.92356 15.4466 5.36731 15.0348 5.85333C14.6229 6.33934 14.3346 6.90988 14.2523 7.50155C14.1905 7.96644 14.2729 8.49472 14.3964 9.00186C14.5406 9.59354 14.7671 10.1852 14.9936 10.6924C15.076 10.8825 15.1377 11.0305 15.1995 11.1784Z" fill="#9B2C60"/>
<path d="M18.4736 4.5643C18.6796 4.58543 18.8649 4.43751 18.8855 4.2262C18.8855 4.20507 18.9267 3.97263 18.9884 3.65566C19.0296 3.46548 19.0914 3.25417 19.1738 3.04286C19.3797 2.43006 19.7503 1.73273 20.3063 1.3101C20.3269 1.28897 20.3887 1.26784 20.4299 1.22558C21.0065 0.866351 21.9331 0.739564 22.8803 0.760695C23.8276 0.760695 24.7954 0.866351 25.4955 0.866351C26.2162 0.866351 27.1635 0.824088 28.1107 0.866351C29.0579 0.908613 30.0258 1.0354 30.7259 1.35237C31.3848 1.62707 31.9408 2.30327 32.3938 3.06399C32.8469 3.82471 33.1763 4.69109 33.4029 5.30389C33.444 5.40955 33.4852 5.5152 33.547 5.59973C33.8971 6.17027 34.4736 6.61402 35.0708 7.16343C35.6886 7.71284 36.3269 8.34677 36.8623 9.23428C36.9653 9.40333 37.0682 9.59351 37.1712 9.80482C37.4389 10.3754 37.4801 10.9459 37.4183 11.4953C37.3153 12.3406 36.9035 13.1647 36.5328 13.7563C36.3475 14.0522 36.1622 14.3058 36.018 14.4748C35.9769 14.5171 35.9563 14.5593 35.9151 14.6016C35.8945 14.6227 35.8739 14.665 35.8533 14.6861L35.8121 14.7284L35.7915 14.7495C35.6474 14.8974 35.6474 15.1299 35.7915 15.2778C35.8533 15.3201 35.9151 15.3623 35.9769 15.3834C35.9974 15.3834 35.9974 15.3834 36.018 15.3834C36.121 15.3834 36.224 15.3623 36.3063 15.2778C36.3063 15.2778 36.4917 15.0665 36.7388 14.7495C36.9859 14.4325 37.2742 13.9888 37.5418 13.4605C37.8095 12.9322 38.0361 12.2983 38.139 11.6221C38.2214 10.9459 38.1596 10.2063 37.8301 9.48786C37.7272 9.25541 37.6036 9.0441 37.5007 8.85392C36.9035 7.83963 36.1828 7.1423 35.565 6.59289C34.9267 6.04348 34.4119 5.59973 34.1853 5.21937C34.1442 5.15597 34.1236 5.09258 34.103 5.02919C33.8765 4.41638 33.5264 3.52887 33.0322 2.68363C32.9498 2.53571 32.8469 2.36666 32.7439 2.21874H32.7233C32.538 2.30327 32.3321 2.23987 32.2291 2.04969C32.1673 1.90178 32.1879 1.75386 32.2909 1.6482C31.9408 1.24671 31.529 0.908613 31.0348 0.676171C30.1905 0.29581 29.1609 0.190154 28.1725 0.147892C27.1841 0.10563 26.2162 0.147892 25.5161 0.147892C24.8778 0.147892 23.8893 0.0422363 22.9009 0.0422363C21.9125 0.0422363 20.8829 0.126761 20.0798 0.633908C20.018 0.676171 19.9357 0.718433 19.8739 0.781826C19.1326 1.35237 18.7207 2.21874 18.4736 2.91607C18.3295 3.33869 18.2471 3.69792 18.2059 3.93037C18.1853 4.09942 18.1648 4.18394 18.1648 4.20507C18.1236 4.35299 18.2677 4.54317 18.4736 4.5643Z" fill="#9B2C60"/>
<path d="M32.2085 2.02858C32.2909 2.21876 32.5174 2.30329 32.7027 2.19763C32.7027 2.19763 32.7027 2.19763 32.7233 2.19763C32.8057 2.15537 33.3823 1.9018 34.1854 1.8384C35.0708 1.75388 36.2034 1.88067 37.3977 2.66252C38.2214 3.21193 38.798 3.88812 39.1892 4.56432C39.5599 5.19826 39.7658 5.78993 39.8688 6.23368C39.9305 6.46612 39.9511 6.63517 39.9717 6.76196C39.9717 6.82535 39.9923 6.86762 39.9923 6.90988V6.95214C39.9923 7.01553 40.0129 7.10006 40.0541 7.14232C40.0541 7.14232 40.1365 7.24798 40.26 7.41702C40.6307 7.9453 41.4749 9.14978 42.0309 10.0795C42.1545 10.2909 42.278 10.5022 42.3604 10.6712C42.4428 10.8403 42.5045 10.9882 42.5251 11.0727C42.834 12.1293 42.8134 13.3126 42.5663 14.348C42.2986 15.3835 41.7838 16.2498 41.1249 16.7147C40.5895 17.0951 39.9099 17.7079 39.1069 18.3841C38.3038 19.0603 37.3977 19.7999 36.4299 20.3915C36.0798 20.6029 35.7298 20.793 35.3797 20.9621C34.8237 21.2157 34.2883 21.427 33.7323 21.5115C33.5264 21.5538 33.4029 21.7439 33.444 21.9552C33.4852 22.1666 33.6706 22.2933 33.8765 22.2511C33.8971 22.2511 33.9383 22.23 33.9588 22.23C34.9473 22.0398 35.8945 21.5749 36.8005 21.0255C37.8096 20.3915 38.7568 19.6308 39.5599 18.9546C40.363 18.2784 41.0631 17.6445 41.5161 17.3275C42.381 16.7147 42.9576 15.6793 43.2664 14.5382C43.5547 13.376 43.5753 12.0659 43.2253 10.8614C43.1841 10.6924 43.1017 10.5233 42.9987 10.3331C42.8958 10.1429 42.7722 9.93163 42.6487 9.69919C41.9897 8.55811 40.9601 7.12119 40.6924 6.76196C40.6513 6.42386 40.4659 5.32504 39.7864 4.1417C39.354 3.40211 38.7156 2.62026 37.7684 2.00745C36.4093 1.09881 35.0502 0.972027 34.0618 1.07768C33.0528 1.18334 32.3939 1.50031 32.3733 1.52144C32.3321 1.54257 32.2909 1.58483 32.2497 1.60596C32.1673 1.73275 32.1468 1.9018 32.2085 2.02858Z" fill="#9B2C60"/>
<path d="M38.036 44.5022C38.2626 44.3543 38.5509 44.1641 38.8597 43.8894C40.0335 42.8962 40.7748 41.565 41.372 39.959C41.9691 38.353 42.4427 36.4724 43.0605 34.4015C43.4312 33.1548 43.39 31.9503 43.1223 30.8726C42.8752 29.7949 42.4222 28.8652 42.0103 28.1678C41.8662 27.9354 41.7426 27.7452 41.6397 27.5762C41.4955 28.0411 41.2484 28.5059 40.9601 28.9497C40.5071 29.647 39.9511 30.3232 39.3128 31.0628C38.0566 32.4997 36.6152 34.1057 35.565 36.2188C34.8031 37.7191 34.7619 39.1983 34.9884 40.4873C35.2355 41.7763 35.7709 42.8751 36.1622 43.5724C36.224 43.6992 36.2857 43.7837 36.3475 43.8894C36.5534 42.22 36.8829 40.7409 37.2741 39.473C38.3243 35.9652 39.7246 34.0423 39.7452 34.0212C39.8687 33.8521 40.0953 33.831 40.26 33.9366C40.4247 34.0634 40.4453 34.2959 40.3424 34.4649V34.4861L40.3012 34.5494C40.26 34.6128 40.1982 34.6974 40.1364 34.803C39.9923 35.0355 39.7864 35.3524 39.5599 35.7962C39.0862 36.6837 38.5097 37.9938 37.9949 39.6843C37.5624 41.1212 37.1918 42.854 37.0064 44.8192C37.027 44.8192 37.0476 44.8403 37.0682 44.8403C37.233 44.8614 37.5418 44.8192 38.036 44.5022Z" fill="white"/>
<path d="M36.3887 43.8683C36.3269 43.7837 36.2651 43.6781 36.2034 43.5513C35.7915 42.8751 35.2561 41.7763 35.0296 40.4662C34.7825 39.1772 34.8443 37.698 35.6062 36.1977C36.677 34.1057 38.1184 32.4997 39.3539 31.0417C39.9717 30.3232 40.5483 29.6259 41.0013 28.9286C41.2896 28.4848 41.5161 28.0199 41.6808 27.555C41.8044 27.7241 41.9279 27.9143 42.0515 28.1467C42.4633 28.844 42.9164 29.7738 43.1635 30.8515C43.4106 31.9292 43.4723 33.1337 43.1017 34.3804C42.4839 36.4512 42.0103 38.3319 41.4131 39.9379C40.816 41.5438 40.0747 42.854 38.9009 43.8683C38.592 44.143 38.3037 44.3332 38.0772 44.4811C37.583 44.798 37.2741 44.8403 37.1094 44.8192C37.0888 44.8192 37.0682 44.8192 37.0476 44.798C37.027 45.0516 37.0064 45.3052 36.9859 45.5588C37.0888 45.5799 37.2124 45.5799 37.3153 45.5588C37.6448 45.5165 38.0155 45.3897 38.4479 45.115C38.7156 44.946 39.0245 44.7135 39.3539 44.4388C40.6512 43.34 41.4543 41.8819 42.0721 40.2126C42.7104 38.5432 43.1635 36.6414 43.7812 34.5917C44.1931 33.197 44.1313 31.8447 43.8636 30.6613C43.5959 29.478 43.1017 28.4848 42.6693 27.7452C42.1956 26.9211 41.7632 26.4351 41.7632 26.4351C41.6602 26.3294 41.5161 26.2872 41.372 26.3294C41.2278 26.3717 41.1248 26.4985 41.1248 26.6464C41.0631 27.2592 40.7954 27.872 40.3835 28.5059C39.7658 29.4568 38.8391 30.4711 37.8301 31.6545C36.8417 32.8378 35.7709 34.1691 34.9472 35.8384C34.103 37.5078 34.0412 39.1772 34.3089 40.5929C34.5766 42.0087 35.1532 43.1921 35.5856 43.9105C35.8121 44.2909 35.9974 44.5445 36.0798 44.6713C36.1004 44.7558 36.1416 44.8826 36.2239 45.0094C36.2445 45.0305 36.2651 45.0727 36.2857 45.0939C36.2857 44.6924 36.3269 44.2698 36.3887 43.8683Z" fill="#9B2C60"/>
<path d="M37.6448 54.1803C36.9447 50.9683 36.8005 48.0734 36.9653 45.5799C36.9859 45.3263 37.0065 45.0727 37.0271 44.8192C37.2124 42.854 37.583 41.1212 38.0155 39.6843C38.5303 37.9938 39.1274 36.6837 39.5805 35.7962C39.807 35.3524 40.0129 35.0143 40.157 34.803C40.2188 34.6974 40.2806 34.6128 40.3218 34.5494L40.363 34.486V34.4649C40.4865 34.2959 40.4453 34.0634 40.2806 33.9366C40.1159 33.8098 39.8893 33.8521 39.7658 34.0212C39.7452 34.0423 38.3449 35.9652 37.2947 39.473C36.9035 40.7409 36.574 42.22 36.3681 43.8894C36.3269 44.2909 36.2651 44.7135 36.2446 45.1573C36.0798 47.207 36.121 49.4892 36.4917 52.0249C36.8417 52.849 37.2124 53.6731 37.6036 54.4761C37.6448 54.3704 37.6654 54.2648 37.6448 54.1803Z" fill="#9B2C60"/>
<path d="M46.4582 67.366C43.5753 64.2809 41.4543 61.3648 39.7246 58.4064C38.9627 57.0963 38.2625 55.765 37.6036 54.4338C37.2123 53.6308 36.8417 52.8278 36.4916 51.9826C35.6268 49.9751 34.8237 47.9043 34 45.6644C32.0437 40.4238 30.8906 34.9297 30.1905 30.7247C29.8404 28.6327 29.6345 26.8577 29.4903 25.6109C29.4286 24.9981 29.3874 24.491 29.3462 24.1529C29.3256 23.9838 29.3256 23.857 29.305 23.7725C29.305 23.7303 29.305 23.688 29.305 23.6669C29.305 23.6457 29.305 23.6457 29.305 23.6457C29.2844 23.4344 29.1197 23.2865 28.9138 23.2865C28.7078 23.3076 28.5637 23.4767 28.5843 23.6669V23.688C28.5843 23.7091 29.1815 32.4363 31.8996 41.6495C31.982 41.7762 32.0438 41.8819 32.1261 42.0087C32.7439 43.0441 33.3616 44.2486 34 45.601C34.0824 45.7912 34 46.0025 33.8147 46.1081C33.6293 46.1926 33.4234 46.1081 33.3205 45.9179C33.3205 45.9179 33.3205 45.9179 33.3205 45.8968C35.0708 50.609 36.7181 54.7085 39.0862 58.7234C40.8571 61.724 43.0193 64.6824 45.9228 67.8098C46.0669 67.9577 46.2934 67.9577 46.4376 67.8309C46.6023 67.7464 46.6023 67.5139 46.4582 67.366Z" fill="#9B2C60"/>
<path d="M33.8147 46.1715C34 46.0869 34.0824 45.8545 34 45.6643C33.3822 44.2908 32.7439 43.1075 32.1261 42.072C32.0438 41.9452 31.982 41.8185 31.8996 41.7128C29.9845 38.5643 28.193 36.8315 26.834 35.9017C25.5984 35.0354 24.7336 34.8452 24.5071 34.8029C24.4865 34.8029 24.4659 34.8029 24.4453 34.8029C24.2394 34.7818 24.054 34.9297 24.0335 35.141C24.0129 35.3523 24.157 35.5214 24.3423 35.5636C24.3835 35.5636 25.2278 35.7115 26.5251 36.6413C27.8224 37.5711 29.5727 39.3038 31.4672 42.4947C32.0643 43.5089 32.6821 44.6712 33.2999 46.0236C33.2999 46.0236 33.2999 46.0236 33.2999 46.0447C33.4234 46.1715 33.6293 46.256 33.8147 46.1715Z" fill="#9B2C60"/>
</g>
<defs>
<clipPath id="clip0_8_6990">
<rect width="64" height="68" fill="white" transform="translate(2)"/>
</clipPath>
</defs>
</svg>
